SplineFontDB: 3.0
FontName: iconfont
FullName: iconfont
FamilyName: iconfont
Weight: Medium
Version: 1.0 ; ttfautohint (v0.94) -l 8 -r 50 -G 200 -x 14 -w "G" -f -s
ItalicAngle: 0
UnderlinePosition: -150
UnderlineWidth: 50
Ascent: 896
Descent: 128
InvalidEm: 0
sfntRevision: 0x00010000
LayerCount: 2
Layer: 0 1 "Back" 1
Layer: 1 1 "Fore" 0
XUID: [1021 356 -1765017058 17333]
StyleMap: 0x0040
FSType: 0
OS2Version: 4
OS2_WeightWidthSlopeOnly: 0
OS2_UseTypoMetrics: 1
CreationTime: 1468889186
ModificationTime: 1482893540
PfmFamily: 17
TTFWeight: 500
TTFWidth: 5
LineGap: 92
VLineGap: 0
Panose: 2 0 6 3 0 0 0 0 0 0
OS2TypoAscent: 896
OS2TypoAOffset: 0
OS2TypoDescent: -128
OS2TypoDOffset: 0
OS2TypoLinegap: 92
OS2WinAscent: 896
OS2WinAOffset: 0
OS2WinDescent: 128
OS2WinDOffset: 0
HheadAscent: 896
HheadAOffset: 0
HheadDescent: -128
HheadDOffset: 0
OS2SubXSize: 665
OS2SubYSize: 716
OS2SubXOff: 0
OS2SubYOff: 143
OS2SupXSize: 665
OS2SupYSize: 716
OS2SupXOff: 0
OS2SupYOff: 491
OS2StrikeYSize: 51
OS2StrikeYPos: 265
OS2XHeight: 792
OS2Vendor: 'PfEd'
OS2CodePages: 00000001.00000000
OS2UnicodeRanges: 00000001.10000000.00000000.00000000
DEI: 91125
TtTable: prep
MPPEM
PUSHW_1
 200
GT
IF
PUSHB_2
 1
 1
INSTCTRL
EIF
PUSHW_2
 2048
 2048
MUL
DUP
PUSHB_1
 1
SWAP
WCVTP
DUP
PUSHB_1
 3
SWAP
WCVTF
PUSHB_1
 14
RCVT
DUP
DUP
MPPEM
PUSHW_1
 14
LTEQ
MPPEM
PUSHB_1
 6
GTEQ
AND
IF
PUSHB_1
 52
ELSE
PUSHB_1
 40
EIF
ADD
FLOOR
DUP
ROLL
NEQ
IF
PUSHB_1
 2
CINDEX
SUB
PUSHB_1
 1
RCVT
MUL
SWAP
DIV
PUSHB_1
 2
SWAP
WCVTP
PUSHB_4
 10
 9
 5
 4
CALL
PUSHB_4
 10
 11
 5
 4
CALL
PUSHB_4
 14
 15
 5
 4
CALL
EIF
PUSHB_3
 4
 40
 9
RCVT
GT
WCVTP
PUSHB_4
 10
 13
 6
 4
CALL
PUSHB_2
 6
 1
WCVTP
PUSHB_2
 36
 1
GETINFO
LTEQ
IF
PUSHB_1
 64
GETINFO
IF
PUSHB_2
 6
 3
WCVTP
PUSHB_2
 38
 1
GETINFO
LTEQ
IF
PUSHW_1
 1024
GETINFO
IF
PUSHB_2
 6
 1
WCVTP
EIF
EIF
EIF
EIF
PUSHW_1
 511
SCANCTRL
PUSHB_1
 4
SCANTYPE
PUSHB_2
 5
 0
WCVTP
EndTTInstrs
TtTable: fpgm
PUSHB_1
 0
FDEF
PUSHB_1
 32
ADD
FLOOR
ENDF
PUSHB_1
 1
FDEF
DUP
ABS
DUP
PUSHB_1
 192
LT

StartChar: .notdef
Encoding: 65536 -1 0
Width: 374
Flags: W
LayerCount: 2
Fore
SplineSet
34 0 m 1,0,-1
 34 682 l 1,1,-1
 306 682 l 1,2,-1
 306 0 l 1,3,-1
 34 0 l 1,0,-1
68 34 m 1,4,-1
 272 34 l 1,5,-1
 272 648 l 1,6,-1
 68 648 l 1,7,-1
 68 34 l 1,4,-1
EndSplineSet
Validated: 1
EndChar

StartChar: x
Encoding: 120 120 3
Width: 1001
Flags: W
LayerCount: 2
Fore
SplineSet
281 543 m 1,0,1
 254 542 254 542 228 542 c 2,2,-1
 145 542 l 2,3,4
 127 542 127 542 108.5 536 c 128,-1,5
 90 530 90 530 76 517.5 c 128,-1,6
 62 505 62 505 53 485.5 c 128,-1,7
 44 466 44 466 44 440 c 2,8,-1
 44 364 l 1,9,-1
 956 364 l 1,10,-1
 956 405 l 2,11,12
 956 421 956 421 955.5 435 c 128,-1,13
 955 449 955 449 955 453 c 0,14,15
 955 466 955 466 950 482 c 128,-1,16
 945 498 945 498 933 511.5 c 128,-1,17
 921 525 921 525 901.5 534 c 128,-1,18
 882 543 882 543 852 543 c 2,19,-1
 719 543 l 1,20,-1
 719 446 l 1,21,-1
 281 446 l 1,22,-1
 281 543 l 1,0,1
955 310 m 1,23,-1
 955 258 l 2,24,25
 955 235 955 235 955.5 206 c 128,-1,26
 956 177 956 177 956 148 c 128,-1,27
 956 119 956 119 945.5 100.5 c 128,-1,28
 935 82 935 82 919.5 70.5 c 128,-1,29
 904 59 904 59 886.5 54.5 c 128,-1,30
 869 50 869 50 855 50 c 0,31,32
 841 49 841 49 825.5 49.5 c 128,-1,33
 810 50 810 50 796 50 c 2,34,-1
 764 50 l 1,35,-1
 719 178 l 1,36,-1
 280 178 l 1,37,-1
 236 50 l 1,38,-1
 207 50 l 1,39,-1
 173 50 l 2,40,41
 153 50 153 50 128 51 c 0,42,43
 103 51 103 51 87 60.5 c 128,-1,44
 71 70 71 70 61.5 83.5 c 128,-1,45
 52 97 52 97 48 113 c 128,-1,46
 44 129 44 129 44 143 c 2,47,-1
 44 310 l 1,48,-1
 955 310 l 1,23,-1
163 247 m 0,49,50
 151 247 151 247 142 238.5 c 128,-1,51
 133 230 133 230 133 217 c 128,-1,52
 133 204 133 204 142 195.5 c 128,-1,53
 151 187 151 187 163 187 c 0,54,55
 176 187 176 187 185 195.5 c 128,-1,56
 194 204 194 204 194 217 c 128,-1,57
 194 230 194 230 185 238.5 c 128,-1,58
 176 247 176 247 163 247 c 0,49,50
316 123 m 1,59,60
 684 123 l 1,61,62
 690 103 690 103 695 84 c 0,63,64
 700 67 700 67 704.5 49.5 c 128,-1,65
 709 32 709 32 714 19 c 0,66,67
 723 -7 723 -7 712 -19 c 128,-1,68
 701 -31 701 -31 678 -31 c 2,69,-1
 642 -31 l 1,70,-1
 578 -31 l 1,71,-1
 498 -31 l 1,72,-1
 417 -31 l 1,73,-1
 350 -31 l 1,74,-1
 313 -31 l 2,75,76
 299 -31 299 -31 291.5 -27 c 128,-1,77
 284 -23 284 -23 282 -16.5 c 128,-1,78
 280 -10 280 -10 281 -2 c 128,-1,79
 282 6 282 6 284 13 c 128,-1,80
 286 20 286 20 291.5 38 c 128,-1,81
 297 56 297 56 302 75 c 0,82,83
 308 97 308 97 316 123 c 1,59,60
336 498 m 1,84,-1
 336 726 l 2,85,86
 336 737 336 737 338.5 749 c 128,-1,87
 341 761 341 761 348.5 770.5 c 128,-1,88
 356 780 356 780 369 786 c 128,-1,89
 382 792 382 792 403 792 c 2,90,-1
 591 792 l 2,91,92
 622 792 622 792 642.5 777.5 c 128,-1,93
 663 763 663 763 663 725 c 2,94,-1
 663 498 l 1,95,-1
 336 498 l 1,84,-1
EndSplineSet
Validated: 41
EndChar

StartChar: uniE600
Encoding: 58880 58880 4
Width: 1024
Flags: W
LayerCount: 2
Fore
SplineSet
1008.93945312 358.954101562 m 1,0,-1
 870.103515625 358.954101562 l 1,1,-1
 870.103515625 -34.3154296875 l 1,2,-1
 645.840820312 -34.3154296875 l 1,3,-1
 645.840820312 247.407226562 l 1,4,-1
 421.513671875 247.407226562 l 1,5,-1
 421.513671875 -34.3154296875 l 1,6,-1
 194.9140625 -34.3154296875 l 1,7,-1
 194.9140625 358.954101562 l 1,8,-1
 46.734375 358.954101562 l 1,9,-1
 527.834960938 840.0546875 l 1,10,-1
 1008.93945312 358.954101562 l 1,0,-1
1008.93945312 358.954101562 m 1024,11,-1
927.631835938 751.1171875 m 1,12,-1
 927.631835938 517.442382812 l 1,13,-1
 695.189453125 749.948242188 l 1,14,-1
 695.189453125 751.1171875 l 1,15,-1
 927.631835938 751.1171875 l 1,12,-1
927.631835938 751.1171875 m 1024,16,-1
EndSplineSet
Validated: 1
EndChar

StartChar: uniE601
Encoding: 58881 58881 5
Width: 1024
Flags: W
LayerCount: 2
Fore
SplineSet
752.029296875 444.22265625 m 1,0,1
 738.756979275 512.6917869 738.756979275 512.6917869 689.11609628 562.333244622 c 128,-1,2
 639.475213285 611.974702344 639.475213285 611.974702344 571.004882812 625.2109375 c 1,3,-1
 571.004882812 843.927734375 l 1,4,5
 729.201327638 828.515460826 729.201327638 828.515460826 842.266029108 715.459312655 c 128,-1,6
 955.330730578 602.403164484 955.330730578 602.403164484 970.743164062 444.22265625 c 1,7,-1
 752.029296875 444.22265625 l 1,0,1
752.029296875 444.22265625 m 1024,8,-1
483.977539062 625.2109375 m 1,9,10
 415.498977255 611.973111117 415.498977255 611.973111117 365.843466442 562.328329257 c 128,-1,11
 316.18795563 512.683547398 316.18795563 512.683547398 302.938476562 444.22265625 c 1,12,-1
 84.25390625 444.22265625 l 1,13,14
 99.6665243949 602.405059686 99.6665243949 602.405059686 212.719263826 715.464991459 c 128,-1,15
 325.772003256 828.524923233 325.772003256 828.524923233 483.977539062 843.961914062 c 1,16,-1
 483.977539062 625.2109375 l 1,9,10
483.977539062 625.2109375 m 1024,17,-1
571.004882812 176.1796875 m 1,18,19
 639.482052412 189.416512382 639.482052412 189.416512382 689.120179443 239.050233419 c 128,-1,20
 738.758306475 288.683954456 738.758306475 288.683954456 752.029296875 357.171875 c 1,21,-1
 970.744140625 357.171875 l 1,22,23
 955.308354625 198.966604138 955.308354625 198.966604138 842.253446177 85.9214149241 c 128,-1,24
 729.198537728 -27.1237742901 729.198537728 -27.1237742901 571.004882812 -42.533203125 c 1,25,-1
 571.004882812 176.1796875 l 1,18,19
571.004882812 176.1796875 m 1024,26,-1
302.938476562 357.170898438 m 1,27,28
 316.208353025 288.689459033 316.208353025 288.689459033 365.851487988 239.04804813 c 128,-1,29
 415.49462295 189.406637226 415.49462295 189.406637226 483.977539062 176.135742188 c 1,30,-1
 483.977539062 -42.5341796875 l 1,31,32
 325.790688325 -27.1466729292 325.790688325 -27.1466729292 212.728446208 85.9097373697 c 128,-1,33
 99.6662040904 198.966147669 99.6662040904 198.966147669 84.25390625 357.170898438 c 1,34,-1
 302.938476562 357.170898438 l 1,27,28
302.938476562 357.170898438 m 1024,35,-1
EndSplineSet
Validated: 2049
EndChar

StartChar: uniE602
Encoding: 58882 58882 6
Width: 1024
Flags: W
LayerCount: 2
Fore
SplineSet
802.057617188 841.280273438 m 1,0,-1
 968.645507812 674.69140625 l 1,1,-1
 253.498046875 -40.4560546875 l 1,2,-1
 86.9091796875 126.1328125 l 1,3,-1
 802.057617188 841.280273438 l 1,0,-1
200.072265625 87.36328125 m 1,4,-1
 214.357421875 101.643554688 l 1,5,-1
 149.428710938 166.572265625 l 1,6,-1
 135.143554688 152.29296875 l 1,7,-1
 200.072265625 87.36328125 l 1,4,-1
263.701171875 150.993164062 m 1,8,-1
 277.986328125 165.27734375 l 1,9,-1
 213.057617188 230.206054688 l 1,10,-1
 198.772460938 215.921875 l 1,11,-1
 263.701171875 150.993164062 l 1,8,-1
327.14453125 214.435546875 m 1,12,-1
 341.430664062 228.721679688 l 1,13,-1
 276.500976562 293.650390625 l 1,14,-1
 262.215820312 279.364257812 l 1,15,-1
 327.14453125 214.435546875 l 1,12,-1
390.775390625 278.064453125 m 1,16,-1
 405.059570312 292.349609375 l 1,17,-1
 340.130859375 357.278320312 l 1,18,-1
 325.846679688 342.993164062 l 1,19,-1
 390.775390625 278.064453125 l 1,16,-1
454.221679688 341.513671875 m 1,20,-1
 468.506835938 355.797851562 l 1,21,-1
 403.578125 420.7265625 l 1,22,-1
 389.29296875 406.442382812 l 1,23,-1
 454.221679688 341.513671875 l 1,20,-1
517.8515625 405.142578125 m 1,24,-1
 532.13671875 419.426757812 l 1,25,-1
 467.20703125 484.35546875 l 1,26,-1
 452.922851562 470.072265625 l 1,27,-1
 517.8515625 405.142578125 l 1,24,-1
581.481445312 468.586914062 m 1,28,-1
 595.765625 482.872070312 l 1,29,-1
 530.836914062 547.80078125 l 1,30,-1
 516.552734375 533.516601562 l 1,31,-1
 581.481445312 468.586914062 l 1,28,-1
644.9296875 532.219726562 m 1,32,-1
 659.213867188 546.504882812 l 1,33,-1
 594.28515625 611.43359375 l 1,34,-1
 580.000976562 597.1484375 l 1,35,-1
 644.9296875 532.219726562 l 1,32,-1
708.557617188 595.848632812 m 1,36,-1
 722.840820312 610.134765625 l 1,37,-1
 657.912109375 675.063476562 l 1,38,-1
 643.62890625 660.77734375 l 1,39,-1
 708.557617188 595.848632812 l 1,36,-1
772.001953125 659.291992188 m 1,40,-1
 786.286132812 673.576171875 l 1,41,-1
 721.357421875 738.504882812 l 1,42,-1
 707.073242188 724.220703125 l 1,43,-1
 772.001953125 659.291992188 l 1,40,-1
770.70703125 787.856445312 m 1,44,-1
 835.635742188 722.926757812 l 1,45,-1
 849.916015625 737.20703125 l 1,46,-1
 784.986328125 802.135742188 l 1,47,-1
 770.70703125 787.856445312 l 1,44,-1
770.70703125 787.856445312 m 1024,48,-1
836.931640625 254.138671875 m 1,49,-1
 885.72265625 43.0244140625 l 1,50,-1
 674.607421875 91.81640625 l 1,51,-1
 549.944335938 216.478515625 l 1,52,-1
 712.267578125 378.801757812 l 1,53,-1
 836.931640625 254.138671875 l 1,49,-1
836.931640625 254.138671875 m 1024,54,-1
251.237304688 839.681640625 m 1,55,-1
 504.405273438 586.514648438 l 1,56,-1
 342.141601562 424.250976562 l 1,57,-1
 88.9736328125 677.41796875 l 1,58,-1
 251.237304688 839.681640625 l 1,55,-1
251.237304688 839.681640625 m 1024,59,-1
EndSplineSet
Validated: 2049
EndChar

StartChar: uniE603
Encoding: 58883 58883 7
Width: 1024
Flags: W
LayerCount: 2
Fore
SplineSet
532.458007812 -25.0380859375 m 0,0,1
 474.61316782 -25.0380859375 474.61316782 -25.0380859375 404.974609375 12.5966796875 c 0,2,3
 363.342074266 35.0958981549 363.342074266 35.0958981549 276.53125 97.69921875 c 0,4,5
 267.794706473 104.000813996 267.794706473 104.000813996 264.393554688 106.44921875 c 0,6,7
 160.501154334 181.221078313 160.501154334 181.221078313 117.034179688 242.551757812 c 2,8,-1
 116.3984375 243.451171875 l 2,9,10
 106.297439204 257.597383974 106.297439204 257.597383974 110.43359375 286.796875 c 1,11,-1
 110.743164062 645.790039062 l 2,12,13
 108.546120047 665.793733313 108.546120047 665.793733313 118.087890625 681.395507812 c 0,14,15
 129.919878731 700.713278492 129.919878731 700.713278492 163.017621558 726.013795404 c 128,-1,16
 196.115364385 751.314312316 196.115364385 751.314312316 234.891601562 768.126953125 c 128,-1,17
 273.506357183 784.886765917 273.506357183 784.886765917 300.666643479 794.583426505 c 128,-1,18
 327.826929775 804.280087094 327.826929775 804.280087094 389.374697667 815.291899016 c 128,-1,19
 450.922465558 826.303710938 450.922465558 826.303710938 520.82421875 826.303710938 c 0,20,21
 618.97633695 826.303710938 618.97633695 826.303710938 724.508789062 798.22265625 c 0,22,23
 800.557399162 777.991752217 800.557399162 777.991752217 842.134765625 756.232421875 c 0,24,25
 846.597083819 753.900768236 846.597083819 753.900768236 856.87890625 748.616210938 c 0,26,27
 919.798768385 716.300673064 919.798768385 716.300673064 933.409179688 698.640625 c 0,28,29
 949.58547642 677.652979741 949.58547642 677.652979741 946.12890625 644.25 c 2,30,-1
 946.12890625 323.206054688 l 2,31,32
 946.12890625 315.335449219 946.12890625 315.335449219 946.140625 308.698242188 c 0,33,34
 946.209271829 262.552318123 946.209271829 262.552318123 941.865234375 253.826171875 c 0,35,36
 926.926858309 224.013532945 926.926858309 224.013532945 868.859375 180.115234375 c 0,37,38
 840.306448888 158.573242188 840.306448888 158.573242188 806.202148438 158.573242188 c 128,-1,39
 772.006262817 158.573242188 772.006262817 158.573242188 744.047851562 176.760742188 c 2,40,-1
 578.549804688 261 l 1,41,42
 559.515023496 235.1785416 559.515023496 235.1785416 517.063476562 208.62109375 c 0,43,44
 473.52417061 181.361024021 473.52417061 181.361024021 383.467773438 162.034179688 c 2,45,-1
 375.251953125 160.272460938 l 1,46,-1
 347.926757812 217.560546875 l 1,47,-1
 363.413085938 218.736328125 l 2,48,49
 390.243388041 220.895088064 390.243388041 220.895088064 429.780273438 233.876953125 c 0,50,51
 508.569770104 259.805921829 508.569770104 259.805921829 535.876953125 301.342773438 c 0,52,53
 555.965297798 331.92959737 555.965297798 331.92959737 555.649414062 399.532226562 c 2,54,-1
 555.603515625 410.225585938 l 1,55,-1
 611.248046875 410.225585938 l 1,56,-1
 610.875 399.217773438 l 2,57,58
 609.728348004 366.623580528 609.728348004 366.623580528 607.735351562 346.359375 c 0,59,60
 606.135735549 330.285326589 606.135735549 330.285326589 600.334960938 309.651367188 c 1,61,62
 664.414898457 280.210361774 664.414898457 280.210361774 716.091796875 255.508789062 c 0,63,64
 729.512839121 249.087082639 729.512839121 249.087082639 749.690429688 239.02734375 c 0,65,66
 789.539232211 219.166015625 789.539232211 219.166015625 804.122070312 219.166015625 c 0,67,68
 806.028459821 219.166015625 806.028459821 219.166015625 808.14453125 219.291015625 c 0,69,70
 823.210411664 220.184191939 823.210411664 220.184191939 845.696260227 238.426230835 c 128,-1,71
 868.18210879 256.66826973 868.18210879 256.66826973 885.897460938 277.66796875 c 1,72,-1
 885.897460938 659.063476562 l 2,73,74
 885.897460938 662.375976562 885.897460938 662.375976562 885.8125 663.262695312 c 0,75,76
 884.295703976 664.737385314 884.295703976 664.737385314 873.477539062 671.555664062 c 2,77,-1
 870.900390625 673.178710938 l 2,78,79
 848.182793454 687.519833502 848.182793454 687.519833502 817.569976222 702.326802064 c 128,-1,80
 786.95715899 717.133770627 786.95715899 717.133770627 716.870453465 737.288432311 c 128,-1,81
 646.78374794 757.443093995 646.78374794 757.443093995 571.426757812 763.530273438 c 0,82,83
 540.3750517 766.03515625 540.3750517 766.03515625 510.27734375 766.03515625 c 0,84,85
 345.60377142 766.03515625 345.60377142 766.03515625 228.705078125 697.669921875 c 0,86,87
 182.694955515 670.784558913 182.694955515 670.784558913 168.79296875 649.41015625 c 1,88,-1
 168.79296875 273.024414062 l 1,89,90
 182.058216433 254.724317469 182.058216433 254.724317469 187.263671875 248.65625 c 0,91,92
 191.743067077 243.424483597 191.743067077 243.424483597 208.104907494 228.123290006 c 128,-1,93
 224.466747912 212.822096415 224.466747912 212.822096415 261.061108131 183.003012077 c 128,-1,94
 297.655468349 153.183927739 297.655468349 153.183927739 337.1171875 125.919921875 c 0,95,96
 408.749730838 76.4139647729 408.749730838 76.4139647729 453.940919526 55.304638596 c 128,-1,97
 499.132108215 34.1953124191 499.132108215 34.1953124191 533.47265625 34.1982421875 c 0,98,99
 556.19687857 34.1982421875 556.19687857 34.1982421875 584.860351562 43.2373046875 c 0,100,101
 613.21986232 52.1616475137 613.21986232 52.1616475137 652.00405923 77.8853481458 c 128,-1,102
 690.788256141 103.609048778 690.788256141 103.609048778 706.030120457 116.404365396 c 128,-1,103
 721.271984773 129.199682014 721.271984773 129.199682014 731.208984375 138.168945312 c 2,104,-1
 739.416015625 145.655273438 l 1,105,-1
 776.732421875 101.05078125 l 1,106,-1
 770.375976562 94.1748046875 l 2,107,108
 763.485379512 86.728359752 763.485379512 86.728359752 737.13671875 65.734375 c 2,109,-1
 735.268554688 64.2509765625 l 2,110,111
 644.904566987 -7.72819722823 644.904566987 -7.72819722823 565.798828125 -22.046875 c 0,112,113
 549.295646127 -25.0380859375 549.295646127 -25.0380859375 532.458007812 -25.0380859375 c 0,0,1
256.739257812 196.875976562 m 1,114,-1
 261.538085938 204.759765625 l 2,115,116
 282.844211227 239.678137628 282.844211227 239.678137628 297.798828125 292.65234375 c 0,117,118
 312.635505376 345.125098358 312.635505376 345.125098358 313.026367188 457.791015625 c 2,119,-1
 313.1640625 686.42578125 l 1,120,-1
 323.83984375 686.383789062 l 1,121,-1
 327.43359375 686.383789062 l 2,122,123
 432.062874809 686.383789062 432.062874809 686.383789062 555.533203125 691.831054688 c 0,124,125
 640.923098245 695.606999594 640.923098245 695.606999594 763.159179688 706.38671875 c 2,126,-1
 771.350585938 707.112304688 l 1,127,-1
 791.625 650.427734375 l 1,128,-1
 777.510742188 649.538085938 l 2,129,130
 686.277707796 643.659472006 686.277707796 643.659472006 608.821289062 639.56640625 c 1,131,-1
 608.821289062 583.930664062 l 1,132,-1
 785.36328125 583.930664062 l 1,133,-1
 785.36328125 529.272460938 l 1,134,-1
 608.822265625 529.272460938 l 1,135,-1
 608.822265625 479.291015625 l 1,136,-1
 751.317382812 479.291015625 l 1,137,-1
 751.317382812 275.412109375 l 1,138,-1
 693.909179688 275.412109375 l 1,139,-1
 693.909179688 426.834960938 l 1,140,-1
 468.448242188 426.834960938 l 1,141,-1
 468.448242188 275.413085938 l 1,142,-1
 410.993164062 275.413085938 l 1,143,-1
 410.993164062 479.291992188 l 1,144,-1
 551.385742188 479.291992188 l 1,145,-1
 551.385742188 529.2734375 l 1,146,-1
 381.229492188 529.2734375 l 1,147,-1
 381.229492188 583.931640625 l 1,148,-1
 551.38671875 583.931640625 l 1,149,-1
 551.38671875 637.021484375 l 1,150,151
 486.638314784 634.730701292 486.638314784 634.730701292 370.627929688 631.942382812 c 1,152,-1
 370.627929688 505.0859375 l 2,153,154
 370.627929688 349.104690159 370.627929688 349.104690159 353.900390625 279.380859375 c 0,155,156
 339.727203178 220.338227623 339.727203178 220.338227623 309.576171875 169.278320312 c 2,157,-1
 303.2421875 158.577148438 l 1,158,-1
 256.739257812 196.875976562 l 1,114,-1
256.739257812 196.875976562 m 1024,159,-1
EndSplineSet
Validated: 1057
EndChar

StartChar: uniE604
Encoding: 58884 58884 8
Width: 1024
VWidth: 0
LayerCount: 2
Fore
SplineSet
205.18359375 697.673828125 m 2,0,1
 205.18359375 705.372688878 205.18359375 705.372688878 210.719534058 710.806349905 c 128,-1,2
 216.255474367 716.240010932 216.255474367 716.240010932 224.025390625 716.177734375 c 2,3,-1
 821.594726562 716.177734375 l 2,4,5
 829.356204639 716.177734375 829.356204639 716.177734375 834.853883569 710.748257502 c 128,-1,6
 840.3515625 705.31878063 840.3515625 705.31878063 840.3515625 697.673828125 c 2,7,-1
 840.3515625 575.888671875 l 2,8,9
 840.3515625 568.24371937 840.3515625 568.24371937 834.853883569 562.814242498 c 128,-1,10
 829.356204639 557.384765625 829.356204639 557.384765625 821.594726562 557.384765625 c 2,11,-1
 224.025390625 557.384765625 l 2,12,13
 216.193193142 557.384765625 216.193193142 557.384765625 210.688393446 562.786177685 c 128,-1,14
 205.18359375 568.187589746 205.18359375 568.187589746 205.18359375 575.888671875 c 2,15,-1
 205.18359375 697.673828125 l 2,0,1
962.139648438 463.435546875 m 1,16,-1
 962.227539062 341.645507812 l 2,17,18
 962.227539062 333.994678592 962.227539062 333.994678592 956.71514779 328.568628358 c 128,-1,19
 951.202756518 323.142578125 951.202756518 323.142578125 943.385742188 323.142578125 c 2,20,-1
 224.024414062 323.142578125 l 2,21,22
 216.207307003 323.142578125 216.207307003 323.142578125 210.694473814 328.568674386 c 128,-1,23
 205.181640625 333.994770646 205.181640625 333.994770646 205.181640625 341.645507812 c 2,24,-1
 205.181640625 463.435546875 l 2,25,26
 205.181640625 471.069648428 205.181640625 471.069648428 210.71826833 476.501621089 c 128,-1,27
 216.254896035 481.93359375 216.254896035 481.93359375 224.024414062 481.93359375 c 2,28,-1
 943.301757812 481.93359375 l 2,29,30
 951.119315792 481.93359375 951.119315792 481.93359375 956.629482115 476.508974291 c 128,-1,31
 962.139648438 471.084354831 962.139648438 471.084354831 962.139648438 463.435546875 c 1,16,-1
697.852539062 229.10546875 m 1,32,-1
 697.852539062 229.10546875 l 1,33,-1
 697.852539062 107.315429688 l 2,34,35
 697.852539062 99.6735951691 697.852539062 99.6735951691 692.354950449 94.2450007095 c 128,-1,36
 686.857361836 88.81640625 686.857361836 88.81640625 679.095703125 88.81640625 c 2,37,-1
 224.024414062 88.81640625 l 2,38,39
 216.207785845 88.81640625 216.207785845 88.81640625 210.694713235 94.2421454041 c 128,-1,40
 205.181640625 99.6678845581 205.181640625 99.6678845581 205.181640625 107.315429688 c 2,41,-1
 205.181640625 229.10546875 l 2,42,43
 205.181640625 236.741725128 205.181640625 236.741725128 210.718247078 242.175061783 c 128,-1,44
 216.254853531 247.608398438 216.254853531 247.608398438 224.024414062 247.608398438 c 2,45,-1
 679.095703125 247.608398438 l 2,46,47
 686.857668531 247.608398438 686.857668531 247.608398438 692.355103797 242.179164659 c 128,-1,48
 697.852539062 236.749930881 697.852539062 236.749930881 697.852539062 229.10546875 c 1,32,-1
155.702148438 -3.4384765625 m 2,49,50
 155.702148438 -16.2268083925 155.702148438 -16.2268083925 146.538608683 -25.2363291199 c 128,-1,51
 137.375068928 -34.2458498474 137.375068928 -34.2458498474 124.385742188 -34.2451171875 c 128,-1,52
 111.395586439 -34.2451171875 111.395586439 -34.2451171875 102.231972907 -25.2359155196 c 128,-1,53
 93.068359375 -16.2267138516 93.068359375 -16.2267138516 93.068359375 -3.4384765625 c 2,54,-1
 93.068359375 804.01953125 l 2,55,56
 93.068359375 816.759852759 93.068359375 816.759852759 102.239256288 825.793012317 c 128,-1,57
 111.4101532 834.826171875 111.4101532 834.826171875 124.385742188 834.826171875 c 128,-1,58
 137.360674408 834.826171875 137.360674408 834.826171875 146.531411423 825.792975166 c 128,-1,59
 155.702148438 816.759778456 155.702148438 816.759778456 155.702148438 804.01953125 c 2,60,-1
 155.702148438 -3.4384765625 l 2,49,50
155.702148438 -3.4384765625 m 1024,61,-1
EndSplineSet
Validated: 5
EndChar

StartChar: uniE605
Encoding: 58885 58885 9
Width: 1024
VWidth: 0
LayerCount: 2
Fore
SplineSet
880.862304688 788.572265625 m 2,0,-1
 936.40625 795.48828125 l 1,1,-1
 935.745117188 733.0234375 l 2,2,3
 933.605680867 545.185355458 933.605680867 545.185355458 905.290899531 427.408317172 c 128,-1,4
 876.976118194 309.631278886 876.976118194 309.631278886 821.009765625 213.639648438 c 0,5,6
 764.007330594 116.066624337 764.007330594 116.066624337 691.469084639 48.9976373603 c 128,-1,7
 618.930838683 -18.0713496164 618.930838683 -18.0713496164 538.716796875 -38.849609375 c 2,8,-1
 527.498046875 -41.7431640625 l 1,9,-1
 516.284179688 -38.849609375 l 2,10,11
 436.008448972 -18.0714250921 436.008448972 -18.0714250921 363.461934013 48.9969412421 c 128,-1,12
 290.915419054 116.065307576 290.915419054 116.065307576 233.947265625 213.639648438 c 0,13,14
 177.998765794 309.731552118 177.998765794 309.731552118 149.694896148 427.47438659 c 128,-1,15
 121.391026503 545.217221062 121.391026503 545.217221062 119.251953125 733.0234375 c 2,16,-1
 118.590820312 795.48828125 l 1,17,-1
 174.139648438 788.572265625 l 2,18,19
 253.784671476 778.612546137 253.784671476 778.612546137 336.43359375 789.98046875 c 0,20,21
 422.415139289 801.837477618 422.415139289 801.837477618 511.0234375 836.670898438 c 2,22,-1
 527.498046875 843.168945312 l 1,23,-1
 543.889648438 836.670898438 l 2,24,25
 632.630900172 801.83679223 632.630900172 801.83679223 718.479492188 789.98046875 c 0,26,27
 801.230680734 778.615337749 801.230680734 778.615337749 880.862304688 788.572265625 c 2,0,-1
503.41015625 244.688476562 m 1,28,-1
 786.446289062 547.676757812 l 1,29,-1
 738.348632812 592.127929688 l 1,30,-1
 502.501953125 340.133789062 l 1,31,-1
 358.205078125 488.8984375 l 1,32,-1
 310.9375 443.53515625 l 1,33,-1
 503.41015625 244.688476562 l 1,28,-1
503.41015625 244.688476562 m 1024,34,-1
EndSplineSet
Validated: 33
EndChar

StartChar: uniE606
Encoding: 58886 58886 10
Width: 1024
VWidth: 0
LayerCount: 2
Fore
SplineSet
527.864257812 632.62109375 m 128,-1,1
 607.826543764 632.62109375 607.826543764 632.62109375 664.492373445 575.956845307 c 128,-1,2
 721.158203125 519.292596865 721.158203125 519.292596865 721.158203125 439.33203125 c 128,-1,3
 721.158203125 359.370529884 721.158203125 359.370529884 664.492271778 302.704796192 c 128,-1,4
 607.826340431 246.0390625 607.826340431 246.0390625 527.864257812 246.0390625 c 128,-1,5
 447.903110944 246.0390625 447.903110944 246.0390625 391.238664847 302.704694525 c 128,-1,6
 334.57421875 359.37032655 334.57421875 359.37032655 334.57421875 439.33203125 c 128,-1,7
 334.57421875 519.292800193 334.57421875 519.292800193 391.238563183 575.956946972 c 128,-1,0
 447.902907615 632.62109375 447.902907615 632.62109375 527.864257812 632.62109375 c 128,-1,1
527.864257812 318.006835938 m 128,-1,9
 578.040783222 318.006835938 578.040783222 318.006835938 613.617437564 353.616701615 c 128,-1,10
 649.194091907 389.226567293 649.194091907 389.226567293 649.193359375 439.418945312 c 128,-1,11
 649.193359375 489.604155095 649.193359375 489.604155095 613.621018158 525.176100985 c 128,-1,12
 578.04867694 560.748046875 578.04867694 560.748046875 527.864257812 560.748046875 c 128,-1,13
 477.68954403 560.748046875 477.68954403 560.748046875 442.114303265 525.136036244 c 128,-1,14
 406.5390625 489.524025612 406.5390625 489.524025612 406.5390625 439.33203125 c 128,-1,15
 406.5390625 389.148681641 406.5390625 389.148681641 442.109985352 353.577758789 c 128,-1,8
 477.680908203 318.006835938 477.680908203 318.006835938 527.864257812 318.006835938 c 128,-1,9
527.864257812 318.006835938 m 1024,16,-1
852.76171875 616.315429688 m 0,17,18
 880.460075923 550.935686302 880.460075923 550.935686302 880.592773438 478.944335938 c 0,19,20
 880.592773438 382.632651478 880.592773438 382.632651478 831.938476562 300.102539062 c 0,21,22
 784.81610457 220.073140948 784.81610457 220.073140948 704.317382812 173.458007812 c 0,23,24
 680.068147061 159.351104226 680.068147061 159.351104226 652.915039062 149.084960938 c 1,25,-1
 695.544921875 40.787109375 l 1,26,-1
 703.255859375 40.787109375 l 2,27,28
 718.144101084 40.787109375 718.144101084 40.787109375 728.690214604 30.2402053061 c 128,-1,29
 739.236328125 19.6933012371 739.236328125 19.6933012371 739.236328125 4.802734375 c 128,-1,30
 739.236328125 -10.0845482259 739.236328125 -10.0845482259 728.690025691 -20.6306530192 c 128,-1,31
 718.143723257 -31.1767578125 718.143723257 -31.1767578125 703.255859375 -31.1767578125 c 2,32,-1
 671.526367188 -31.1767578125 l 1,33,-1
 671.0859375 -31.1767578125 l 1,34,-1
 358.771484375 -31.1767578125 l 2,35,36
 343.880900091 -31.1767578125 343.880900091 -31.1767578125 333.333516452 -20.630757644 c 128,-1,37
 322.786132812 -10.0847574755 322.786132812 -10.0847574755 322.786132812 4.802734375 c 128,-1,38
 322.786132812 19.6935105064 322.786132812 19.6935105064 333.333327517 30.2403099407 c 128,-1,39
 343.880522222 40.787109375 343.880522222 40.787109375 358.771484375 40.787109375 c 2,40,-1
 365.592773438 40.787109375 l 1,41,-1
 408.400390625 147.047851562 l 1,42,43
 398.609318417 150.64298611 398.609318417 150.64298611 390.586914062 154.047851562 c 0,44,45
 327.192258907 180.928352528 327.192258907 180.928352528 278.474609375 229.64453125 c 0,46,47
 229.53309141 278.587522691 229.53309141 278.587522691 202.876953125 341.7578125 c 0,48,49
 175.138671875 407.249670063 175.138671875 407.249670063 175.138671875 479.03515625 c 128,-1,50
 175.138671875 550.824102792 175.138671875 550.824102792 202.876953125 616.315429688 c 0,51,52
 229.600853235 679.646302927 229.600853235 679.646302927 278.388671875 728.426757812 c 128,-1,53
 327.330842462 777.370401896 327.330842462 777.370401896 390.49609375 804.024414062 c 0,54,55
 455.991524626 831.76171875 455.991524626 831.76171875 527.778320312 831.76171875 c 128,-1,56
 599.567581985 831.76171875 599.567581985 831.76171875 665.055664062 804.024414062 c 0,57,58
 728.442657925 777.147161626 728.442657925 777.147161626 777.168945312 728.426757812 c 0,59,60
 826.119373839 679.468959675 826.119373839 679.468959675 852.76171875 616.315429688 c 0,17,18
808.540039062 479.03515625 m 0,61,62
 808.540039062 595.497938105 808.540039062 595.497938105 726.206054688 677.553710938 c 128,-1,63
 643.954336332 759.797851562 643.954336332 759.797851562 527.686523438 759.797851562 c 128,-1,64
 411.415679367 759.797851562 411.415679367 759.797851562 329.166992188 677.553710938 c 128,-1,65
 246.922851562 595.311085747 246.922851562 595.311085747 246.922851562 479.034179688 c 128,-1,66
 246.922851562 362.752727325 246.922851562 362.752727325 329.166992188 280.514648438 c 128,-1,67
 411.409718533 198.2734375 411.409718533 198.2734375 527.686523438 198.2734375 c 0,68,69
 603.094078888 198.2734375 603.094078888 198.2734375 668.068359375 235.849609375 c 0,70,71
 732.016554746 272.676015729 732.016554746 272.676015729 769.810546875 336.704101562 c 0,72,73
 808.540039062 402.377276376 808.540039062 402.377276376 808.540039062 479.03515625 c 0,61,62
618.171875 40.873046875 m 1,74,-1
 582.72265625 130.741210938 l 1,75,76
 555.732909178 126.39453125 555.732909178 126.39453125 527.774414062 126.39453125 c 0,77,78
 503.358685561 126.39453125 503.358685561 126.39453125 478.857421875 129.765625 c 1,79,-1
 443.049804688 40.873046875 l 1,80,-1
 618.171875 40.873046875 l 1,74,-1
618.171875 40.873046875 m 1024,81,-1
529.016601562 642.015625 m 128,-1,83
 505.95124755 642.015625 505.95124755 642.015625 489.566932369 658.399742437 c 128,-1,84
 473.182617188 674.783859873 473.182617188 674.783859873 473.182617188 697.848632812 c 128,-1,85
 473.182617188 720.913876954 473.182617188 720.913876954 489.56826658 737.298735352 c 128,-1,86
 505.953915972 753.68359375 505.953915972 753.68359375 529.016601562 753.68359375 c 128,-1,87
 552.082763672 753.68359375 552.082763672 753.68359375 568.467163086 737.299194336 c 128,-1,88
 584.8515625 720.914794922 584.8515625 720.914794922 584.8515625 697.848632812 c 128,-1,89
 584.8515625 674.783784201 584.8515625 674.783784201 568.467087411 658.399704601 c 128,-1,82
 552.082612323 642.015625 552.082612323 642.015625 529.016601562 642.015625 c 128,-1,83
529.016601562 699.446289062 m 128,-1,91
 527.427351072 699.446289062 527.427351072 699.446289062 527.423828125 697.848632812 c 128,-1,92
 527.423828125 696.251953125 527.423828125 696.251953125 529.016601562 696.251953125 c 128,-1,93
 530.614257812 696.251953125 530.614257812 696.251953125 530.614257812 697.848632812 c 128,-1,90
 530.614257812 699.446289062 530.614257812 699.446289062 529.016601562 699.446289062 c 128,-1,91
529.016601562 699.446289062 m 1024,94,-1
EndSplineSet
Validated: 2081
EndChar

StartChar: uniE607
Encoding: 58887 58887 11
Width: 1024
VWidth: 0
LayerCount: 2
Fore
SplineSet
572.8515625 314.421875 m 1,0,1
 606.573615447 299.501415826 606.573615447 299.501415826 627.292178817 268.300228954 c 128,-1,2
 648.010742188 237.099042083 648.010742188 237.099042083 648.010742188 199.014648438 c 0,3,4
 648.010742188 146.760347044 648.010742188 146.760347044 611.062790711 109.812790709 c 128,-1,5
 574.114839235 72.865234375 574.114839235 72.865234375 521.861328125 72.865234375 c 128,-1,6
 469.607817015 72.865234375 469.607817015 72.865234375 432.659865539 109.812790709 c 128,-1,7
 395.711914062 146.760347044 395.711914062 146.760347044 395.711914062 199.014648438 c 0,8,9
 395.711914062 237.098581845 395.711914062 237.098581845 416.427217682 268.298406155 c 128,-1,10
 437.142521301 299.498230465 437.142521301 299.498230465 470.861328125 314.421875 c 1,11,-1
 470.861328125 620.671875 l 2,12,13
 470.861328125 636.663569468 470.861328125 636.663569468 485.798341224 647.97094489 c 128,-1,14
 500.735354323 659.278320312 500.735354323 659.278320312 521.856445312 659.278320312 c 128,-1,15
 542.979791418 659.278320312 542.979791418 659.278320312 557.915676959 647.971200211 c 128,-1,16
 572.8515625 636.66408011 572.8515625 636.66408011 572.8515625 620.671875 c 2,17,-1
 572.8515625 314.421875 l 1,0,1
572.8515625 314.421875 m 1024,18,-1
691.541992188 378.873046875 m 1,19,20
 769.127065732 305.735837282 769.127065732 305.735837282 769.124023438 199.013671875 c 0,21,22
 769.124023438 96.5902825854 769.124023438 96.5902825854 696.703125 24.1708984375 c 128,-1,23
 624.278419427 -48.2568359375 624.278419427 -48.2568359375 521.860351562 -48.2568359375 c 128,-1,24
 419.437400949 -48.2568359375 419.437400949 -48.2568359375 347.012695312 24.1708984375 c 128,-1,25
 274.590820312 96.5958023108 274.590820312 96.5958023108 274.590820312 199.013671875 c 0,26,27
 274.590820312 305.736138469 274.590820312 305.736138469 352.173828125 378.868164062 c 1,28,-1
 352.173828125 712.182617188 l 2,29,30
 352.173828125 771.492444172 352.173828125 771.492444172 405.313476562 811.725585938 c 0,31,32
 454.173511346 848.717773438 454.173511346 848.717773438 521.85546875 848.717773438 c 128,-1,33
 589.534199516 848.717773438 589.534199516 848.717773438 638.403320312 811.725585938 c 0,34,35
 691.541992188 771.492020089 691.541992188 771.492020089 691.541992188 712.182617188 c 2,36,-1
 691.541992188 378.873046875 l 1,19,20
521.861328125 18.2294921875 m 128,-1,38
 596.625075603 18.2294921875 596.625075603 18.2294921875 649.634803427 71.2394176851 c 128,-1,39
 702.64453125 124.249343183 702.64453125 124.249343183 702.64453125 199.014648438 c 0,40,41
 702.64453125 284.012238637 702.64453125 284.012238637 637.098632812 338.314453125 c 2,42,-1
 625.0625 348.284179688 l 1,43,-1
 625.0625 712.182617188 l 2,44,45
 625.0625 740.663496726 625.0625 740.663496726 594.438655715 761.450400707 c 128,-1,46
 563.814811429 782.237304688 563.814811429 782.237304688 521.856445312 782.237304688 c 128,-1,47
 479.900792923 782.237304688 479.900792923 782.237304688 449.27803318 761.450327408 c 128,-1,48
 418.655273438 740.663350128 418.655273438 740.663350128 418.655273438 712.182617188 c 2,49,-1
 418.655273438 348.278320312 l 1,50,-1
 406.619140625 338.309570312 l 2,51,52
 341.072265625 284.013966382 341.072265625 284.013966382 341.072265625 199.013671875 c 0,53,54
 341.072265625 124.248738353 341.072265625 124.248738353 394.083272425 71.2391152704 c 128,-1,37
 447.094279226 18.2294921875 447.094279226 18.2294921875 521.861328125 18.2294921875 c 128,-1,38
521.861328125 18.2294921875 m 1024,55,-1
724.143554688 676.803710938 m 2,56,57
 717.358851307 676.803710938 717.358851307 676.803710938 712.560285029 681.6010918 c 128,-1,58
 707.76171875 686.398472662 707.76171875 686.398472662 707.76171875 693.185546875 c 128,-1,59
 707.76171875 699.969895183 707.76171875 699.969895183 712.560753257 704.769127279 c 128,-1,60
 717.359787764 709.568359375 717.359787764 709.568359375 724.143554688 709.568359375 c 2,61,-1
 764.032226562 709.568359375 l 2,62,63
 770.815824876 709.568359375 770.815824876 709.568359375 775.614943688 704.768845378 c 128,-1,64
 780.4140625 699.969331382 780.4140625 699.969331382 780.4140625 693.185546875 c 128,-1,65
 780.4140625 686.399036463 780.4140625 686.399036463 775.615411873 681.6013737 c 128,-1,66
 770.816761246 676.803710938 770.816761246 676.803710938 764.032226562 676.803710938 c 2,67,-1
 724.143554688 676.803710938 l 2,56,57
724.143554688 676.803710938 m 1024,68,-1
764.032226562 659.278320312 m 2,69,70
 770.816761246 659.278320312 770.816761246 659.278320312 775.615411873 654.48065755 c 128,-1,71
 780.4140625 649.682994787 780.4140625 649.682994787 780.4140625 642.896484375 c 128,-1,72
 780.4140625 636.112229168 780.4140625 636.112229168 775.615074548 631.313438803 c 128,-1,73
 770.816086596 626.514648438 770.816086596 626.514648438 764.032226562 626.514648438 c 2,74,-1
 724.143554688 626.514648438 l 2,75,76
 717.359694654 626.514648438 717.359694654 626.514648438 712.560706702 631.313438803 c 128,-1,77
 707.76171875 636.112229168 707.76171875 636.112229168 707.76171875 642.896484375 c 128,-1,78
 707.76171875 649.682994787 707.76171875 649.682994787 712.560369377 654.48065755 c 128,-1,79
 717.359020004 659.278320312 717.359020004 659.278320312 724.143554688 659.278320312 c 2,80,-1
 764.032226562 659.278320312 l 2,69,70
764.032226562 659.278320312 m 1024,81,-1
764.032226562 608.994140625 m 2,82,83
 770.816761246 608.994140625 770.816761246 608.994140625 775.615411873 604.196477862 c 128,-1,84
 780.4140625 599.3988151 780.4140625 599.3988151 780.4140625 592.612304688 c 128,-1,85
 780.4140625 585.828613281 780.4140625 585.828613281 775.614990234 581.029541016 c 128,-1,86
 770.815917969 576.23046875 770.815917969 576.23046875 764.032226562 576.23046875 c 2,87,-1
 724.143554688 576.23046875 l 2,88,89
 717.359863281 576.23046875 717.359863281 576.23046875 712.560791016 581.029541016 c 128,-1,90
 707.76171875 585.828613281 707.76171875 585.828613281 707.76171875 592.612304688 c 128,-1,91
 707.76171875 599.3988151 707.76171875 599.3988151 712.560369377 604.196477862 c 128,-1,92
 717.359020004 608.994140625 717.359020004 608.994140625 724.143554688 608.994140625 c 2,93,-1
 764.032226562 608.994140625 l 2,82,83
764.032226562 608.994140625 m 1024,94,-1
764.032226562 558.7109375 m 2,95,96
 770.815824876 558.7109375 770.815824876 558.7109375 775.614943688 553.911423503 c 128,-1,97
 780.4140625 549.111909507 780.4140625 549.111909507 780.4140625 542.328125 c 128,-1,98
 780.4140625 535.542178389 780.4140625 535.542178389 775.615327531 530.744233726 c 128,-1,99
 770.816592563 525.946289062 770.816592563 525.946289062 764.032226562 525.946289062 c 2,100,-1
 724.143554688 525.946289062 l 2,101,102
 717.359188687 525.946289062 717.359188687 525.946289062 712.560453719 530.744233726 c 128,-1,103
 707.76171875 535.542178389 707.76171875 535.542178389 707.76171875 542.328125 c 128,-1,104
 707.76171875 549.111909507 707.76171875 549.111909507 712.560837562 553.911423503 c 128,-1,105
 717.359956374 558.7109375 717.359956374 558.7109375 724.143554688 558.7109375 c 2,106,-1
 764.032226562 558.7109375 l 2,95,96
764.032226562 558.7109375 m 1024,107,-1
764.032226562 508.421875 m 2,108,109
 770.816761246 508.421875 770.816761246 508.421875 775.615411873 503.624212237 c 128,-1,110
 780.4140625 498.826549475 780.4140625 498.826549475 780.4140625 492.040039062 c 128,-1,111
 780.4140625 485.256254556 780.4140625 485.256254556 775.614943688 480.456740559 c 128,-1,112
 770.815824876 475.657226562 770.815824876 475.657226562 764.032226562 475.657226562 c 2,113,-1
 724.143554688 475.657226562 l 2,114,115
 717.359956374 475.657226562 717.359956374 475.657226562 712.560837562 480.456740559 c 128,-1,116
 707.76171875 485.256254556 707.76171875 485.256254556 707.76171875 492.040039062 c 128,-1,117
 707.76171875 498.826549475 707.76171875 498.826549475 712.560369377 503.624212237 c 128,-1,118
 717.359020004 508.421875 717.359020004 508.421875 724.143554688 508.421875 c 2,119,-1
 764.032226562 508.421875 l 2,108,109
764.032226562 508.421875 m 1024,120,-1
764.032226562 458.137695312 m 2,121,122
 770.816761246 458.137695312 770.816761246 458.137695312 775.615411873 453.34003255 c 128,-1,123
 780.4140625 448.542369787 780.4140625 448.542369787 780.4140625 441.755859375 c 128,-1,124
 780.4140625 434.970947266 780.4140625 434.970947266 775.615112305 430.17199707 c 128,-1,125
 770.816162109 425.373046875 770.816162109 425.373046875 764.032226562 425.373046875 c 2,126,-1
 724.143554688 425.373046875 l 2,127,128
 717.359619141 425.373046875 717.359619141 425.373046875 712.560668945 430.17199707 c 128,-1,129
 707.76171875 434.970947266 707.76171875 434.970947266 707.76171875 441.755859375 c 128,-1,130
 707.76171875 448.542369787 707.76171875 448.542369787 712.560369377 453.34003255 c 128,-1,131
 717.359020004 458.137695312 717.359020004 458.137695312 724.143554688 458.137695312 c 2,132,-1
 764.032226562 458.137695312 l 2,121,122
764.032226562 458.137695312 m 1024,133,-1
EndSplineSet
Validated: 3105
EndChar

StartChar: uniE608
Encoding: 58888 58888 12
Width: 1024
VWidth: 0
LayerCount: 2
Fore
SplineSet
668.955078125 421.028320312 m 1,0,-1
 672.411132812 424.051757812 l 1,1,-1
 895.890625 616.1328125 l 1,2,3
 909.533387557 592.802536098 909.533387557 592.802536098 920.861328125 566.15625 c 1,4,-1
 752.352539062 421.028320312 l 1,5,-1
 668.955078125 421.028320312 l 1,0,-1
548.3359375 826.62890625 m 1,6,7
 580.545739309 825.108398544 580.545739309 825.108398544 616.943359375 817.4765625 c 1,8,-1
 548.3359375 758.27734375 l 1,9,-1
 548.3359375 826.62890625 l 1,6,7
901.193359375 421.028320312 m 1,10,-1
 901.192382812 421.021484375 l 1,11,-1
 818.182617188 421.021484375 l 1,12,-1
 936.266601562 522.578125 l 1,13,14
 945.821561201 490.725050482 945.821561201 490.725050482 949.83984375 462.901367188 c 1,15,-1
 901.193359375 421.028320312 l 1,10,-1
761.91015625 757.026367188 m 1,16,17
 785.57633751 741.431649918 785.57633751 741.431649918 806.069335938 723.786132812 c 1,18,-1
 548.3359375 501.678710938 l 1,19,-1
 548.3359375 573.458007812 l 1,20,-1
 761.91015625 757.026367188 l 1,16,17
667.100585938 803.916992188 m 1,21,22
 692.791541126 795.069004718 692.791541126 795.069004718 722.354492188 779.982421875 c 1,23,-1
 548.3359375 629.951171875 l 1,24,-1
 548.3359375 701.739257812 l 1,25,-1
 667.100585938 803.916992188 l 1,21,22
871.958984375 652.37890625 m 1,26,-1
 603.403320312 421.02734375 l 1,27,-1
 548.3359375 421.02734375 l 1,28,-1
 548.3359375 445.15234375 l 1,29,-1
 837.447265625 693.713867188 l 1,30,31
 855.645906703 674.585683141 855.645906703 674.585683141 871.958984375 652.37890625 c 1,26,-1
507.975585938 826.62890625 m 0,32,-1
 507.9765625 410.12890625 l 1,33,-1
 192.0546875 138.484375 l 1,34,35
 101.392578125 254.367486714 101.392578125 254.367486714 101.392578125 400.889648438 c 0,36,37
 101.392578125 513.382914972 101.392578125 513.382914972 155.505487974 609.497474712 c 128,-1,38
 209.618397823 705.612034452 209.618397823 705.612034452 303.018275047 763.506757059 c 128,-1,39
 396.41815227 821.401479666 396.41815227 821.401479666 507.975585938 826.62890625 c 0,32,-1
535.569335938 380.7265625 m 1,40,-1
 953.944335938 380.7265625 l 1,41,42
 948.706693953 269.148128685 948.706693953 269.148128685 890.810138976 175.734704697 c 128,-1,43
 832.913583999 82.3212807094 832.913583999 82.3212807094 736.795004253 28.1992145734 c 128,-1,44
 640.676424508 -25.9228515625 640.676424508 -25.9228515625 528.171875 -25.9228515625 c 0,45,46
 438.274683715 -25.9228515625 438.274683715 -25.9228515625 358.120103608 9.4963315923 c 128,-1,47
 277.965523501 44.9155147471 277.965523501 44.9155147471 218.338867188 107.93359375 c 1,48,-1
 535.569335938 380.7265625 l 1,40,-1
535.569335938 380.7265625 m 1024,49,-1
EndSplineSet
Validated: 2049
EndChar

StartChar: uniE609
Encoding: 58889 58889 13
Width: 1024
VWidth: 0
LayerCount: 2
Fore
SplineSet
896.62109375 424.241210938 m 0,0,1
 897.511730239 414.005202589 897.511730239 414.005202589 897.517578125 400.25 c 2,2,-1
 896.645507812 376.310546875 l 2,3,4
 896.048481952 369.396035097 896.048481952 369.396035097 890.971925123 362.817936383 c 128,-1,5
 885.895368295 356.239837669 885.895368295 356.239837669 879.360351562 353.916992188 c 2,6,-1
 809.908203125 329.209960938 l 2,7,8
 794.060832857 323.568197677 794.060832857 323.568197677 788.534179688 307.6875 c 2,9,-1
 777.569335938 281.106445312 l 2,10,11
 770.291759672 265.947344544 770.291759672 265.947344544 777.512695312 250.759765625 c 2,12,-1
 809.040039062 184.435546875 l 2,13,14
 816.266088063 169.244683481 816.266088063 169.244683481 805.03515625 156.72265625 c 2,15,-1
 771.120117188 122.797851562 l 2,16,17
 758.591481841 111.574282398 758.591481841 111.574282398 743.403320312 118.799804688 c 2,18,-1
 677.077148438 150.328125 l 2,19,20
 661.89483153 157.550866805 661.89483153 157.550866805 646.729492188 150.266601562 c 2,21,-1
 620.154296875 139.29296875 l 2,22,23
 604.274019389 133.778884916 604.274019389 133.778884916 598.6328125 117.931640625 c 2,24,-1
 573.92578125 48.478515625 l 2,25,26
 571.599436671 41.9418975437 571.599436671 41.9418975437 565.022728523 36.8572789444 c 128,-1,27
 558.446020376 31.772660345 558.446020376 31.772660345 551.536132812 31.169921875 c 0,28,29
 541.301099112 30.2744140625 541.301099112 30.2744140625 527.544921875 30.2744140625 c 2,30,-1
 503.604492188 31.146484375 l 2,31,32
 496.693260195 31.7427475273 496.693260195 31.7427475273 490.115533201 36.8195206672 c 128,-1,33
 483.537806207 41.8962938071 483.537806207 41.8962938071 481.211914062 48.431640625 c 2,34,-1
 456.50390625 117.883789062 l 2,35,36
 450.869820234 133.732764321 450.869820234 133.732764321 434.987304688 139.2578125 c 2,37,-1
 408.408203125 150.21875 l 2,38,39
 393.242392369 157.499830533 393.242392369 157.499830533 378.057617188 150.279296875 c 2,40,-1
 311.733398438 118.751953125 l 2,41,42
 296.536297238 111.530043331 296.536297238 111.530043331 284.024414062 122.756835938 c 2,43,-1
 250.091796875 156.670898438 l 2,44,45
 238.879405727 169.198947835 238.879405727 169.198947835 246.094726562 184.387695312 c 2,46,-1
 277.625 250.71484375 l 2,47,48
 284.844988651 265.907902279 284.844988651 265.907902279 277.565429688 281.061523438 c 2,49,-1
 266.592773438 307.638671875 l 2,50,51
 261.079458932 323.518508217 261.079458932 323.518508217 245.231445312 329.161132812 c 2,52,-1
 175.778320312 353.868164062 l 2,53,54
 169.24221722 356.191395686 169.24221722 356.191395686 164.157486932 362.768899905 c 128,-1,55
 159.072756644 369.346404124 159.072756644 369.346404124 158.470703125 376.256835938 c 0,56,57
 157.575195312 386.492844286 157.575195312 386.492844286 157.575195312 400.248046875 c 2,58,-1
 158.470703125 424.236328125 l 2,59,60
 159.072664396 431.145701111 159.072664396 431.145701111 164.156451571 437.723800417 c 128,-1,61
 169.240238745 444.301899723 169.240238745 444.301899723 175.774414062 446.629882812 c 2,62,-1
 245.18359375 471.328125 l 2,63,64
 261.025958032 476.968738171 261.025958032 476.968738171 266.556640625 492.850585938 c 2,65,-1
 277.517578125 519.431640625 l 2,66,67
 284.799422119 534.593714719 284.799422119 534.593714719 277.578125 549.778320312 c 2,68,-1
 246.05078125 616.106445312 l 2,69,70
 238.82601562 631.287508507 238.82601562 631.287508507 250.051757812 643.815429688 c 2,71,-1
 283.9765625 677.735351562 l 2,72,73
 296.496950689 688.96162902 296.496950689 688.96162902 311.686523438 681.744140625 c 2,74,-1
 378.057617188 650.2109375 l 2,75,76
 393.250222764 642.995559773 393.250222764 642.995559773 408.404296875 650.274414062 c 2,77,-1
 434.943359375 661.232421875 l 2,78,79
 450.815087674 666.759041793 450.815087674 666.759041793 456.463867188 682.609375 c 2,80,-1
 481.1640625 752.013671875 l 2,81,82
 483.490070178 758.550075694 483.490070178 758.550075694 490.067911212 763.635245952 c 128,-1,83
 496.645752246 768.720416211 496.645752246 768.720416211 503.556640625 769.326171875 c 0,84,85
 513.792641314 770.216796875 513.792641314 770.216796875 527.543945312 770.216796875 c 2,86,-1
 551.53515625 769.326171875 l 2,87,88
 558.446490874 768.720377097 558.446490874 768.720377097 565.024183602 763.635015594 c 128,-1,89
 571.60187633 758.549654091 571.60187633 758.549654091 573.924804688 752.013671875 c 2,90,-1
 598.627929688 682.609375 l 2,91,92
 604.266078358 666.768946605 604.266078358 666.768946605 620.149414062 661.235351562 c 2,93,-1
 646.731445312 650.274414062 l 2,94,95
 661.893065284 642.99193532 661.893065284 642.99193532 677.079101562 650.21484375 c 2,96,-1
 743.405273438 681.741210938 l 2,97,98
 758.590063927 688.966905301 758.590063927 688.966905301 771.11328125 677.740234375 c 2,99,-1
 805.03515625 643.8203125 l 2,100,101
 816.25733019 631.296579463 816.25733019 631.296579463 809.040039062 616.107421875 c 2,102,-1
 777.508789062 549.784179688 l 2,103,104
 770.291954766 534.588507179 770.291954766 534.588507179 777.569335938 519.4375 c 2,105,-1
 788.541992188 492.858398438 l 2,106,107
 794.0542557 476.978252298 794.0542557 476.978252298 809.904296875 471.333007812 c 2,108,-1
 879.3125 446.630859375 l 2,109,110
 885.84947751 444.302921844 885.84947751 444.302921844 890.933932949 437.726820399 c 128,-1,111
 896.018388387 431.150718954 896.018388387 431.150718954 896.62109375 424.241210938 c 0,0,1
527.54296875 232.080078125 m 128,-1,113
 597.197678401 232.080078125 597.197678401 232.080078125 646.455284513 281.337486661 c 128,-1,114
 695.712890625 330.594895198 695.712890625 330.594895198 695.712890625 400.249023438 c 128,-1,115
 695.712890625 469.901180927 695.712890625 469.901180927 646.455171253 519.158109995 c 128,-1,116
 597.19745188 568.415039062 597.19745188 568.415039062 527.54296875 568.415039062 c 128,-1,117
 457.890740771 568.415039062 457.890740771 568.415039062 408.631893823 519.157772735 c 128,-1,118
 359.373046875 469.900506408 359.373046875 469.900506408 359.373046875 400.249023438 c 128,-1,119
 359.373046875 330.595569726 359.373046875 330.595569726 408.631780561 281.337823925 c 128,-1,112
 457.890514247 232.080078125 457.890514247 232.080078125 527.54296875 232.080078125 c 128,-1,113
451.866210938 400.249023438 m 128,-1,121
 451.866210938 431.592612629 451.866210938 431.592612629 474.03125 453.760742188 c 128,-1,122
 496.201901897 475.926757812 496.201901897 475.926757812 527.54296875 475.926757812 c 128,-1,123
 558.885581027 475.926757812 558.885581027 475.926757812 581.0546875 453.760742188 c 128,-1,124
 603.219726562 431.591066734 603.219726562 431.591066734 603.219726562 400.249023438 c 128,-1,125
 603.219726562 368.908525173 603.219726562 368.908525173 581.0546875 346.737304688 c 128,-1,126
 558.889648438 324.572265625 558.889648438 324.572265625 527.54296875 324.572265625 c 128,-1,127
 496.197834203 324.572265625 496.197834203 324.572265625 474.03125 346.737304688 c 128,-1,120
 451.866210938 368.908525173 451.866210938 368.908525173 451.866210938 400.249023438 c 128,-1,121
451.866210938 400.249023438 m 1024,128,-1
EndSplineSet
Validated: 1
EndChar

StartChar: uniE60A
Encoding: 58890 58890 14
Width: 1024
VWidth: 0
LayerCount: 2
Fore
SplineSet
89.21484375 64.904296875 m 1,0,-1
 379.973632812 255.10546875 l 1,1,-1
 381.048828125 326.026367188 l 1,2,3
 357.683376736 327.937825521 357.683376736 327.937825521 339.711208767 350.505208333 c 128,-1,4
 321.739040799 373.072591146 321.739040799 373.072591146 315.449598524 394.684244792 c 2,5,-1
 309.16015625 416.295898438 l 1,6,-1
 309.16015625 664.530273438 l 1,7,8
 317.272226563 709.363085938 317.272226563 709.363085938 339.816854492 744.118041992 c 128,-1,9
 362.361482422 778.872998047 362.361482422 778.872998047 388.742489258 796.451293945 c 128,-1,10
 415.123496094 814.029589844 415.123496094 814.029589844 440.345635742 825.203198242 c 128,-1,11
 465.567775391 836.376806641 465.567775391 836.376806641 482.318067383 839.108325195 c 2,12,-1
 499.068359375 841.83984375 l 1,13,-1
 557.004882812 841.83984375 l 1,14,15
 607.174921875 833.716289062 607.174921875 833.716289062 645.19047168 812.465095703 c 128,-1,16
 683.206021484 791.213902344 683.206021484 791.213902344 701.625481445 766.687068359 c 128,-1,17
 720.044941406 742.160234375 720.044941406 742.160234375 731.29725293 718.793908203 c 128,-1,18
 742.549564453 695.427582031 742.549564453 695.427582031 744.72937207 679.978927734 c 2,19,-1
 746.909179688 664.530273438 l 1,20,-1
 746.909179688 416.296875 l 1,21,22
 740.901210937 390.118242187 740.901210937 390.118242187 731.066018555 371.52271875 c 128,-1,23
 721.230826172 352.927195313 721.230826172 352.927195313 711.485598633 345.086976563 c 128,-1,24
 701.740371094 337.246757812 701.740371094 337.246757812 692.853424805 333.14634375 c 128,-1,25
 683.966478516 329.045929688 683.966478516 329.045929688 678.422692383 329.149429688 c 2,26,-1
 672.87890625 329.252929688 l 1,27,-1
 672.87890625 254.032226562 l 1,28,-1
 965.783203125 62.7509765625 l 1,29,-1
 965.783203125 -40.412109375 l 1,30,-1
 89.21484375 -39.3359375 l 1,31,-1
 89.21484375 64.904296875 l 1,0,-1
89.21484375 64.904296875 m 1024,32,-1
EndSplineSet
Validated: 1
EndChar

StartChar: uniE60B
Encoding: 58891 58891 15
Width: 1024
VWidth: 0
LayerCount: 2
Fore
SplineSet
93.7177734375 561.969726562 m 1,0,-1
 93.7177734375 632.051757812 l 1,1,2
 98.1075498008 628.984860558 98.1075498008 628.984860558 106.017980834 623.89501382 c 128,-1,3
 113.928411868 618.805167082 113.928411868 618.805167082 138.342401978 605.794306493 c 128,-1,4
 162.756392088 592.783445904 162.756392088 592.783445904 187.093262084 582.83948257 c 128,-1,5
 211.430132081 572.895519236 211.430132081 572.895519236 245.293620728 564.738775243 c 128,-1,6
 279.157109375 556.58203125 279.157109375 556.58203125 309.345703125 556.58203125 c 0,7,8
 336.515 556.58203125 336.515 556.58203125 366.497958008 567.131182617 c 128,-1,9
 396.480916016 577.680333984 396.480916016 577.680333984 419.865487305 592.735918945 c 128,-1,10
 443.250058594 607.791503906 443.250058594 607.791503906 462.753301758 622.847088867 c 128,-1,11
 482.256544922 637.902673828 482.256544922 637.902673828 492.832862305 648.451825195 c 2,12,-1
 503.409179688 659.000976562 l 2,13,14
 507.799854566 662.287014442 507.799854566 662.287014442 515.774269907 667.74054868 c 128,-1,15
 523.748685247 673.194082918 523.748685247 673.194082918 548.745409781 687.134615382 c 128,-1,16
 573.742134314 701.075147846 573.742134314 701.075147846 599.091973032 711.72964243 c 128,-1,17
 624.441811749 722.384137014 624.441811749 722.384137014 660.525847281 731.123709132 c 128,-1,18
 696.609882813 739.86328125 696.609882813 739.86328125 729.81640625 739.86328125 c 0,19,20
 777.733072917 739.86328125 777.733072917 739.86328125 834.335123698 720.99609375 c 128,-1,21
 890.937174479 702.12890625 890.937174479 702.12890625 923.580891927 683.26171875 c 2,22,-1
 956.224609375 664.39453125 l 1,23,-1
 956.224609375 561.969726562 l 1,24,25
 951.39706113 565.036623817 951.39706113 565.036623817 942.791389477 570.126470555 c 128,-1,26
 934.185717824 575.216317293 934.185717824 575.216317293 908.204399585 588.227177882 c 128,-1,27
 882.223081346 601.238038471 882.223081346 601.238038471 856.972514477 611.182001805 c 128,-1,28
 831.721947608 621.125965139 831.721947608 621.125965139 797.804743335 629.282709132 c 128,-1,29
 763.887539062 637.439453125 763.887539062 637.439453125 735.209960938 637.439453125 c 0,30,31
 700.493515625 637.439453125 700.493515625 637.439453125 664.402375977 629.666071289 c 128,-1,32
 628.311236328 621.892689453 628.311236328 621.892689453 601.599983398 610.798639648 c 128,-1,33
 574.888730469 599.704589844 574.888730469 599.704589844 553.136969727 588.610540039 c 128,-1,34
 531.385208984 577.516490234 531.385208984 577.516490234 520.091530273 569.743108398 c 2,35,-1
 508.797851562 561.969726562 l 2,36,37
 504.627995829 558.902868993 504.627995829 558.902868993 497.145079557 553.813088116 c 128,-1,38
 489.662163284 548.72330724 489.662163284 548.72330724 466.760443881 535.712615009 c 128,-1,39
 443.858724477 522.701922778 443.858724477 522.701922778 421.245610807 512.758088116 c 128,-1,40
 398.632497136 502.814253455 398.632497136 502.814253455 367.573475131 494.657615009 c 128,-1,41
 336.514453125 486.500976562 336.514453125 486.500976562 309.345703125 486.500976562 c 0,42,43
 261.427300347 486.500976562 261.427300347 486.500976562 207.520317925 505.368164062 c 128,-1,44
 153.613335503 524.235351562 153.613335503 524.235351562 123.66555447 543.102539062 c 2,45,-1
 93.7177734375 561.969726562 l 1,0,-1
93.7177734375 561.969726562 m 1024,46,-1
93.7177734375 362.518554688 m 1,47,-1
 93.7177734375 432.594726562 l 1,48,49
 98.1075498008 429.527829308 98.1075498008 429.527829308 106.017980834 424.43798257 c 128,-1,50
 113.928411868 419.348135832 113.928411868 419.348135832 138.342401978 406.337275243 c 128,-1,51
 162.756392088 393.326414654 162.756392088 393.326414654 187.093262084 383.38245132 c 128,-1,52
 211.430132081 373.438487986 211.430132081 373.438487986 245.293620728 365.281743993 c 128,-1,53
 279.157109375 357.125 279.157109375 357.125 309.345703125 357.125 c 0,54,55
 336.515 357.125 336.515 357.125 367.052991211 367.119419922 c 128,-1,56
 397.590982422 377.113839844 397.590982422 377.113839844 421.767688477 391.377720703 c 128,-1,57
 445.944394531 405.641601562 445.944394531 405.641601562 466.239772461 419.905482422 c 128,-1,58
 486.535150391 434.169363281 486.535150391 434.169363281 497.666500977 444.163783203 c 2,59,-1
 508.797851562 454.158203125 l 2,60,61
 512.970013929 457.444590933 512.970013929 457.444590933 520.613050569 462.929943984 c 128,-1,62
 528.25608721 468.415297035 528.25608721 468.415297035 552.615449431 482.646696641 c 128,-1,63
 576.974811652 496.878096248 576.974811652 496.878096248 602.121503694 508.038615859 c 128,-1,64
 627.268195737 519.19913547 627.268195737 519.19913547 663.880855681 529.048415391 c 128,-1,65
 700.493515625 538.897695312 700.493515625 538.897695312 735.209960938 540.40625 c 0,66,67
 783.126193576 540.40625 783.126193576 540.40625 839.727756076 521.5390625 c 128,-1,68
 896.329318576 502.671875 896.329318576 502.671875 928.972764757 483.8046875 c 2,69,-1
 961.616210938 464.9375 l 1,70,-1
 961.616210938 362.518554688 l 1,71,72
 956.569561753 365.585412257 956.569561753 365.585412257 947.600268461 370.675193134 c 128,-1,73
 938.63097517 375.76497401 938.63097517 375.76497401 911.720153414 388.775666241 c 128,-1,74
 884.809331658 401.786358472 884.809331658 401.786358472 858.848362211 411.730193134 c 128,-1,75
 832.887392765 421.674027795 832.887392765 421.674027795 798.387465914 429.830666241 c 128,-1,76
 763.887539062 437.987304688 763.887539062 437.987304688 735.209960938 437.987304688 c 0,77,78
 700.493515625 437.987304688 700.493515625 437.987304688 664.402375977 430.214023438 c 128,-1,79
 628.311236328 422.440742188 628.311236328 422.440742188 601.599983398 411.346835938 c 128,-1,80
 574.888730469 400.252929688 574.888730469 400.252929688 553.136969727 389.159023437 c 128,-1,81
 531.385208984 378.065117187 531.385208984 378.065117187 520.091530273 370.291835937 c 2,82,-1
 508.797851562 362.518554688 l 2,83,84
 504.627995829 359.451657433 504.627995829 359.451657433 497.145079557 354.361810695 c 128,-1,85
 489.662163284 349.271963957 489.662163284 349.271963957 466.760443881 336.261103368 c 128,-1,86
 443.858724477 323.250242779 443.858724477 323.250242779 421.245610807 313.306279445 c 128,-1,87
 398.632497136 303.362316111 398.632497136 303.362316111 367.573475131 295.205572118 c 128,-1,88
 336.514453125 287.048828125 336.514453125 287.048828125 309.345703125 287.048828125 c 0,89,90
 261.427300347 287.048828125 261.427300347 287.048828125 207.520317925 305.916259766 c 128,-1,91
 153.613335503 324.783691406 153.613335503 324.783691406 123.66555447 343.651123047 c 2,92,-1
 93.7177734375 362.518554688 l 1,47,-1
93.7177734375 362.518554688 m 1024,93,-1
93.7177734375 136.107421875 m 1,94,-1
 93.7177734375 206.1875 l 1,95,96
 98.1075498008 203.12064243 98.1075498008 203.12064243 106.017980834 198.030861554 c 128,-1,97
 113.928411868 192.941080677 113.928411868 192.941080677 138.342401978 179.930388446 c 128,-1,98
 162.756392088 166.919696215 162.756392088 166.919696215 187.093262084 156.975861554 c 128,-1,99
 211.430132081 147.032026892 211.430132081 147.032026892 245.293620728 138.875388446 c 128,-1,100
 279.157109375 130.71875 279.157109375 130.71875 309.345703125 130.71875 c 0,101,102
 336.515 130.71875 336.515 130.71875 367.052991211 141.267901367 c 128,-1,103
 397.590982422 151.817052734 397.590982422 151.817052734 421.767688477 166.872637695 c 128,-1,104
 445.944394531 181.928222656 445.944394531 181.928222656 466.239772461 196.983807617 c 128,-1,105
 486.535150391 212.039392578 486.535150391 212.039392578 497.666500977 222.588543945 c 2,106,-1
 508.797851562 233.137695312 l 2,107,108
 513.188645652 236.423772877 513.188645652 236.423772877 521.16327016 241.877372977 c 128,-1,109
 529.137894667 247.330973076 529.137894667 247.330973076 554.13522984 261.271673898 c 128,-1,110
 579.132565013 275.21237472 579.132565013 275.21237472 604.482973285 285.866997977 c 128,-1,111
 629.833381556 296.521621234 629.833381556 296.521621234 665.91813609 305.261298898 c 128,-1,112
 702.002890625 314.000976562 702.002890625 314.000976562 735.209960938 314.000976562 c 0,113,114
 783.126193576 314.000976562 783.126193576 314.000976562 839.727756076 295.133544922 c 128,-1,115
 896.329318576 276.266113281 896.329318576 276.266113281 928.972764757 257.398681641 c 2,116,-1
 961.616210938 238.53125 l 1,117,-1
 961.616210938 136.107421875 l 1,118,119
 956.569561753 139.17423976 956.569561753 139.17423976 947.600268461 144.263954775 c 128,-1,120
 938.63097517 149.35366979 938.63097517 149.35366979 911.720153414 162.364193663 c 128,-1,121
 884.809331658 175.374717536 884.809331658 175.374717536 858.848362211 185.318423525 c 128,-1,122
 832.887392765 195.262129513 832.887392765 195.262129513 798.387465914 203.418662413 c 128,-1,123
 763.887539062 211.575195312 763.887539062 211.575195312 735.209960938 211.575195312 c 0,124,125
 700.493515625 211.575195312 700.493515625 211.575195312 664.402375977 203.802014648 c 128,-1,126
 628.311236328 196.028833984 628.311236328 196.028833984 601.599983398 184.935071289 c 128,-1,127
 574.888730469 173.841308594 574.888730469 173.841308594 553.136969727 162.747545898 c 128,-1,128
 531.385208984 151.653783203 531.385208984 151.653783203 520.091530273 143.880602539 c 2,129,-1
 508.797851562 136.107421875 l 2,130,131
 504.627995829 133.04052462 504.627995829 133.04052462 497.145079557 127.950677882 c 128,-1,132
 489.662163284 122.860831144 489.662163284 122.860831144 466.760443881 109.849970555 c 128,-1,133
 443.858724477 96.8391099664 443.858724477 96.8391099664 421.245610807 86.8951466322 c 128,-1,134
 398.632497136 76.9511832981 398.632497136 76.9511832981 367.573475131 68.7944393053 c 128,-1,135
 336.514453125 60.6376953125 336.514453125 60.6376953125 309.345703125 60.6376953125 c 0,136,137
 261.427300347 60.6376953125 261.427300347 60.6376953125 207.520317925 79.5051269531 c 128,-1,138
 153.613335503 98.3725585938 153.613335503 98.3725585938 123.66555447 117.239990234 c 2,139,-1
 93.7177734375 136.107421875 l 1,94,-1
93.7177734375 136.107421875 m 1024,140,-1
EndSplineSet
Validated: 1025
EndChar

StartChar: uniE610
Encoding: 58896 58896 16
Width: 1024
VWidth: 0
LayerCount: 2
Fore
SplineSet
564.0703125 371.053710938 m 1,0,-1
 955.111328125 570.873046875 l 1,1,-1
 955.111328125 172.604492188 l 1,2,-1
 564.0703125 -27.2119140625 l 1,3,-1
 564.0703125 371.053710938 l 1,0,-1
100.09375 172.603515625 m 1,4,-1
 100.09375 573.4375 l 1,5,-1
 491.135742188 373.662109375 l 1,6,-1
 491.135742188 -27.212890625 l 1,7,-1
 100.09375 172.603515625 l 1,4,-1
527.604492188 827.8046875 m 1,8,-1
 919.885742188 627.389648438 l 1,9,-1
 530.124023438 428.254882812 l 1,10,-1
 137.84375 628.669921875 l 1,11,-1
 527.604492188 827.8046875 l 1,8,-1
527.604492188 827.8046875 m 1024,12,-1
EndSplineSet
Validated: 1
EndChar

StartChar: uniE611
Encoding: 58897 58897 17
Width: 1024
VWidth: 0
LayerCount: 2
Fore
SplineSet
950.443359375 101.360351562 m 0,0,1
 951.077312335 100.445077234 951.077312335 100.445077234 961.799804688 77.83984375 c 1,2,-1
 961.799804688 70.5927734375 l 2,3,4
 961.603009824 70.1244806437 961.603009824 70.1244806437 961.205853425 69.1887400101 c 0,5,6
 960.4243524 67.3474445767 960.4243524 67.3474445767 960.046875 66.4228515625 c 0,7,8
 954.94719383 53.951171875 954.94719383 53.951171875 941.72265625 53.951171875 c 0,9,10
 850.278573495 53.951171875 850.278573495 53.951171875 682.630895544 53.9500868056 c 128,-1,11
 514.983217593 53.9490017361 514.983217593 53.9490017361 377.817672164 53.9490017361 c 128,-1,12
 240.652126736 53.9490017361 240.652126736 53.9490017361 118.728515625 53.951171875 c 0,13,14
 105.087120311 53.951171875 105.087120311 53.951171875 97.8574831607 65.9701857828 c 128,-1,15
 90.6278460098 77.9891996905 90.6278460098 77.9891996905 97.4736328125 89.59375 c 0,16,17
 99.935531459 93.7676783033 99.935531459 93.7676783033 111.286132812 105.469726562 c 0,18,19
 112.933252206 107.16398347 112.933252206 107.16398347 116.947265625 107.065429688 c 0,20,21
 220.713892382 104.467752774 220.713892382 104.467752774 352.875 100.973632812 c 0,22,23
 437.115606477 98.7525774155 437.115606477 98.7525774155 518.431640625 96.501953125 c 0,24,25
 531.950466429 96.1271998339 531.950466429 96.1271998339 560.092576536 95.2711344644 c 128,-1,26
 588.234686644 94.4150690949 588.234686644 94.4150690949 602.754882812 94.0185546875 c 0,27,28
 609.788155092 93.8324156487 609.788155092 93.8324156487 614.603515625 94.66796875 c 0,29,30
 625.063422344 96.4992141085 625.063422344 96.4992141085 619.251953125 105.026367188 c 0,31,32
 615.302313012 110.826537983 615.302313012 110.826537983 608.430664062 117.455078125 c 0,33,34
 600.696402151 124.916639129 600.696402151 124.916639129 592.049804688 131.724609375 c 0,35,36
 584.805139045 137.436897085 584.805139045 137.436897085 586.71875 145.360351562 c 0,37,38
 591.177557645 163.900307548 591.177557645 163.900307548 595.801757812 177.578125 c 0,39,40
 598.130068168 184.476466011 598.130068168 184.476466011 603.036135774 196.998323576 c 128,-1,41
 607.942203381 209.520181142 607.942203381 209.520181142 609.174804688 212.834960938 c 0,42,43
 615.983335804 231.165621636 615.983335804 231.165621636 615.15234375 245.641601562 c 0,44,45
 614.607484213 255.091509156 614.607484213 255.091509156 624.225585938 255.853515625 c 0,46,47
 637.675291794 256.920993975 637.675291794 256.920993975 642.60546875 271.721679688 c 0,48,49
 645.999959505 281.915376323 645.999959505 281.915376323 647.999023438 295.860351562 c 0,50,51
 649.417327491 305.73449781 649.417327491 305.73449781 651.784167298 324.760483835 c 128,-1,52
 654.151007104 343.786469859 654.151007104 343.786469859 655.411132812 352.766601562 c 0,53,54
 656.492885398 360.492718916 656.492885398 360.492718916 659.616210938 366.513671875 c 0,55,56
 662.155565495 371.419376465 662.155565495 371.419376465 667.526367188 374.7421875 c 128,-1,57
 672.899628766 378.060511033 672.899628766 378.060511033 669.680664062 382.66796875 c 0,58,59
 669.093266681 383.509486331 669.093266681 383.509486331 663.139648438 390.66015625 c 0,60,61
 648.751163651 407.927446293 648.751163651 407.927446293 647.9921875 408.973632812 c 0,62,63
 638.047994578 422.697815425 638.047994578 422.697815425 641.6328125 440.475585938 c 0,64,65
 645.168319634 458.03681222 645.168319634 458.03681222 662.760742188 460.899414062 c 0,66,67
 679.263493787 463.584817076 679.263493787 463.584817076 703.28125 455.264648438 c 0,68,69
 705.046833351 454.653652229 705.046833351 454.653652229 707.265625 451.458007812 c 0,70,71
 876.07915093 208.76354754 876.07915093 208.76354754 950.443359375 101.360351562 c 0,0,1
950.443359375 101.360351562 m 1024,72,-1
133.810546875 132.555664062 m 0,73,74
 123.064784116 133.979207125 123.064784116 133.979207125 116.219523787 142.659117879 c 128,-1,75
 109.374263458 151.339028633 109.374263458 151.339028633 110.783203125 161.99609375 c 0,76,77
 118.38061894 219.322049443 118.38061894 219.322049443 140.206054688 279.040039062 c 0,78,79
 160.644432071 334.959892434 160.644432071 334.959892434 204.55859375 411.342773438 c 0,80,81
 221.63676327 441.045694869 221.63676327 441.045694869 223.956054688 456.666992188 c 0,82,83
 226.175778017 471.564362626 226.175778017 471.564362626 226.333007812 482.805664062 c 0,84,85
 226.387992149 487.000183414 226.387992149 487.000183414 221.176757812 490.5390625 c 0,86,87
 214.11767047 495.327062877 214.11767047 495.327062877 203.6171875 500.314453125 c 0,88,89
 197.287904451 503.315792587 197.287904451 503.315792587 183.765931659 509.448817529 c 128,-1,90
 170.243958868 515.58184247 170.243958868 515.58184247 163.268554688 518.920898438 c 0,91,92
 157.580371948 521.644365192 157.580371948 521.644365192 152.194335938 526.413085938 c 0,93,94
 140.271384052 536.995088864 140.271384052 536.995088864 148.786132812 550.080078125 c 0,95,96
 153.833520412 557.822429726 153.833520412 557.822429726 160.356445312 563.15625 c 0,97,98
 204.357268347 599.160858604 204.357268347 599.160858604 257.491210938 613.11328125 c 0,99,100
 320.503393503 629.661216724 320.503393503 629.661216724 371.118164062 616.259765625 c 1,101,102
 357.505580729 635.084788673 357.505580729 635.084788673 354.536132812 658.110351562 c 0,103,104
 350.648919459 688.286476498 350.648919459 688.286476498 369.522107062 714.484680726 c 128,-1,105
 388.395294665 740.682884954 388.395294665 740.682884954 417.650390625 745.577148438 c 0,106,107
 448.577225545 750.750907777 448.577225545 750.750907777 474.137934623 733.158984828 c 128,-1,108
 499.698643701 715.56706188 499.698643701 715.56706188 506.224609375 684.618164062 c 0,109,110
 513.070052309 652.155646953 513.070052309 652.155646953 496.666092689 624.453438536 c 128,-1,111
 480.262133068 596.75123012 480.262133068 596.75123012 449.43359375 588.887695312 c 0,112,113
 448.344167773 588.609744469 448.344167773 588.609744469 427.141601562 585.690429688 c 0,114,115
 427.114604604 585.169575083 427.114604604 585.169575083 427.248046875 585.036132812 c 0,116,117
 451.291601661 561.476971987 451.291601661 561.476971987 455.546875 518.44140625 c 0,118,119
 458.409228249 489.506307871 458.409228249 489.506307871 459.1484375 485.014648438 c 0,120,121
 464.68812548 451.301651395 464.68812548 451.301651395 490.359375 421.375976562 c 0,122,123
 503.995331089 405.477743984 503.995331089 405.477743984 511.200195312 393.885742188 c 0,124,125
 532.739596608 359.247463348 532.739596608 359.247463348 575.16015625 357.274414062 c 0,126,127
 585.309496155 356.808508005 585.309496155 356.808508005 597.452148438 353.23046875 c 0,128,129
 614.787611188 348.129970595 614.787611188 348.129970595 610.499023438 331.099609375 c 0,130,131
 601.082408535 293.71899542 601.082408535 293.71899542 571.22265625 270.060546875 c 0,132,133
 557.62894569 259.294646738 557.62894569 259.294646738 548.61328125 273.34375 c 0,134,135
 548.600532589 273.363614659 548.600532589 273.363614659 535.0625 301.556640625 c 0,136,137
 532.680773598 306.522419218 532.680773598 306.522419218 530.974609375 307.66015625 c 0,138,139
 492.031330369 333.617558309 492.031330369 333.617558309 395.630859375 397.442382812 c 0,140,141
 395.559568984 397.490126263 395.559568984 397.490126263 393.374023438 398.657226562 c 1,142,143
 395.095670376 394.399205616 395.095670376 394.399205616 395.180664062 394.219726562 c 0,144,145
 414.398767714 354.083243987 414.398767714 354.083243987 416.583007812 349.459960938 c 0,146,147
 418.242971333 345.951123402 418.242971333 345.951123402 418.310546875 343.110351562 c 0,148,149
 420.603633722 239.6730947 420.603633722 239.6730947 421.24609375 196.688476562 c 0,150,151
 421.374030755 188.414960009 421.374030755 188.414960009 419.37890625 165.20703125 c 0,152,153
 417.691138744 145.430640938 417.691138744 145.430640938 398.883789062 137.768554688 c 0,154,155
 389.402696569 133.899843575 389.402696569 133.899843575 383.022460938 133.452148438 c 0,156,157
 350.097323444 131.151665352 350.097323444 131.151665352 337.1640625 131.872070312 c 0,158,159
 315.585656656 133.077137111 315.585656656 133.077137111 315.627929688 157.022460938 c 0,160,161
 315.643010611 166.178141551 315.643010611 166.178141551 315.691790286 223.750965948 c 128,-1,162
 315.740569961 281.323790344 315.740569961 281.323790344 315.853515625 311.759765625 c 0,163,164
 315.886882562 320.622659537 315.886882562 320.622659537 311.341796875 326.084960938 c 0,165,166
 301.307687388 338.125892322 301.307687388 338.125892322 300.70703125 338.698242188 c 0,167,168
 290.390079169 348.540426416 290.390079169 348.540426416 281.088867188 338.608398438 c 0,169,170
 266.262025334 322.753702405 266.262025334 322.753702405 258.73046875 311.532226562 c 0,171,172
 217.276042751 249.796691606 217.276042751 249.796691606 187.220703125 172.5625 c 0,173,174
 181.473476219 157.796897278 181.473476219 157.796897278 174.905273438 148.904296875 c 0,175,176
 160.223841574 129.05200141 160.223841574 129.05200141 133.810546875 132.555664062 c 0,73,74
393.272460938 454.827148438 m 0,177,178
 392.815359824 452.873887662 392.815359824 452.873887662 394.322265625 451.810546875 c 0,179,180
 401.80441207 446.532225519 401.80441207 446.532225519 427.993164062 428.389648438 c 1,181,182
 414.501903668 449.562458133 414.501903668 449.562458133 404.779296875 503.444335938 c 1,183,184
 396.126906919 467.154615435 396.126906919 467.154615435 393.272460938 454.827148438 c 0,177,178
225.79296875 546.396484375 m 1,185,186
 227.070463426 545.509750591 227.070463426 545.509750591 241.917734388 535.205046344 c 128,-1,187
 256.76500535 524.900342098 256.76500535 524.900342098 264.279296875 519.682617188 c 1,188,189
 272.879228337 533.124518564 272.879228337 533.124518564 289.918945312 559.75 c 1,190,191
 281.160606149 557.926272104 281.160606149 557.926272104 259.525701581 553.420822407 c 128,-1,192
 237.890797014 548.915372709 237.890797014 548.915372709 225.79296875 546.396484375 c 1,185,186
225.79296875 546.396484375 m 1024,193,-1
EndSplineSet
Validated: 1057
EndChar

StartChar: uniE612
Encoding: 58898 58898 18
Width: 1024
VWidth: 0
LayerCount: 2
Fore
SplineSet
646.122070312 10.904296875 m 1,0,-1
 150.368164062 10.904296875 l 2,1,2
 138.912109375 10.904296875 138.912109375 10.904296875 138.912109375 19.1494140625 c 2,3,-1
 138.912109375 41.140625 l 2,4,5
 138.912109375 49.3916015625 138.912109375 49.3916015625 150.368164062 49.3916015625 c 2,6,-1
 618.895507812 49.3916015625 l 1,7,-1
 646.122070312 10.904296875 l 1,0,-1
646.122070312 10.904296875 m 1024,8,-1
260.798828125 86.1416015625 m 1,9,10
 260.798828125 77.1962890625 260.798828125 77.1962890625 247.967773438 77.1962890625 c 2,11,-1
 151.75 77.1962890625 l 2,12,13
 138.911132812 77.1962890625 138.911132812 77.1962890625 138.911132812 86.1416015625 c 2,14,-1
 138.911132812 241.100585938 l 2,15,16
 138.911132812 250.043945312 138.911132812 250.043945312 151.75 250.043945312 c 2,17,-1
 247.967773438 250.043945312 l 2,18,19
 260.801757812 250.043945312 260.801757812 250.043945312 260.801757812 241.100585938 c 2,20,-1
 260.798828125 86.1416015625 l 1,9,10
260.798828125 86.1416015625 m 1024,21,-1
416.331054688 90.2294921875 m 2,22,23
 416.331054688 84.5353947374 416.331054688 84.5353947374 412.576299632 80.5059786187 c 128,-1,24
 408.821544577 76.4765625 408.821544577 76.4765625 403.514648438 76.4765625 c 2,25,-1
 307.275390625 76.4765625 l 2,26,27
 301.961984253 76.4765625 301.961984253 76.4765625 298.208042908 80.5055149685 c 128,-1,28
 294.454101562 84.5344674371 294.454101562 84.5344674371 294.454101562 90.2294921875 c 2,29,-1
 294.454101562 328.602539062 l 2,30,31
 294.454101562 334.298091567 294.454101562 334.298091567 298.209145213 338.321409065 c 128,-1,32
 301.964188864 342.344726562 301.964188864 342.344726562 307.275390625 342.344726562 c 2,33,-1
 403.514648438 342.344726562 l 2,34,35
 408.823129072 342.344726562 408.823129072 342.344726562 412.57709188 338.321297105 c 128,-1,36
 416.331054688 334.297867648 416.331054688 334.297867648 416.331054688 328.602539062 c 2,37,-1
 416.331054688 90.2294921875 l 2,22,23
416.331054688 90.2294921875 m 1024,38,-1
580.981445312 88.9375 m 2,39,40
 580.981445312 76.4755859375 580.981445312 76.4755859375 568.1640625 76.4755859375 c 2,41,-1
 471.924804688 76.4755859375 l 2,42,43
 459.103515625 76.4755859375 459.103515625 76.4755859375 459.103515625 88.9375 c 2,44,-1
 459.103515625 411.141601562 l 2,45,46
 459.103515625 423.6015625 459.103515625 423.6015625 471.924804688 423.6015625 c 2,47,-1
 568.1640625 423.6015625 l 2,48,49
 580.981445312 423.6015625 580.981445312 423.6015625 580.981445312 411.141601562 c 2,50,-1
 580.981445312 88.9375 l 2,39,40
580.981445312 88.9375 m 1024,51,-1
622.579101562 191.943359375 m 1,52,-1
 622.579101562 604.432617188 l 2,53,54
 622.579101562 615.038531229 622.579101562 615.038531229 625.61054707 617.587136708 c 128,-1,55
 628.641992578 620.135742188 628.641992578 620.135742188 635.418945312 620.135742188 c 2,56,-1
 731.639648438 620.135742188 l 2,57,58
 736.243736673 620.135742188 736.243736673 620.135742188 738.360982996 619.613315942 c 128,-1,59
 740.47822932 619.090889697 740.47822932 619.090889697 742.473001379 615.473923641 c 128,-1,60
 744.467773438 611.856957585 744.467773438 611.856957585 744.467773438 604.432617188 c 0,61,62
 745.481407016 294.007226563 745.481407016 294.007226563 744.467773438 281.779296875 c 1,63,64
 715.405742187 281.398945313 715.405742187 281.398945313 692.160533203 272.005928711 c 128,-1,65
 668.915324219 262.612912109 668.915324219 262.612912109 656.498716797 249.479024414 c 128,-1,66
 644.082109375 236.345136719 644.082109375 236.345136719 635.817220703 223.265584961 c 128,-1,67
 627.552332031 210.186033203 627.552332031 210.186033203 625.065716797 201.064696289 c 2,68,-1
 622.579101562 191.943359375 l 1,52,-1
622.579101562 191.943359375 m 1024,69,-1
689.22265625 733.372070312 m 1,70,-1
 619.380859375 733.37109375 l 1,71,72
 608.143470293 669.530912423 608.143470293 669.530912423 584.741714289 616.608075931 c 128,-1,73
 561.339958285 563.685239439 561.339958285 563.685239439 531.259081428 528.172740041 c 128,-1,74
 501.178204572 492.660240644 501.178204572 492.660240644 465.418026018 464.99548591 c 128,-1,75
 429.657847463 437.330731176 429.657847463 437.330731176 392.823848018 422.017133046 c 128,-1,76
 355.989848573 406.703534915 355.989848573 406.703534915 320.020263672 396.300719964 c 128,-1,77
 284.050678771 385.897905012 284.050678771 385.897905012 252.612572941 382.787066173 c 128,-1,78
 221.17446711 379.676227334 221.17446711 379.676227334 197.144492067 378.53921019 c 128,-1,79
 173.114517024 377.402193046 173.114517024 377.402193046 159.221321012 378.497971523 c 2,80,-1
 145.328125 379.59375 l 1,81,82
 216.758795021 386.977950134 216.758795021 386.977950134 278.18872726 406.924331705 c 128,-1,83
 339.618659499 426.870713276 339.618659499 426.870713276 382.17823247 452.323834749 c 128,-1,84
 424.737805442 477.776956223 424.737805442 477.776956223 459.852897951 511.087278133 c 128,-1,85
 494.967990459 544.397600044 494.967990459 544.397600044 516.024453771 574.358114086 c 128,-1,86
 537.080917083 604.318628128 537.080917083 604.318628128 553.098792402 637.708132725 c 128,-1,87
 569.116667721 671.097637323 569.116667721 671.097637323 575.887643913 692.28078628 c 128,-1,88
 582.658620106 713.463935237 582.658620106 713.463935237 586.947265625 733.37109375 c 1,89,-1
 516.620117188 733.37109375 l 1,90,-1
 608.787109375 833.056640625 l 1,91,-1
 689.22265625 733.372070312 l 1,70,-1
689.22265625 733.372070312 m 1024,92,-1
766.413085938 268.854492188 m 128,-1,94
 828.807000503 268.854492188 828.807000503 268.854492188 872.927914314 224.731997789 c 128,-1,95
 917.048828125 180.60950339 917.048828125 180.60950339 917.048828125 118.211914062 c 128,-1,96
 917.048828125 55.8137609494 917.048828125 55.8137609494 872.92799863 11.6915484434 c 128,-1,97
 828.807169136 -32.4306640625 828.807169136 -32.4306640625 766.413085938 -32.4306640625 c 128,-1,98
 704.015061217 -32.4306640625 704.015061217 -32.4306640625 659.893272796 11.6913219306 c 128,-1,99
 615.771484375 55.8133079238 615.771484375 55.8133079238 615.771484375 118.211914062 c 128,-1,100
 615.771484375 180.609956418 615.771484375 180.609956418 659.893357115 224.732224303 c 128,-1,93
 704.015229855 268.854492188 704.015229855 268.854492188 766.413085938 268.854492188 c 128,-1,94
817.166992188 122.392578125 m 1,101,-1
 790.140625 122.391601562 l 1,102,-1
 828.9765625 192.288085938 l 1,103,-1
 792.638671875 192.288085938 l 1,104,-1
 776.51171875 153.157226562 l 2,105,106
 774.211320364 147.437081082 774.211320364 147.437081082 770.604983362 137.107426357 c 128,-1,107
 766.99864636 126.777771632 766.99864636 126.777771632 766.747070312 126.0859375 c 2,108,-1
 766.293945312 126.0859375 l 1,109,110
 758.753824714 148.092510525 758.753824714 148.092510525 756.755859375 152.911132812 c 2,111,-1
 740.858398438 192.283203125 l 1,112,-1
 703.836914062 192.283203125 l 1,113,-1
 740.858398438 122.392578125 l 1,114,-1
 713.6015625 122.392578125 l 1,115,-1
 713.6015625 104.918945312 l 1,116,-1
 749.03125 104.918945312 l 1,117,-1
 749.03125 89.1708984375 l 1,118,-1
 713.6015625 89.1708984375 l 1,119,-1
 713.6015625 71.701171875 l 1,120,-1
 749.03125 71.701171875 l 1,121,-1
 749.03125 32.3232421875 l 1,122,-1
 781.513671875 32.3232421875 l 1,123,-1
 781.513671875 71.701171875 l 1,124,-1
 817.166992188 71.701171875 l 1,125,-1
 817.166992188 89.1708984375 l 1,126,-1
 781.513671875 89.1708984375 l 1,127,-1
 781.513671875 104.918945312 l 1,128,-1
 817.166992188 104.918945312 l 1,129,-1
 817.166992188 122.392578125 l 1,101,-1
817.166992188 122.392578125 m 1024,130,-1
EndSplineSet
Validated: 3105
EndChar

StartChar: uniE613
Encoding: 58899 58899 19
Width: 1024
VWidth: 0
LayerCount: 2
Fore
SplineSet
94.3662109375 833.65234375 m 1,0,-1
 960.64453125 833.65234375 l 1,1,-1
 960.64453125 -32.4189453125 l 1,2,-1
 94.3662109375 -32.4189453125 l 1,3,-1
 94.3662109375 833.65234375 l 1,0,-1
906.498046875 21.7138671875 m 1,4,-1
 906.498046875 779.5234375 l 1,5,-1
 148.506835938 779.5234375 l 1,6,-1
 148.506835938 21.7138671875 l 1,7,-1
 906.498046875 21.7138671875 l 1,4,-1
906.498046875 21.7138671875 m 1024,8,-1
326.135742188 651.166992188 m 1,9,-1
 326.135742188 456.763671875 l 2,10,11
 326.135742188 213.599609375 326.135742188 213.599609375 244.444335938 107.2109375 c 1,12,13
 225.423373904 129.402304276 225.423373904 129.402304276 206.44921875 148.372070312 c 1,14,15
 275.471191406 233.223144531 275.471191406 233.223144531 275.473632812 452.330078125 c 2,16,-1
 275.473632812 695.493164062 l 1,17,18
 582.588378906 696.758789062 582.588378906 696.758789062 809.932617188 722.08984375 c 1,19,-1
 827.662109375 672.696289062 l 1,20,21
 589.5546875 655.598632812 589.5546875 655.598632812 326.135742188 651.166992188 c 1,9,-1
326.135742188 651.166992188 m 1024,22,-1
600.328125 265.522460938 m 1,23,24
 716.282772729 214.829677967 716.282772729 214.829677967 837.791992188 154.703125 c 1,25,-1
 810.561523438 107.845703125 l 1,26,27
 688.983886719 174.969238281 688.983886719 174.969238281 584.495117188 223.09375 c 1,28,29
 535.104980469 138.876953125 535.104980469 138.876953125 339.430664062 105.944335938 c 1,30,31
 328.64166172 126.245622446 328.64166172 126.245622446 312.200195312 152.171875 c 1,32,33
 509.133789062 182.5703125 509.133789062 182.5703125 542.701171875 249.690429688 c 0,34,35
 560.428710938 278.821777344 560.428710938 278.821777344 559.166015625 384.57421875 c 1,36,-1
 608.560546875 384.57421875 l 1,37,38
 609.819167628 302.227600652 609.819167628 302.227600652 600.328125 265.522460938 c 1,23,24
600.328125 265.522460938 m 1024,39,-1
823.86328125 535.28515625 m 1,40,-1
 608.560546875 535.286132812 l 1,41,-1
 608.560546875 461.827148438 l 1,42,-1
 778.904296875 461.827148438 l 1,43,-1
 778.904296875 238.92578125 l 1,44,-1
 729.510742188 238.92578125 l 1,45,-1
 729.510742188 417.500976562 l 1,46,-1
 438.8515625 417.500976562 l 1,47,-1
 438.8515625 238.92578125 l 1,48,-1
 389.45703125 238.92578125 l 1,49,-1
 389.45703125 461.826171875 l 1,50,-1
 557.899414062 461.826171875 l 1,51,-1
 557.899414062 535.28515625 l 1,52,-1
 350.196289062 535.28515625 l 1,53,-1
 350.196289062 579.611328125 l 1,54,-1
 557.899414062 579.611328125 l 1,55,-1
 557.899414062 648.635742188 l 1,56,-1
 608.560546875 648.635742188 l 1,57,-1
 608.560546875 579.611328125 l 1,58,-1
 823.86328125 579.611328125 l 1,59,-1
 823.86328125 535.28515625 l 1,40,-1
823.86328125 535.28515625 m 1024,60,-1
EndSplineSet
Validated: 2081
EndChar

StartChar: uniE614
Encoding: 58900 58900 20
Width: 1024
VWidth: 0
LayerCount: 2
Fore
SplineSet
313.333007812 444.2421875 m 1,0,-1
 313.33203125 466.104492188 l 2,1,2
 313.33203125 475.17525362 313.33203125 475.17525362 319.592967641 481.582743998 c 128,-1,3
 325.853904033 487.990234375 325.853904033 487.990234375 334.727539062 487.990234375 c 2,4,-1
 713.3671875 487.990234375 l 2,5,6
 722.264658695 487.990234375 722.264658695 487.990234375 728.532231691 481.584035832 c 128,-1,7
 734.799804688 475.177837288 734.799804688 475.177837288 734.799804688 466.104492188 c 2,8,-1
 734.799804688 444.2421875 l 2,9,10
 734.799804688 435.18078591 734.799804688 435.18078591 728.530918512 428.770080455 c 128,-1,11
 722.262032336 422.359375 722.262032336 422.359375 713.3671875 422.359375 c 2,12,-1
 334.728515625 422.359375 l 2,13,14
 325.858066799 422.359375 325.858066799 422.359375 319.595537306 428.771459205 c 128,-1,15
 313.333007812 435.183543411 313.333007812 435.183543411 313.333007812 444.2421875 c 1,0,-1
313.333007812 444.2421875 m 1024,16,-1
334.727539062 582.817382812 m 2,17,18
 325.853438643 582.817382812 325.853438643 582.817382812 319.593101215 589.215965491 c 128,-1,19
 313.332763787 595.61454817 313.332763787 595.61454817 313.33203125 604.6796875 c 2,20,-1
 313.33203125 626.54296875 l 2,21,22
 313.33203125 635.611662131 313.33203125 635.611662131 319.593388183 642.021163097 c 128,-1,23
 325.854745116 648.430664062 325.854745116 648.430664062 334.727539062 648.430664062 c 2,24,-1
 713.3671875 648.430664062 l 2,25,26
 722.263816551 648.430664062 722.263816551 648.430664062 728.531810619 642.022455249 c 128,-1,27
 734.799804688 635.614246436 734.799804688 635.614246436 734.799804688 626.54296875 c 2,28,-1
 734.799804688 604.6796875 l 2,29,30
 734.799804688 595.611232032 734.799804688 595.611232032 728.533195846 589.214307422 c 128,-1,31
 722.266587004 582.817382812 722.266587004 582.817382812 713.3671875 582.817382812 c 2,32,-1
 334.727539062 582.817382812 l 2,17,18
334.727539062 582.817382812 m 1024,33,-1
313.333007812 283.801757812 m 1,34,-1
 313.33203125 305.688476562 l 2,35,36
 313.33203125 314.75670325 313.33203125 314.75670325 319.593160688 321.163996156 c 128,-1,37
 325.854290126 327.571289062 325.854290126 327.571289062 334.727539062 327.571289062 c 2,38,-1
 644.755859375 327.571289062 l 2,39,40
 653.635996624 327.571289062 653.635996624 327.571289062 659.932744406 321.160108859 c 128,-1,41
 666.229492188 314.748928655 666.229492188 314.748928655 666.229492188 305.688476562 c 2,42,-1
 666.229492188 283.801757812 l 2,43,44
 666.229492188 274.756325595 666.229492188 274.756325595 659.931488375 268.345447954 c 128,-1,45
 653.633484562 261.934570312 653.633484562 261.934570312 644.755859375 261.934570312 c 2,46,-1
 334.728515625 261.934570312 l 2,47,48
 325.857766055 261.934570312 325.857766055 261.934570312 319.595386934 268.341561615 c 128,-1,49
 313.333007812 274.748552917 313.333007812 274.748552917 313.333007812 283.801757812 c 1,34,-1
313.333007812 283.801757812 m 1024,50,-1
870.53515625 830.755859375 m 2,51,52
 882.376723609 830.755859375 882.376723609 830.755859375 890.756721179 822.208491074 c 128,-1,53
 899.13671875 813.661122772 899.13671875 813.661122772 899.13671875 801.583984375 c 2,54,-1
 899.13671875 142.661132812 l 1,55,-1
 731.823242188 -29.3603515625 l 1,56,-1
 651.334960938 -29.3603515625 l 1,57,-1
 651.334960938 200.009765625 l 2,58,59
 651.334960938 212.733485259 651.334960938 212.733485259 653.691279777 215.922406692 c 128,-1,60
 656.047598616 219.111328125 656.047598616 219.111328125 667.404296875 219.111328125 c 2,61,-1
 827.6640625 219.111328125 l 1,62,-1
 827.6640625 733.341796875 l 2,63,64
 827.6640625 743.481350191 827.6640625 743.481350191 820.665338247 750.648389939 c 128,-1,65
 813.666613995 757.815429688 813.666613995 757.815429688 803.762695312 757.815429688 c 2,66,-1
 251.500976562 757.815429688 l 2,67,68
 241.576668891 757.815429688 241.576668891 757.815429688 234.587650852 750.651454171 c 128,-1,69
 227.598632812 743.487478655 227.598632812 743.487478655 227.598632812 733.341796875 c 2,70,-1
 227.598632812 67.98046875 l 2,71,72
 227.598632812 57.8454015862 227.598632812 57.8454015862 234.589258398 50.6756304806 c 128,-1,73
 241.579883983 43.505859375 241.579883983 43.505859375 251.500976562 43.505859375 c 2,74,-1
 546.127929688 43.505859375 l 1,75,-1
 546.127929688 -29.359375 l 1,76,-1
 184.733398438 -29.359375 l 2,77,78
 172.886811267 -29.359375 172.886811267 -29.359375 164.506882196 -20.8205922057 c 128,-1,79
 156.126953125 -12.2818094115 156.126953125 -12.2818094115 156.126953125 -0.2060546875 c 2,80,-1
 156.126953125 801.583984375 l 2,81,82
 156.126953125 813.661507926 156.126953125 813.661507926 164.507749889 822.20868365 c 128,-1,83
 172.888546652 830.755859375 172.888546652 830.755859375 184.733398438 830.755859375 c 2,84,-1
 870.53515625 830.755859375 l 2,51,52
706.352539062 56.654296875 m 1,85,-1
 803.4921875 146.26953125 l 1,86,-1
 734.173828125 146.26953125 l 2,87,88
 724.493127204 146.26953125 724.493127204 146.26953125 715.422833133 135.344272625 c 128,-1,89
 706.352539062 124.419014001 706.352539062 124.419014001 706.352539062 113.974609375 c 2,90,-1
 706.352539062 56.654296875 l 1,85,-1
706.352539062 56.654296875 m 1024,91,-1
EndSplineSet
Validated: 2049
EndChar

StartChar: uniE615
Encoding: 58901 58901 21
Width: 1024
VWidth: 0
LayerCount: 2
Fore
SplineSet
213.356445312 543.788085938 m 1,0,-1
 261.795898438 543.788085938 l 1,1,-1
 261.795898438 507.135742188 l 1,2,-1
 213.356445312 507.135742188 l 1,3,-1
 213.356445312 543.788085938 l 1,0,-1
213.356445312 543.788085938 m 1024,4,-1
213.356445312 290.225585938 m 1,5,-1
 262.498046875 290.225585938 l 1,6,-1
 262.498046875 252.630859375 l 1,7,-1
 213.356445312 252.630859375 l 1,8,-1
 213.356445312 290.225585938 l 1,5,-1
213.356445312 290.225585938 m 1024,9,-1
212.65234375 375.369140625 m 1,10,-1
 261.795898438 375.369140625 l 1,11,-1
 261.795898438 337.79296875 l 1,12,-1
 212.65234375 337.79296875 l 1,13,-1
 212.65234375 375.369140625 l 1,10,-1
212.65234375 375.369140625 m 1024,14,-1
219.370117188 710.880859375 m 1,15,-1
 836.009765625 710.880859375 l 1,16,-1
 836.009765625 681.797851562 l 1,17,-1
 219.370117188 681.797851562 l 1,18,-1
 219.370117188 710.880859375 l 1,15,-1
219.370117188 710.880859375 m 1024,19,-1
410.947265625 82.9775390625 m 1,20,-1
 410.947265625 82.9775390625 l 1,21,22
 842.075087961 459.531173423 842.075087961 459.531173423 843.904296875 461.12890625 c 2,23,-1
 843.282226562 82.9775390625 l 1,24,-1
 410.947265625 82.9775390625 l 1,20,-1
789.8203125 91.1015625 m 1,25,-1
 789.819335938 91.1015625 l 1,26,-1
 789.819335938 107.842773438 l 2,27,28
 789.819335938 117.556640625 789.819335938 117.556640625 780.58203125 117.556640625 c 128,-1,29
 771.349609375 117.556640625 771.349609375 117.556640625 771.349609375 107.842773438 c 2,30,-1
 771.349609375 91.1015625 l 1,31,-1
 789.8203125 91.1015625 l 1,25,-1
702.608398438 91.1015625 m 1,32,-1
 702.607421875 91.1015625 l 1,33,-1
 702.607421875 107.842773438 l 2,34,35
 702.607421875 117.556640625 702.607421875 117.556640625 693.364257812 117.556640625 c 128,-1,36
 684.1328125 117.556640625 684.1328125 117.556640625 684.1328125 107.842773438 c 2,37,-1
 684.1328125 91.1015625 l 1,38,-1
 702.608398438 91.1015625 l 1,32,-1
615.3828125 91.1015625 m 1,39,-1
 615.381835938 91.1015625 l 1,40,-1
 615.381835938 107.842773438 l 2,41,42
 615.381835938 117.556640625 615.381835938 117.556640625 606.14453125 117.556640625 c 128,-1,43
 596.911132812 117.556640625 596.911132812 117.556640625 596.911132812 107.842773438 c 2,44,-1
 596.911132812 91.1015625 l 1,45,-1
 615.3828125 91.1015625 l 1,39,-1
528.16796875 91.1015625 m 1,46,-1
 528.166992188 91.1015625 l 1,47,-1
 528.166992188 107.842773438 l 2,48,49
 528.166992188 117.556640625 528.166992188 117.556640625 518.924804688 117.556640625 c 128,-1,50
 509.693359375 117.556640625 509.693359375 117.556640625 509.693359375 107.842773438 c 2,51,-1
 509.693359375 91.1015625 l 1,52,-1
 528.16796875 91.1015625 l 1,46,-1
641.893554688 211.760742188 m 1,53,-1
 554.787109375 135.68359375 l 1,54,-1
 797.842773438 135.68359375 l 1,55,-1
 798.196289062 348.259765625 l 1,56,-1
 756.846679688 312.162109375 l 1,57,-1
 641.893554688 211.760742188 l 1,53,-1
641.893554688 211.760742188 m 1024,58,-1
104.728515625 790.48046875 m 1,59,-1
 104.728515625 790.48046875 l 1,60,61
 104.728515625 803.272299939 104.728515625 803.272299939 113.684025843 814.830623195 c 128,-1,62
 122.639536061 826.388946452 122.639536061 826.388946452 134.630859375 826.389648438 c 2,63,-1
 925.020507812 826.389648438 l 2,64,65
 931.541883364 826.389648438 931.541883364 826.389648438 941.096625276 816.175283641 c 128,-1,66
 950.651367188 805.960918844 950.651367188 805.960918844 950.651367188 797.953125 c 2,67,-1
 950.651367188 3.3935546875 l 2,68,69
 950.651367188 -8.03919890706 950.651367188 -8.03919890706 940.503778365 -16.5396189848 c 128,-1,70
 930.356189543 -25.0400390625 930.356189543 -25.0400390625 917.90234375 -25.0400390625 c 2,71,-1
 138.8984375 -25.0400390625 l 2,72,73
 125.737920743 -25.0400390625 125.737920743 -25.0400390625 115.233218184 -15.8077190758 c 128,-1,74
 104.728515625 -6.57539908901 104.728515625 -6.57539908901 104.728515625 6.375 c 2,75,-1
 104.728515625 790.48046875 l 1,59,-1
879.841796875 35.8974609375 m 1,76,-1
 879.836914062 35.8974609375 l 1,77,78
 894.073242188 45.9139726136 894.073242188 45.9139726136 894.073242188 62.8427734375 c 2,79,-1
 894.073242188 735.310546875 l 2,80,81
 894.073242188 743.448605312 894.073242188 743.448605312 885.736475996 753.597349531 c 128,-1,82
 877.399709804 763.74609375 877.399709804 763.74609375 869.862304688 763.74609375 c 2,83,-1
 185.501953125 763.74609375 l 2,84,85
 179.28668271 763.74609375 179.28668271 763.74609375 170.997833542 753.475133189 c 128,-1,86
 162.708984375 743.204172627 162.708984375 743.204172627 162.708984375 735.310546875 c 2,87,-1
 162.708984375 53.861328125 l 2,88,89
 162.708984375 49.5294725618 162.708984375 49.5294725618 170.794764063 41.9683495622 c 128,-1,90
 178.88054375 34.4072265625 178.88054375 34.4072265625 182.646484375 34.4072265625 c 2,91,-1
 857.047851562 34.4072265625 l 1,92,-1
 879.841796875 35.8974609375 l 1,76,-1
879.841796875 35.8974609375 m 1024,93,-1
628.649414062 459.801757812 m 1,94,-1
 628.6484375 459.801757812 l 1,95,-1
 628.6484375 322.793945312 l 1,96,-1
 498.280273438 322.793945312 l 1,97,-1
 498.280273438 459.801757812 l 1,98,-1
 628.649414062 459.801757812 l 1,94,-1
603.208984375 349.528320312 m 1,99,-1
 603.208984375 433.065429688 l 1,100,-1
 523.715820312 433.065429688 l 1,101,-1
 523.715820312 349.528320312 l 1,102,-1
 603.208984375 349.528320312 l 1,99,-1
603.208984375 349.528320312 m 1024,103,-1
380.690429688 465.553710938 m 1,104,-1
 380.690429688 465.553710938 l 1,105,106
 409.916242936 465.553710938 409.916242936 465.553710938 430.633414437 443.778225794 c 128,-1,107
 451.350585938 422.002740651 451.350585938 422.002740651 451.350585938 391.287109375 c 128,-1,108
 451.350585938 360.586870158 451.350585938 360.586870158 430.632374321 338.81345461 c 128,-1,109
 409.914162704 317.040039062 409.914162704 317.040039062 380.690429688 317.040039062 c 128,-1,110
 351.47177179 317.040039062 351.47177179 317.040039062 330.751022614 338.814251631 c 128,-1,111
 310.030273438 360.5884642 310.030273438 360.5884642 310.030273438 391.287109375 c 128,-1,112
 310.030273438 422.001146378 310.030273438 422.001146378 330.749982409 443.777428658 c 128,-1,113
 351.46969138 465.553710938 351.46969138 465.553710938 380.690429688 465.553710938 c 1,104,-1
380.690429688 343.7734375 m 128,-1,115
 399.391423871 343.7734375 399.391423871 343.7734375 412.651400275 357.706296428 c 128,-1,116
 425.911376679 371.639155355 425.911376679 371.639155355 425.915039062 391.287109375 c 128,-1,117
 425.915039062 410.949848326 425.915039062 410.949848326 412.654560329 424.886545257 c 128,-1,118
 399.394081595 438.823242188 399.394081595 438.823242188 380.690429688 438.823242188 c 128,-1,119
 361.987579599 438.823242188 361.987579599 438.823242188 348.726699956 424.885135539 c 128,-1,120
 335.465820312 410.94702889 335.465820312 410.94702889 335.465820312 391.287109375 c 128,-1,121
 335.465820312 371.640041079 335.465820312 371.640041079 348.727206592 357.706739289 c 128,-1,114
 361.988592872 343.7734375 361.988592872 343.7734375 380.690429688 343.7734375 c 128,-1,115
380.690429688 343.7734375 m 1024,122,-1
563.461914062 498.931640625 m 1,123,-1
 563.461914062 498.931640625 l 1,124,125
 534.240526326 498.931640625 534.240526326 498.931640625 513.52150829 520.708818465 c 128,-1,126
 492.802490254 542.485996305 492.802490254 542.485996305 492.801757812 573.197265625 c 128,-1,127
 492.801757812 603.89991836 492.801757812 603.89991836 513.521224235 625.67261543 c 128,-1,128
 534.240690657 647.4453125 534.240690657 647.4453125 563.461914062 647.4453125 c 128,-1,129
 592.682246384 647.4453125 592.682246384 647.4453125 613.405088036 625.671581523 c 128,-1,130
 634.127929688 603.897850545 634.127929688 603.897850545 634.127929688 573.197265625 c 128,-1,131
 634.127929688 542.487467917 634.127929688 542.487467917 613.404850993 520.709554271 c 128,-1,132
 592.681772298 498.931640625 592.681772298 498.931640625 563.461914062 498.931640625 c 1,123,-1
563.461914062 620.713867188 m 128,-1,134
 544.760807041 620.713867188 544.760807041 620.713867188 531.501497271 606.779484098 c 128,-1,135
 518.2421875 592.845101009 518.2421875 592.845101009 518.2421875 573.197265625 c 128,-1,136
 518.2421875 553.5379792 518.2421875 553.5379792 531.500672988 539.602485694 c 128,-1,137
 544.759158477 525.666992188 544.759158477 525.666992188 563.461914062 525.666992188 c 128,-1,138
 582.165791244 525.666992188 582.165791244 525.666992188 595.426645622 539.602690152 c 128,-1,139
 608.6875 553.538388116 608.6875 553.538388116 608.6875 573.197265625 c 128,-1,140
 608.6875 592.84469215 608.6875 592.84469215 595.425821205 606.779279669 c 128,-1,133
 582.164142409 620.713867188 582.164142409 620.713867188 563.461914062 620.713867188 c 128,-1,134
563.461914062 620.713867188 m 1024,141,-1
380.690429688 647.4453125 m 1,142,-1
 380.690429688 647.4453125 l 1,143,144
 409.915036456 647.4453125 409.915036456 647.4453125 430.632811197 625.673146773 c 128,-1,145
 451.350585938 603.900981046 451.350585938 603.900981046 451.350585938 573.197265625 c 128,-1,146
 451.350585938 542.485110553 451.350585938 542.485110553 430.632977618 520.708375589 c 128,-1,147
 409.915369299 498.931640625 409.915369299 498.931640625 380.690429688 498.931640625 c 128,-1,148
 351.470404742 498.931640625 351.470404742 498.931640625 330.75033909 520.70889081 c 128,-1,149
 310.030273438 542.486140994 310.030273438 542.486140994 310.030273438 573.197265625 c 128,-1,150
 310.030273438 603.899387062 310.030273438 603.899387062 330.750585701 625.672349781 c 128,-1,151
 351.470897964 647.4453125 351.470897964 647.4453125 380.690429688 647.4453125 c 1,142,-1
380.690429688 525.66796875 m 128,-1,153
 399.392967679 525.66796875 399.392967679 525.66796875 412.65217233 539.602981701 c 128,-1,154
 425.911376982 553.537994651 425.911376982 553.537994651 425.915039062 573.198242188 c 128,-1,155
 425.915039062 592.84558927 425.915039062 592.84558927 412.653520147 606.78021651 c 128,-1,156
 399.392001231 620.71484375 399.392001231 620.71484375 380.690429688 620.71484375 c 128,-1,157
 361.989018524 620.71484375 361.989018524 620.71484375 348.727419418 606.779934567 c 128,-1,158
 335.465820312 592.845025383 335.465820312 592.845025383 335.465820312 573.198242188 c 128,-1,159
 335.465820312 553.539444132 335.465820312 553.539444132 348.726514823 539.603706441 c 128,-1,152
 361.987209334 525.66796875 361.987209334 525.66796875 380.690429688 525.66796875 c 128,-1,153
380.690429688 525.66796875 m 1024,160,-1
213.356445312 627.991210938 m 1,161,-1
 261.795898438 627.991210938 l 1,162,-1
 261.795898438 591.336914062 l 1,163,-1
 213.356445312 591.336914062 l 1,164,-1
 213.356445312 627.991210938 l 1,161,-1
213.356445312 627.991210938 m 1024,165,-1
213.356445312 459.572265625 m 1,166,-1
 261.795898438 459.572265625 l 1,167,-1
 261.795898438 422.931640625 l 1,168,-1
 213.356445312 422.931640625 l 1,169,-1
 213.356445312 459.572265625 l 1,166,-1
213.356445312 459.572265625 m 1024,170,-1
213.356445312 205.06640625 m 1,171,-1
 262.498046875 205.06640625 l 1,172,-1
 262.498046875 167.487304688 l 1,173,-1
 213.356445312 167.487304688 l 1,174,-1
 213.356445312 205.06640625 l 1,171,-1
213.356445312 205.06640625 m 1024,175,-1
213.356445312 119.923828125 m 1,176,-1
 262.498046875 119.923828125 l 1,177,-1
 262.498046875 82.333984375 l 1,178,-1
 213.356445312 82.333984375 l 1,179,-1
 213.356445312 119.923828125 l 1,176,-1
213.356445312 119.923828125 m 1024,180,-1
EndSplineSet
Validated: 3077
EndChar

StartChar: uniE616
Encoding: 58902 58902 22
Width: 1024
VWidth: 0
LayerCount: 2
Fore
SplineSet
386.538085938 262.338867188 m 1,0,-1
 440.522460938 450.103515625 l 1,1,-1
 575.473632812 315.979492188 l 1,2,-1
 386.538085938 262.338867188 l 1,0,-1
891.157226562 629.737304688 m 1,3,-1
 594.256835938 334.678710938 l 1,4,-1
 459.3046875 468.793945312 l 1,5,-1
 756.206054688 763.864257812 l 1,6,-1
 891.157226562 629.737304688 l 1,3,-1
851.827148438 133.05078125 m 2,7,-1
 851.827148438 470.715820312 l 1,8,-1
 936.248046875 555.1328125 l 1,9,-1
 936.248046875 104.912109375 l 2,10,11
 936.248046875 46.6314760315 936.248046875 46.6314760315 895.039126723 5.42413645325 c 128,-1,12
 853.830206571 -35.783203125 853.830206571 -35.783203125 795.5546875 -35.783203125 c 2,13,-1
 232.779296875 -35.783203125 l 2,14,15
 174.495907437 -35.783203125 174.495907437 -35.783203125 133.290434187 5.42147986623 c 128,-1,16
 92.0849609375 46.6261628575 92.0849609375 46.6261628575 92.0849609375 104.912109375 c 2,17,-1
 92.0849609375 667.6875 l 2,18,19
 92.0849609375 725.970534481 92.0849609375 725.970534481 133.290809232 767.176185209 c 128,-1,20
 174.496657527 808.381835938 174.496657527 808.381835938 232.779296875 808.381835938 c 2,21,-1
 683 808.381835938 l 1,22,-1
 598.583984375 723.96484375 l 1,23,-1
 260.91796875 723.96484375 l 2,24,25
 225.944655567 723.96484375 225.944655567 723.96484375 201.222816065 699.243201808 c 128,-1,26
 176.500976562 674.521559865 176.500976562 674.521559865 176.500976562 639.547851562 c 2,27,-1
 176.500976562 133.05078125 l 2,28,29
 176.500976562 98.091620011 176.500976562 98.091620011 201.223964779 73.3627045367 c 128,-1,30
 225.946952995 48.6337890625 225.946952995 48.6337890625 260.91796875 48.6337890625 c 2,31,-1
 767.416015625 48.6337890625 l 2,32,33
 802.376324323 48.6337890625 802.376324323 48.6337890625 827.10173638 73.3639431638 c 128,-1,34
 851.827148438 98.0940972651 851.827148438 98.0940972651 851.827148438 133.05078125 c 2,7,-1
953.87890625 742.407226562 m 2,35,36
 964.35992249 731.987119364 964.35992249 731.987119364 963.864624023 716.767211914 c 128,-1,37
 963.369325557 701.547304464 963.369325557 701.547304464 952.1875 690.439453125 c 2,38,-1
 911.697265625 650.198242188 l 1,39,-1
 776.741210938 784.325195312 l 1,40,-1
 817.237304688 824.5546875 l 2,41,42
 828.419316226 835.663451223 828.419316226 835.663451223 843.733886719 836.155761719 c 128,-1,43
 859.048457212 836.648072215 859.048457212 836.648072215 869.530273438 826.232421875 c 2,44,-1
 953.87890625 742.407226562 l 2,35,36
953.87890625 742.407226562 m 1024,45,-1
EndSplineSet
Validated: 1
EndChar

StartChar: uniE617
Encoding: 58903 58903 23
Width: 1024
VWidth: 0
LayerCount: 2
Fore
SplineSet
922.58203125 564.122070312 m 2,0,1
 934.263153822 564.122070312 934.263153822 564.122070312 942.526108161 555.783832947 c 128,-1,2
 950.7890625 547.445595581 950.7890625 547.445595581 950.7890625 535.662109375 c 2,3,-1
 950.7890625 66.3076171875 l 2,4,5
 950.7890625 54.5304156553 950.7890625 54.5304156553 942.525955722 46.1953836089 c 128,-1,6
 934.262848944 37.8603515625 934.262848944 37.8603515625 922.58203125 37.8603515625 c 2,7,-1
 330.149414062 37.8603515625 l 2,8,9
 318.465782738 37.8603515625 318.465782738 37.8603515625 310.201153088 46.1953252131 c 128,-1,10
 301.936523438 54.5302988637 301.936523438 54.5302988637 301.936523438 66.3076171875 c 2,11,-1
 301.936523438 137.448242188 l 1,12,-1
 231.411132812 137.448242188 l 2,13,14
 219.724866942 137.448242188 219.724866942 137.448242188 211.462531127 145.778931975 c 128,-1,15
 203.200195312 154.109621762 203.200195312 154.109621762 203.200195312 165.900390625 c 2,16,-1
 203.200195312 236.987304688 l 1,17,-1
 132.673828125 236.987304688 l 2,18,19
 120.991125595 236.987304688 120.991125595 236.987304688 112.726519829 245.323640845 c 128,-1,20
 104.461914062 253.659977003 104.461914062 253.659977003 104.461914062 265.434570312 c 2,21,-1
 104.461914062 734.778320312 l 2,22,23
 104.461914062 746.553497466 104.461914062 746.553497466 112.724993502 754.877822952 c 128,-1,24
 120.988072942 763.202148438 120.988072942 763.202148438 132.673828125 763.202148438 c 2,25,-1
 725.1015625 763.202148438 l 2,26,27
 736.787974616 763.202148438 736.787974616 763.202148438 745.05121387 754.877860984 c 128,-1,28
 753.314453125 746.55357353 753.314453125 746.55357353 753.314453125 734.778320312 c 2,29,-1
 753.314453125 663.65625 l 1,30,-1
 823.838867188 663.65625 l 2,31,32
 835.526513007 663.65625 835.526513007 663.65625 843.78913541 655.328041822 c 128,-1,33
 852.051757812 646.999833644 852.051757812 646.999833644 852.051757812 635.208984375 c 2,34,-1
 852.051757812 564.122070312 l 1,35,-1
 922.58203125 564.122070312 l 2,0,1
203.200195312 635.208984375 m 2,36,37
 203.200195312 646.999682025 203.200195312 646.999682025 211.462620412 655.328087997 c 128,-1,38
 219.725045512 663.656493969 219.725045512 663.656493969 231.412109375 663.657226562 c 2,39,-1
 725.104492188 663.657226562 l 1,40,-1
 725.104492188 720.556640625 l 2,41,42
 725.104492188 726.455896764 725.104492188 726.455896764 720.973211317 730.617596819 c 128,-1,43
 716.841930446 734.779296875 716.841930446 734.779296875 710.999023438 734.779296875 c 2,44,-1
 146.779296875 734.779296875 l 2,45,46
 140.931056069 734.779296875 140.931056069 734.779296875 136.801953816 730.618596365 c 128,-1,47
 132.672851562 726.457895854 132.672851562 726.457895854 132.672851562 720.556640625 c 2,48,-1
 132.672851562 279.66796875 l 2,49,50
 132.672851562 273.762305771 132.672851562 273.762305771 136.801961147 269.598438042 c 128,-1,51
 140.931070732 265.434570312 140.931070732 265.434570312 146.779296875 265.434570312 c 2,52,-1
 203.200195312 265.434570312 l 1,53,-1
 203.200195312 635.208984375 l 2,36,37
301.9375 535.662109375 m 2,54,55
 301.9375 547.445730873 301.9375 547.445730873 310.201498041 555.784022699 c 128,-1,56
 318.465496081 564.122314525 318.465496081 564.122314525 330.149414062 564.123046875 c 2,57,-1
 823.844726562 564.123046875 l 1,58,-1
 823.844726562 621.0078125 l 2,59,60
 823.844726562 626.900925682 823.844726562 626.900925682 819.714199783 631.054955029 c 128,-1,61
 815.583673004 635.208984375 815.583673004 635.208984375 809.73828125 635.208984375 c 2,62,-1
 245.517578125 635.208984375 l 2,63,64
 239.670025321 635.208984375 239.670025321 635.208984375 235.541067348 631.055341126 c 128,-1,65
 231.412109375 626.901697877 231.412109375 626.901697877 231.412109375 621.0078125 c 2,66,-1
 231.412109375 180.098632812 l 2,67,68
 231.412109375 174.210194008 231.412109375 174.210194008 235.541636597 170.055780598 c 128,-1,69
 239.671163819 165.901367188 239.671163819 165.901367188 245.517578125 165.901367188 c 2,70,-1
 301.9375 165.901367188 l 1,71,-1
 301.9375 535.662109375 l 2,54,55
922.58203125 80.5625 m 2,72,-1
 922.58203125 521.451171875 l 2,73,74
 922.58203125 527.351023787 922.58203125 527.351023787 918.452160678 531.506566581 c 128,-1,75
 914.322290105 535.662109375 914.322290105 535.662109375 908.475585938 535.662109375 c 2,76,-1
 344.255859375 535.662109375 l 2,77,78
 338.408591618 535.662109375 338.408591618 535.662109375 334.27900284 531.506651425 c 128,-1,79
 330.149414062 527.351193475 330.149414062 527.351193475 330.149414062 521.451171875 c 2,80,-1
 330.149414062 80.5625 l 2,81,82
 330.149414062 74.6394749019 330.149414062 74.6394749019 334.278432661 70.4745226072 c 128,-1,83
 338.40745126 66.3095703125 338.40745126 66.3095703125 344.255859375 66.3095703125 c 2,84,-1
 908.471679688 66.3095703125 l 2,85,86
 914.322716582 66.3095703125 914.322716582 66.3095703125 918.452373916 70.4743703058 c 128,-1,87
 922.58203125 74.6391702991 922.58203125 74.6391702991 922.58203125 80.5625 c 2,72,-1
922.58203125 80.5625 m 1024,88,-1
EndSplineSet
Validated: 1
EndChar

StartChar: uniE618
Encoding: 58904 58904 24
Width: 1024
VWidth: 0
Flags: W
LayerCount: 2
Fore
SplineSet
700.221679688 631.545898438 m 5,0,-1
 707.229492188 607.142578125 l 5,1,2
 565.134765625 596.634765625 565.134765625 596.634765625 362.177734375 593.22265625 c 5,3,-1
 362.177734375 466.00390625 l 6,4,5
 362.177734375 372.079101562 362.177734375 372.079101562 351.697265625 323.10546875 c 4,6,7
 342.962890625 276.02734375 342.962890625 276.02734375 313.368164062 223.768554688 c 5,8,9
 310.654296875 225.590820312 310.654296875 225.590820312 297.684570312 234.208984375 c 4,10,11
 294.180664062 235.997070312 294.180664062 235.997070312 292.491210938 237.69140625 c 4,12,13
 320.333984375 284.794921875 320.333984375 284.794921875 329.05078125 330.06640625 c 4,14,15
 337.771484375 377.112304688 337.771484375 377.112304688 337.771484375 467.72265625 c 6,16,-1
 337.771484375 615.868164062 l 5,17,18
 546.762695312 615.868164062 546.762695312 615.868164062 700.221679688 631.545898438 c 5,0,-1
705.463867188 513.051757812 m 5,19,-1
 557.321289062 513.051757812 l 5,20,-1
 557.321289062 453.798828125 l 5,21,-1
 675.8671875 453.798828125 l 5,22,-1
 675.8671875 309.135742188 l 5,23,-1
 651.462890625 309.135742188 l 5,24,-1
 651.462890625 432.876953125 l 5,25,-1
 440.592773438 432.876953125 l 5,26,-1
 440.592773438 309.135742188 l 5,27,-1
 416.1875 309.135742188 l 5,28,-1
 416.1875 453.798828125 l 5,29,-1
 532.963867188 453.798828125 l 5,30,-1
 532.963867188 513.051757812 l 5,31,-1
 390.018554688 513.051757812 l 5,32,-1
 390.018554688 533.973632812 l 5,33,-1
 532.963867188 533.973632812 l 5,34,-1
 532.963867188 584.5 l 5,35,-1
 557.321289062 584.5 l 5,36,-1
 557.321289062 533.973632812 l 5,37,-1
 705.463867188 533.973632812 l 5,38,-1
 705.463867188 513.051757812 l 5,19,-1
559.0859375 399.747070312 m 5,39,40
 559.0859375 357.909179688 559.0859375 357.909179688 548.64453125 324.817382812 c 5,41,42
 635.755859375 286.491210938 635.755859375 286.491210938 714.186523438 248.171875 c 5,43,-1
 700.220703125 225.481445312 l 5,44,45
 641.685546875 259.991210938 641.685546875 259.991210938 539.923828125 305.65625 c 5,46,47
 512.0390625 251.67578125 512.0390625 251.67578125 379.624023438 222.0078125 c 5,48,49
 375.809570312 229.485351562 375.809570312 229.485351562 369.138671875 241.165039062 c 5,50,51
 370.33984375 239.971679688 370.33984375 239.971679688 368.96875 242.2265625 c 4,52,53
 368.416015625 243.134765625 368.416015625 243.134765625 367.422851562 244.6484375 c 5,54,55
 468.59765625 263.90625 468.59765625 263.90625 501.55078125 295.220703125 c 4,56,57
 536.443359375 324.822265625 536.443359375 324.822265625 536.44140625 399.747070312 c 5,58,-1
 559.0859375 399.747070312 l 5,39,40
881.638671875 682.94921875 m 6,59,60
 892.19921875 506.611328125 892.19921875 506.611328125 877.678710938 418.186523438 c 4,61,62
 846.6015625 228.747070312 846.6015625 228.747070312 740.064453125 122.077148438 c 4,63,64
 686.040039062 68.2568359375 686.040039062 68.2568359375 597.477539062 31.267578125 c 4,65,66
 585.927734375 26.4306640625 585.927734375 26.4306640625 562.686523438 13.15234375 c 4,67,68
 547.6953125 4.580078125 547.6953125 4.580078125 539.833007812 0.53515625 c 4,69,70
 532.813476562 -3.138671875 532.813476562 -3.138671875 523.995117188 -3.138671875 c 4,71,72
 516.838867188 -3.138671875 516.838867188 -3.138671875 510.797851562 -0.5537109375 c 4,73,74
 502.41015625 3.1083984375 502.41015625 3.1083984375 486.021484375 10.9208984375 c 4,75,76
 458.545898438 24.0380859375 458.545898438 24.0380859375 444.731445312 28.8857421875 c 4,77,78
 332.7890625 68.068359375 332.7890625 68.068359375 258.833984375 147.615234375 c 4,79,80
 187.426757812 224.419921875 187.426757812 224.419921875 151.076171875 339.426757812 c 4,81,82
 118.524414062 442.473632812 118.524414062 442.473632812 129.233398438 569.430664062 c 4,83,84
 132.587890625 609.319335938 132.587890625 609.319335938 142.14453125 689.176757812 c 4,85,86
 145.485351562 716.98828125 145.485351562 716.98828125 147.309570312 732.82421875 c 4,87,88
 147.94921875 738.573242188 147.94921875 738.573242188 150.58984375 745.916992188 c 4,89,-1
 155.810546875 762.830078125 l 5,90,-1
 173.15234375 760.189453125 l 6,91,92
 185.438476562 758.31640625 185.438476562 758.31640625 210.16015625 754.084960938 c 4,93,94
 260.142578125 745.532226562 260.142578125 745.532226562 284.622070312 743.528320312 c 4,95,96
 296.114257812 742.5625 296.114257812 742.5625 307.416015625 742.5625 c 4,97,98
 397.659179688 742.5625 397.659179688 742.5625 488.325195312 805.59375 c 4,99,100
 506.8515625 818.497070312 506.8515625 818.497070312 521.04296875 818.497070312 c 4,101,102
 536.140625 818.497070312 536.140625 818.497070312 555.383789062 803.752929688 c 4,103,104
 642.91015625 736.66015625 642.91015625 736.66015625 744.512695312 736.666015625 c 4,105,106
 791.76171875 736.666015625 791.76171875 736.666015625 842.42578125 751.065429688 c 6,107,-1
 842.779296875 751.16015625 l 6,108,109
 844.002929688 751.48828125 844.002929688 751.48828125 846.729492188 752.053710938 c 4,110,111
 849.107421875 752.541992188 849.107421875 752.541992188 850.743164062 752.911132812 c 6,112,-1
 872.373046875 757.805664062 l 5,113,-1
 875.373046875 735.831054688 l 6,114,115
 875.9296875 731.77734375 875.9296875 731.77734375 877.243164062 723.171875 c 4,116,117
 880.458984375 702.084960938 880.458984375 702.084960938 881.1484375 691.118164062 c 6,118,-1
 881.638671875 682.94921875 l 6,59,60
837.54296875 424.7734375 m 4,119,120
 851.328125 508.720703125 851.328125 508.720703125 841.033203125 680.51171875 c 6,121,-1
 840.553710938 688.627929688 l 6,122,123
 840.05859375 696.442382812 840.05859375 696.442382812 838.404296875 707.907226562 c 5,124,125
 790.134765625 695.983398438 790.134765625 695.983398438 744.514648438 695.983398438 c 4,126,127
 629.112304688 695.983398438 629.112304688 695.983398438 530.650390625 771.455078125 c 4,128,129
 523.69140625 776.788085938 523.69140625 776.788085938 520.995117188 777.741210938 c 4,130,131
 518.258789062 776.865234375 518.258789062 776.865234375 511.556640625 772.1953125 c 4,132,133
 410.427734375 701.880859375 410.427734375 701.880859375 307.423828125 701.880859375 c 4,134,135
 294.349609375 701.880859375 294.349609375 701.880859375 281.259765625 702.987304688 c 4,136,137
 254.9921875 705.135742188 254.9921875 705.135742188 203.30078125 713.994140625 c 4,138,139
 192.491210938 715.846679688 192.491210938 715.846679688 186.40625 716.861328125 c 5,140,141
 185.069335938 705.498046875 185.069335938 705.498046875 182.533203125 684.333007812 c 4,142,143
 173.072265625 605.35546875 173.072265625 605.35546875 169.762695312 566.016601562 c 4,144,145
 159.732421875 447.041015625 159.732421875 447.041015625 189.86328125 351.682617188 c 4,146,147
 257.552734375 137.502929688 257.552734375 137.502929688 458.180664062 67.2734375 c 4,148,149
 473.977539062 61.732421875 473.977539062 61.732421875 503.546875 47.630859375 c 4,150,151
 517.008789062 41.2001953125 517.008789062 41.2001953125 523.927734375 38.111328125 c 5,152,153
 529.961914062 41.2958984375 529.961914062 41.2958984375 542.5 48.4560546875 c 4,154,155
 567.8046875 62.93359375 567.8046875 62.93359375 581.78515625 68.7880859375 c 4,156,157
 663.017578125 102.72265625 663.017578125 102.72265625 711.323242188 150.848632812 c 4,158,159
 808.583984375 248.236328125 808.583984375 248.236328125 837.54296875 424.7734375 c 4,119,120
EndSplineSet
Validated: 1057
EndChar

StartChar: uniE619
Encoding: 58905 58905 25
Width: 1024
VWidth: 0
LayerCount: 2
Fore
SplineSet
672.434570312 512.484375 m 1,0,-1
 523.723632812 512.484375 l 1,1,-1
 523.723632812 453.00390625 l 1,2,-1
 642.723632812 453.00390625 l 1,3,-1
 642.723632812 307.78515625 l 1,4,-1
 618.225585938 307.78515625 l 1,5,-1
 618.225585938 432.000976562 l 1,6,-1
 406.546875 432.000976562 l 1,7,-1
 406.546875 307.784179688 l 1,8,-1
 382.047851562 307.784179688 l 1,9,-1
 382.047851562 453.00390625 l 1,10,-1
 499.271484375 453.00390625 l 1,11,-1
 499.271484375 512.484375 l 1,12,-1
 355.779296875 512.484375 l 1,13,-1
 355.779296875 533.485351562 l 1,14,-1
 499.271484375 533.485351562 l 1,15,-1
 499.271484375 584.208007812 l 1,16,-1
 523.723632812 584.208007812 l 1,17,-1
 523.723632812 533.485351562 l 1,18,-1
 672.434570312 533.485351562 l 1,19,-1
 672.434570312 512.484375 l 1,0,-1
525.495117188 398.744140625 m 1,20,21
 525.495117188 356.750074501 525.495117188 356.750074501 515.013671875 323.529296875 c 1,22,23
 602.518630029 285.027056642 602.518630029 285.027056642 681.193359375 246.58984375 c 1,24,-1
 667.171875 223.811523438 l 1,25,26
 608.394057105 258.461879443 608.394057105 258.461879443 506.260742188 304.294921875 c 1,27,28
 478.269042969 250.104492188 478.269042969 250.104492188 345.34375 220.323242188 c 1,29,30
 341.515621966 227.826185404 341.515621966 227.826185404 334.818359375 239.552734375 c 1,31,32
 336.026212915 238.353076618 336.026212915 238.353076618 334.643179193 240.625589251 c 0,33,34
 334.088930981 241.536294494 334.088930981 241.536294494 333.095703125 243.049804688 c 1,35,36
 434.664431865 262.383584944 434.664431865 262.383584944 467.739257812 293.817382812 c 0,37,38
 502.766601562 323.52734375 502.766601562 323.52734375 502.764648438 398.744140625 c 1,39,-1
 525.495117188 398.744140625 l 1,20,21
667.171875 631.432617188 m 1,40,-1
 674.205078125 606.935546875 l 1,41,42
 531.623339327 596.390144422 531.623339327 596.390144422 327.830078125 592.962890625 c 1,43,-1
 327.830078125 465.25390625 l 2,44,45
 327.830078125 370.963148866 327.830078125 370.963148866 317.309570312 321.807617188 c 0,46,47
 308.54366536 274.552926087 308.54366536 274.552926087 278.833984375 222.090820312 c 1,48,49
 276.524260086 223.640970842 276.524260086 223.640970842 263.090820312 232.5703125 c 0,50,51
 259.569475373 234.366169099 259.569475373 234.366169099 257.876953125 236.064453125 c 0,52,53
 285.827915064 283.350400226 285.827915064 283.350400226 294.577148438 328.794921875 c 0,54,55
 303.331054688 376.018554688 303.331054688 376.018554688 303.331054688 466.978515625 c 2,56,-1
 303.331054688 615.6953125 l 1,57,58
 513.12900134 615.6953125 513.12900134 615.6953125 667.171875 631.432617188 c 1,40,-1
849.287109375 683.033203125 m 2,59,60
 859.890185731 506.037890506 859.890185731 506.037890506 845.311523438 417.255859375 c 0,61,62
 814.111765907 227.08420461 814.111765907 227.08420461 707.168945312 120.006835938 c 0,63,64
 652.949117889 65.9873827143 652.949117889 65.9873827143 564.034179688 28.84765625 c 0,65,66
 552.438155761 23.9926037949 552.438155761 23.9926037949 529.110351562 10.6640625 c 0,67,68
 514.122755896 2.08870598202 514.122755896 2.08870598202 506.16796875 -2.0009765625 c 0,69,70
 499.120937274 -5.689453125 499.120937274 -5.689453125 490.272460938 -5.689453125 c 0,71,72
 483.093501769 -5.689453125 483.093501769 -5.689453125 477.0234375 -3.095703125 c 0,73,74
 468.521305123 0.619604264266 468.521305123 0.619604264266 452.15234375 8.423828125 c 0,75,76
 424.549898251 21.5996636923 424.549898251 21.5996636923 410.702148438 26.45703125 c 0,77,78
 298.327684919 65.7940538594 298.327684919 65.7940538594 224.090820312 145.64453125 c 0,79,80
 152.407347982 222.74929427 152.407347982 222.74929427 115.918945312 338.19140625 c 0,81,82
 83.2427944018 441.639516402 83.2427944018 441.639516402 93.9931640625 569.078125 c 0,83,84
 97.3613694529 609.136265521 97.3613694529 609.136265521 106.954101562 689.284179688 c 0,85,86
 110.383344317 717.849103179 110.383344317 717.849103179 112.139648438 733.099609375 c 0,87,88
 112.782343875 738.877998948 112.782343875 738.877998948 115.431640625 746.243164062 c 2,89,-1
 115.564453125 746.612304688 l 1,90,-1
 120.671875 763.220703125 l 1,91,-1
 138.08203125 760.569335938 l 2,92,93
 150.3759621 758.694860985 150.3759621 758.694860985 175.232421875 754.442382812 c 0,94,95
 225.396914796 745.855992828 225.396914796 745.855992828 249.979492188 743.844726562 c 0,96,97
 261.533715932 742.875976562 261.533715932 742.875976562 272.861328125 742.875976562 c 0,98,99
 363.451996776 742.875976562 363.451996776 742.875976562 454.46484375 806.1484375 c 0,100,101
 473.060446998 819.1015625 473.060446998 819.1015625 487.30859375 819.1015625 c 0,102,103
 502.458255516 819.1015625 502.458255516 819.1015625 521.782226562 804.30078125 c 0,104,105
 609.64096872 736.949672992 609.64096872 736.949672992 711.633789062 736.95703125 c 0,106,107
 759.069142991 736.95703125 759.069142991 736.95703125 809.924804688 751.411132812 c 2,108,-1
 810.279296875 751.505859375 l 2,109,110
 811.506464509 751.834875177 811.506464509 751.834875177 814.245117188 752.40234375 c 0,111,112
 816.78214 752.927159253 816.78214 752.927159253 818.274414062 753.262695312 c 2,113,-1
 839.98828125 758.17578125 l 1,114,-1
 842.999023438 736.1171875 l 2,115,116
 843.590797369 731.824368964 843.590797369 731.824368964 844.875976562 723.41015625 c 0,117,118
 848.105052972 702.245082409 848.105052972 702.245082409 848.795898438 691.232421875 c 2,119,-1
 849.287109375 683.033203125 l 2,59,60
805.0234375 423.865234375 m 0,120,121
 818.860965859 508.145786055 818.860965859 508.145786055 808.5234375 680.588867188 c 2,122,-1
 808.041015625 688.734375 l 2,123,124
 807.544253801 696.58175433 807.544253801 696.58175433 805.885742188 708.087890625 c 1,125,126
 757.428510078 696.118164062 757.428510078 696.118164062 711.634765625 696.118164062 c 0,127,128
 595.791009402 696.118164062 595.791009402 696.118164062 496.950195312 771.879882812 c 0,129,130
 489.96987356 777.22781794 489.96987356 777.22781794 487.258789062 778.190429688 c 0,131,132
 484.504438786 777.305950827 484.504438786 777.305950827 477.78515625 772.623046875 c 0,133,134
 376.265223225 702.038085938 376.265223225 702.038085938 272.866210938 702.038085938 c 0,135,136
 259.778206337 702.038085938 259.778206337 702.038085938 246.602539062 703.147460938 c 0,137,138
 220.241511204 705.304192281 220.241511204 705.304192281 168.34375 714.197265625 c 0,139,140
 157.921102227 715.98603705 157.921102227 715.98603705 151.384765625 717.076171875 c 1,141,142
 150.1434286 706.52480716 150.1434286 706.52480716 147.497070312 684.422851562 c 0,143,144
 138.005214514 605.218786793 138.005214514 605.218786793 134.676757812 565.65234375 c 0,145,146
 124.607895818 446.219413038 124.607895818 446.219413038 154.854492188 350.495117188 c 0,147,148
 222.805963893 135.488649346 222.805963893 135.488649346 424.202148438 64.9931640625 c 0,149,150
 440.04505015 59.4372678831 440.04505015 59.4372678831 469.743164062 45.275390625 c 0,151,152
 483.332235177 38.7849752305 483.332235177 38.7849752305 490.203125 35.7177734375 c 1,153,154
 496.265727159 38.9175596818 496.265727159 38.9175596818 508.845703125 46.1025390625 c 0,155,156
 534.263198911 60.6407193044 534.263198911 60.6407193044 548.282226562 66.51171875 c 0,157,158
 629.827224775 100.578859782 629.827224775 100.578859782 678.317382812 148.888671875 c 0,159,160
 775.949333985 246.646607147 775.949333985 246.646607147 805.0234375 423.865234375 c 0,120,121
969.87109375 6.759765625 m 2,161,162
 969.87109375 -5.19120223438 969.87109375 -5.19120223438 975.361453104 -8.02688388364 c 128,-1,163
 980.851812459 -10.8625655329 980.851812459 -10.8625655329 1006.375 -10.86328125 c 1,164,-1
 1006.375 -19.673828125 l 1,165,-1
 810.013671875 -19.673828125 l 1,166,-1
 810.013671875 -10.86328125 l 1,167,168
 833.438774856 -10.86328125 833.438774856 -10.86328125 839.13833274 -7.91947184844 c 128,-1,169
 844.837890625 -4.97566244689 844.837890625 -4.97566244689 844.837890625 6.7587890625 c 2,170,-1
 844.837890625 235.008789062 l 2,171,172
 844.837890625 249.140527395 844.837890625 249.140527395 840.10117933 252.144482448 c 128,-1,173
 835.364468036 255.1484375 835.364468036 255.1484375 811.272460938 255.1484375 c 1,174,-1
 811.272460938 262.700195312 l 1,175,-1
 1005.53515625 262.700195312 l 1,176,-1
 1005.53515625 255.1484375 l 1,177,178
 980.663808815 255.1484375 980.663808815 255.1484375 975.267451283 251.874269998 c 128,-1,179
 969.87109375 248.600102496 969.87109375 248.600102496 969.87109375 235.008789062 c 2,180,-1
 969.87109375 6.759765625 l 2,161,162
949.311523438 6.759765625 m 2,181,-1
 949.311523438 235.008789062 l 2,182,183
 949.311523438 248.89556161 949.311523438 248.89556161 943.239436064 252.021999555 c 128,-1,184
 937.16734869 255.1484375 937.16734869 255.1484375 909.872070312 255.1484375 c 0,185,186
 879.492501039 255.1484375 879.492501039 255.1484375 872.444492707 251.718138703 c 128,-1,187
 865.396484375 248.287839906 865.396484375 248.287839906 865.396484375 235.008789062 c 2,188,-1
 865.396484375 6.759765625 l 2,189,190
 865.396484375 -4.68557538719 865.396484375 -4.68557538719 871.885921515 -7.35401816235 c 128,-1,191
 878.375358656 -10.0224609375 878.375358656 -10.0224609375 907.354492188 -10.0224609375 c 128,-1,192
 936.354190782 -10.0224609375 936.354190782 -10.0224609375 942.83285711 -7.44319749326 c 128,-1,193
 949.311523438 -4.86393404902 949.311523438 -4.86393404902 949.311523438 6.759765625 c 2,181,-1
EndSplineSet
Validated: 3105
EndChar

StartChar: uniE61A
Encoding: 58906 58906 26
Width: 1024
VWidth: 0
LayerCount: 2
Fore
SplineSet
496.301757812 60.5419921875 m 1,0,1
 468.51171875 116.530658995 468.51171875 116.530658995 468.51171875 178.708984375 c 0,2,3
 468.51171875 288.670055767 468.51171875 288.670055767 546.484319878 366.641668508 c 128,-1,4
 624.456921006 444.61328125 624.456921006 444.61328125 734.420898438 444.61328125 c 0,5,6
 749.29781933 444.61328125 749.29781933 444.61328125 763.963867188 442.971679688 c 1,7,-1
 763.963867188 562.776367188 l 1,8,-1
 675.314453125 562.776367188 l 2,9,10
 608.116943359 562.776367188 608.116943359 562.776367188 560.466186523 610.427124023 c 128,-1,11
 512.815429688 658.077880859 512.815429688 658.077880859 512.815429688 725.275390625 c 2,12,-1
 512.815429688 784.381835938 l 1,13,-1
 217.379882812 784.381835938 l 2,14,15
 186.83625725 784.381835938 186.83625725 784.381835938 165.176429406 762.722205774 c 128,-1,16
 143.516601562 741.062575611 143.516601562 741.062575611 143.516601562 710.518554688 c 2,17,-1
 143.516601562 134.387695312 l 2,18,19
 143.516601562 103.836888554 143.516601562 103.836888554 165.174328123 82.189440371 c 128,-1,20
 186.832054684 60.5419921875 186.832054684 60.5419921875 217.379882812 60.5419921875 c 2,21,-1
 496.301757812 60.5419921875 l 1,0,1
583.76953125 16.208984375 m 1,22,-1
 217.379882812 16.208984375 l 2,23,24
 168.425939473 16.208984375 168.425939473 16.208984375 133.813067393 50.8271910266 c 128,-1,25
 99.2001953125 85.4453976782 99.2001953125 85.4453976782 99.2001953125 134.387695312 c 2,26,-1
 99.2001953125 710.518554688 l 2,27,28
 99.2001953125 759.477370414 99.2001953125 759.477370414 133.81034048 794.087318019 c 128,-1,29
 168.420485648 828.697265625 168.420485648 828.697265625 217.379882812 828.697265625 c 2,30,-1
 557.119140625 828.697265625 l 1,31,-1
 557.119140625 725.275390625 l 2,32,33
 557.119140625 676.338519539 557.119140625 676.338519539 591.738943262 641.723458988 c 128,-1,34
 626.3587459 607.108398438 626.3587459 607.108398438 675.296875 607.108398438 c 2,35,-1
 808.250976562 607.108398438 l 1,36,-1
 808.250976562 387.680664062 l 1,37,38
 772.666998713 400.309570312 772.666998713 400.309570312 734.420898438 400.309570312 c 0,39,40
 642.63628836 400.309570312 642.63628836 400.309570312 577.725859024 335.399931287 c 128,-1,41
 512.815429688 270.490292262 512.815429688 270.490292262 512.815429688 178.708007812 c 0,42,43
 512.815429688 82.0231412859 512.815429688 82.0231412859 583.76953125 16.208984375 c 1,44,-1
 583.76953125 16.208984375 l 1,22,-1
583.76953125 16.208984375 m 1024,45,-1
453.741210938 223.024414062 m 1,46,-1
 217.396484375 223.024414062 l 2,47,48
 211.258321962 223.024414062 211.258321962 223.024414062 206.932383637 227.348377975 c 128,-1,49
 202.606445312 231.672341887 202.606445312 231.672341887 202.606445312 237.809570312 c 2,50,-1
 202.606445312 252.571289062 l 2,51,52
 202.606445312 258.69575699 202.606445312 258.69575699 206.932595244 263.012429276 c 128,-1,53
 211.258745175 267.329101562 211.258745175 267.329101562 217.396484375 267.329101562 c 2,54,-1
 453.741210938 267.329101562 l 2,55,56
 459.862493145 267.329101562 459.862493145 267.329101562 464.195406729 263.010411741 c 128,-1,57
 468.528320312 258.69172192 468.528320312 258.69172192 468.528320312 252.571289062 c 2,58,-1
 468.528320312 237.809570312 l 2,59,60
 468.528320312 231.676948824 468.528320312 231.676948824 464.195533899 227.350681443 c 128,-1,61
 459.862747485 223.024414062 459.862747485 223.024414062 453.741210938 223.024414062 c 1,62,-1
 453.741210938 223.024414062 l 1,46,-1
453.741210938 223.024414062 m 1024,63,-1
498.05859375 370.75 m 1,64,-1
 217.396484375 370.75 l 2,65,66
 211.258508854 370.75 211.258508854 370.75 206.932477083 375.074847097 c 128,-1,67
 202.606445312 379.399694195 202.606445312 379.399694195 202.606445312 385.537109375 c 2,68,-1
 202.606445312 400.29296875 l 2,69,70
 202.606445312 406.411703273 202.606445312 406.411703273 206.933758316 410.733683668 c 128,-1,71
 211.261071319 415.055664062 211.261071319 415.055664062 217.396484375 415.055664062 c 2,72,-1
 498.05859375 415.055664062 l 2,73,74
 504.176627949 415.055664062 504.176627949 415.055664062 508.510188975 410.731390651 c 128,-1,75
 512.84375 406.407117239 512.84375 406.407117239 512.84375 400.29296875 c 2,76,-1
 512.84375 385.537109375 l 2,77,78
 512.84375 379.404284629 512.84375 379.404284629 508.511471377 375.077142315 c 128,-1,79
 504.179192754 370.75 504.179192754 370.75 498.05859375 370.75 c 1,80,-1
 498.05859375 370.75 l 1,64,-1
498.05859375 370.75 m 1024,81,-1
571.921875 533.262695312 m 1,82,-1
 217.396484375 533.262695312 l 2,83,84
 211.258313246 533.262695312 211.258313246 533.262695312 206.932379279 537.578362343 c 128,-1,85
 202.606445312 541.894029374 202.606445312 541.894029374 202.606445312 548.01953125 c 2,86,-1
 202.606445312 562.775390625 l 2,87,88
 202.606445312 568.913085938 202.606445312 568.913085938 206.932617188 573.239257812 c 128,-1,89
 211.258789062 577.565429688 211.258789062 577.565429688 217.396484375 577.565429688 c 2,90,-1
 571.921875 577.565429688 l 2,91,92
 578.040049258 577.565429688 578.040049258 577.565429688 582.359380098 573.23839669 c 128,-1,93
 586.678710938 568.911363692 586.678710938 568.911363692 586.678710938 562.775390625 c 2,94,-1
 586.678710938 548.01953125 l 2,95,96
 586.678710938 541.896311274 586.678710938 541.896311274 582.359533146 537.579503293 c 128,-1,97
 578.040355354 533.262695312 578.040355354 533.262695312 571.921875 533.262695312 c 1,98,-1
 571.921875 533.262695312 l 1,82,-1
571.921875 533.262695312 m 1024,99,-1
756.564453125 16.208984375 m 128,-1,101
 820.725341797 16.208984375 820.725341797 16.208984375 866.207397461 61.6910400391 c 128,-1,102
 911.689453125 107.173095703 911.689453125 107.173095703 911.689453125 171.333984375 c 128,-1,103
 911.689453125 235.469430365 911.689453125 235.469430365 866.205104064 280.952000339 c 128,-1,104
 820.720755002 326.434570312 820.720755002 326.434570312 756.564453125 326.434570312 c 128,-1,105
 692.433762274 326.434570312 692.433762274 326.434570312 646.948814731 280.949425083 c 128,-1,106
 601.463867188 235.464279853 601.463867188 235.464279853 601.463867188 171.333984375 c 128,-1,107
 601.463867188 107.177851028 601.463867188 107.177851028 646.9467191 61.6934177015 c 128,-1,100
 692.429571012 16.208984375 692.429571012 16.208984375 756.564453125 16.208984375 c 128,-1,101
756.564453125 -28.1064453125 m 1,108,109
 673.95425547 -28.1064453125 673.95425547 -28.1064453125 615.550858204 30.3048546103 c 128,-1,110
 557.147460938 88.7161545331 557.147460938 88.7161545331 557.147460938 171.333007812 c 128,-1,111
 557.147460938 253.95100809 557.147460938 253.95100809 615.549234464 312.350015764 c 128,-1,112
 673.95100799 370.749023438 673.95100799 370.749023438 756.564453125 370.749023438 c 128,-1,113
 839.184099004 370.737304131 839.184099004 370.737304131 897.594002627 312.338859086 c 128,-1,114
 956.00390625 253.940414041 956.00390625 253.940414041 956.00390625 171.333007812 c 128,-1,115
 956.005371133 88.7253467548 956.005371133 88.7253467548 897.592043543 30.3094507212 c 128,-1,116
 839.178715953 -28.1064453125 839.178715953 -28.1064453125 756.564453125 -28.1064453125 c 1,117,-1
 756.564453125 -28.1064453125 l 1,108,109
756.564453125 -28.1064453125 m 1024,118,-1
852.600585938 134.387695312 m 1,119,-1
 734.420898438 134.387695312 l 1,120,-1
 719.647460938 134.387695312 l 2,121,122
 713.531005859 134.387695312 713.531005859 134.387695312 709.202026367 138.716674805 c 128,-1,123
 704.873046875 143.045654297 704.873046875 143.045654297 704.873046875 149.162109375 c 2,124,-1
 704.873046875 267.340820312 l 2,125,126
 704.873046875 273.466203413 704.873046875 273.466203413 709.200629856 277.790230613 c 128,-1,127
 713.528212837 282.114257812 713.528212837 282.114257812 719.647460938 282.114257812 c 2,128,-1
 734.432617188 282.114257812 l 2,129,130
 740.551275864 282.114257812 740.551275864 282.114257812 744.870852776 277.789546305 c 128,-1,131
 749.190429688 273.464834798 749.190429688 273.464834798 749.190429688 267.330078125 c 2,132,-1
 749.190429688 178.708984375 l 1,133,-1
 852.600585938 178.708984375 l 2,134,135
 858.719708577 178.708984375 858.719708577 178.708984375 863.046866007 174.381234346 c 128,-1,136
 867.374023438 170.053484317 867.374023438 170.053484317 867.374023438 163.919921875 c 2,137,-1
 867.374023438 149.162109375 l 2,138,139
 867.374023438 143.045729837 867.374023438 143.045729837 863.045203784 138.716712575 c 128,-1,140
 858.716384131 134.387695312 858.716384131 134.387695312 852.600585938 134.387695312 c 1,141,-1
 852.600585938 134.387695312 l 1,119,-1
852.600585938 134.387695312 m 1024,142,-1
705.465820312 710.518554688 m 1,143,-1
 645.78515625 759.358398438 l 1,144,-1
 645.78515625 710.518554688 l 1,145,-1
 705.465820312 710.518554688 l 1,143,-1
763.947265625 666.198242188 m 1,146,-1
 631.010742188 666.198242188 l 2,147,148
 618.774991957 666.198242188 618.774991957 666.198242188 610.113081916 674.852248485 c 128,-1,149
 601.451171875 683.506254783 601.451171875 683.506254783 601.451171875 695.745117188 c 2,150,-1
 601.451171875 799.151367188 l 2,151,152
 601.451171875 811.382335758 601.451171875 811.382335758 610.114263223 820.040288973 c 128,-1,153
 618.777354572 828.698242188 618.777354572 828.698242188 631.010742188 828.698242188 c 1,154,-1
 793.510742188 695.74609375 l 1,155,156
 793.519531149 683.504535753 793.519531149 683.504535753 784.861642915 674.85138897 c 128,-1,157
 776.203754682 666.198242188 776.203754682 666.198242188 763.947265625 666.198242188 c 1,158,-1
 763.947265625 666.198242188 l 1,146,-1
763.947265625 666.198242188 m 1024,159,-1
EndSplineSet
Validated: 3109
EndChar

StartChar: uniE61B
Encoding: 58907 58907 27
Width: 1024
VWidth: 0
LayerCount: 2
Fore
SplineSet
652.404296875 827.166992188 m 1,0,-1
 910.432617188 563.161132812 l 1,1,-1
 910.432617188 91.1962890625 l 2,2,3
 910.432617188 42.4064026762 910.432617188 42.4064026762 875.270372461 7.9170685256 c 128,-1,4
 840.108127735 -26.572265625 840.108127735 -26.572265625 790.379882812 -26.572265625 c 2,5,-1
 265.10546875 -26.572265625 l 2,6,7
 215.361084705 -26.572265625 215.361084705 -26.572265625 180.193237665 7.91636262181 c 128,-1,8
 145.025390625 42.4049908686 145.025390625 42.4049908686 145.025390625 91.1962890625 c 2,9,-1
 145.025390625 709.399414062 l 2,10,11
 145.025390625 758.183289989 145.025390625 758.183289989 180.194307938 792.675141088 c 128,-1,12
 215.363225251 827.166992188 215.363225251 827.166992188 265.10546875 827.166992188 c 2,13,-1
 652.404296875 827.166992188 l 1,0,-1
638.138671875 788.5859375 m 1,14,-1
 638.138671875 562.200195312 l 1,15,-1
 859.38671875 562.200195312 l 1,16,-1
 638.138671875 788.5859375 l 1,14,-1
872.915039062 91.1962890625 m 2,17,-1
 872.915039062 525.419921875 l 1,18,-1
 638.138671875 525.419921875 l 1,19,-1
 601.340820312 525.419921875 l 1,20,-1
 601.340820312 562.200195312 l 1,21,-1
 601.340820312 790.369140625 l 1,22,-1
 265.10546875 790.369140625 l 2,23,24
 230.95921163 790.369140625 230.95921163 790.369140625 206.750601909 766.630384138 c 128,-1,25
 182.541992188 742.891627651 182.541992188 742.891627651 182.541992188 709.399414062 c 2,26,-1
 182.541992188 91.1962890625 l 2,27,28
 182.541992188 57.7045464306 182.541992188 57.7045464306 206.750735254 33.9650661841 c 128,-1,29
 230.95947832 10.2255859375 230.95947832 10.2255859375 265.10546875 10.2255859375 c 2,30,-1
 790.380859375 10.2255859375 l 2,31,32
 824.510528052 10.2255859375 824.510528052 10.2255859375 848.712783557 33.9656826549 c 128,-1,33
 872.915039062 57.7057793723 872.915039062 57.7057793723 872.915039062 91.1962890625 c 2,17,-1
872.915039062 91.1962890625 m 1024,34,-1
329.03125 488.606445312 m 1,35,-1
 726.454101562 488.606445312 l 1,36,-1
 726.454101562 459.181640625 l 1,37,-1
 329.03125 459.181640625 l 1,38,-1
 329.03125 488.606445312 l 1,35,-1
329.03125 488.606445312 m 1024,39,-1
329.03125 356.145507812 m 1,40,-1
 726.454101562 356.145507812 l 1,41,-1
 726.454101562 326.708007812 l 1,42,-1
 329.03125 326.708007812 l 1,43,-1
 329.03125 356.145507812 l 1,40,-1
329.03125 356.145507812 m 1024,44,-1
329.03125 238.389648438 m 1,45,-1
 726.454101562 238.389648438 l 1,46,-1
 726.454101562 208.952148438 l 1,47,-1
 329.03125 208.952148438 l 1,48,-1
 329.03125 238.389648438 l 1,45,-1
329.03125 238.389648438 m 1024,49,-1
EndSplineSet
Validated: 2049
EndChar

StartChar: uniE61D
Encoding: 58909 58909 28
Width: 1024
VWidth: 0
LayerCount: 2
Fore
SplineSet
527.602539062 819.450195312 m 128,-1,1
 641.469221803 819.450195312 641.469221803 819.450195312 738.021439565 763.363829064 c 128,-1,2
 834.573657327 707.277462816 834.573657327 707.277462816 890.659875539 610.72373604 c 128,-1,3
 946.74609375 514.170009263 946.74609375 514.170009263 946.74609375 400.30078125 c 128,-1,4
 946.74609375 286.442582975 946.74609375 286.442582975 890.660293224 189.8904309 c 128,-1,5
 834.574492698 93.338278825 834.574492698 93.338278825 738.02102188 37.248240975 c 128,-1,6
 641.467551062 -18.841796875 641.467551062 -18.841796875 527.602539062 -18.841796875 c 128,-1,7
 413.735229052 -18.841796875 413.735229052 -18.841796875 317.180633435 37.2482852167 c 128,-1,8
 220.626037818 93.3383673084 220.626037818 93.3383673084 164.54006969 189.890386658 c 128,-1,9
 108.454101562 286.442406008 108.454101562 286.442406008 108.454101562 400.30078125 c 128,-1,10
 108.454101562 514.170107173 108.454101562 514.170107173 164.540704394 610.723760517 c 128,-1,11
 220.627307226 707.277413862 220.627307226 707.277413862 317.180649773 763.363804587 c 128,-1,0
 413.73399232 819.450195312 413.73399232 819.450195312 527.602539062 819.450195312 c 128,-1,1
527.602539062 33.5517578125 m 128,-1,13
 627.228933682 33.5517578125 627.228933682 33.5517578125 711.714014378 82.6321709307 c 128,-1,14
 796.199095073 131.712584049 796.199095073 131.712584049 845.276545518 216.19627959 c 128,-1,15
 894.353995964 300.679975132 894.353995964 300.679975132 894.353515625 400.30078125 c 128,-1,16
 894.353515625 499.930551584 894.353515625 499.930551584 845.275803556 584.415987505 c 128,-1,17
 796.198091486 668.901423427 796.198091486 668.901423427 711.714105299 717.979520307 c 128,-1,18
 627.230119111 767.057617188 627.230119111 767.057617188 527.602539062 767.057617188 c 128,-1,19
 427.973120601 767.057617188 427.973120601 767.057617188 343.488234577 717.979484914 c 128,-1,20
 259.003348554 668.90135264 259.003348554 668.90135264 209.925502402 584.416022899 c 128,-1,21
 160.84765625 499.930693158 160.84765625 499.930693158 160.84765625 400.30078125 c 128,-1,22
 160.84765625 300.679754503 160.84765625 300.679754503 209.925194465 216.196224433 c 128,-1,23
 259.00273268 131.712694363 259.00273268 131.712694363 343.488542514 82.6322260879 c 128,-1,12
 427.974352348 33.5517578125 427.974352348 33.5517578125 527.602539062 33.5517578125 c 128,-1,13
527.602539062 33.5517578125 m 1024,24,-1
750.611328125 400.302734375 m 2,25,26
 761.330609745 400.302734375 761.330609745 400.302734375 768.904318196 392.632418468 c 128,-1,27
 776.478026647 384.962102561 776.478026647 384.962102561 776.470703125 374.109375 c 128,-1,28
 776.470703125 363.252264613 776.470703125 363.252264613 768.908977403 355.581698713 c 128,-1,29
 761.347251681 347.911132812 761.347251681 347.911132812 750.639648438 347.911132812 c 2,30,-1
 527.236328125 347.911132812 l 2,31,32
 515.413453161 347.911132812 515.413453161 347.911132812 507.625 357.212890625 c 0,33,34
 501.405273438 364.526475029 501.405273438 364.526475029 501.405273438 373.740234375 c 0,35,-1
 501.393554688 374.108398438 l 1,36,-1
 501.393554688 636.455078125 l 2,37,38
 501.401609629 647.162291733 501.401609629 647.162291733 509.073437686 654.71542321 c 128,-1,39
 516.745265744 662.268554688 516.745265744 662.268554688 527.603515625 662.268554688 c 128,-1,40
 538.450016753 662.268554688 538.450016753 662.268554688 546.129793533 654.708126057 c 128,-1,41
 553.809570312 647.147697427 553.809570312 647.147697427 553.809570312 636.455078125 c 2,42,-1
 553.796875 400.302734375 l 1,43,-1
 750.611328125 400.302734375 l 2,25,26
750.611328125 400.302734375 m 1024,44,-1
EndSplineSet
Validated: 33
EndChar

StartChar: uniE61E
Encoding: 58910 58910 29
Width: 1024
VWidth: 0
LayerCount: 2
Fore
SplineSet
676.791015625 102.512695312 m 1,0,-1
 676.787109375 28.03515625 l 1,1,-1
 862.971679688 28.03515625 l 1,2,-1
 862.971679688 -27.8232421875 l 1,3,-1
 192.66015625 -27.8232421875 l 1,4,-1
 192.66015625 28.03515625 l 1,5,-1
 378.860351562 28.03515625 l 1,6,-1
 378.860351562 102.512695312 l 2,7,8
 378.860351562 110.229259432 378.860351562 110.229259432 384.317264945 115.681035966 c 128,-1,9
 389.774178327 121.1328125 389.774178327 121.1328125 397.485351562 121.1328125 c 2,10,-1
 658.166992188 121.1328125 l 2,11,12
 665.878804738 121.1328125 665.878804738 121.1328125 671.334910181 115.681448575 c 128,-1,13
 676.791015625 110.230084651 676.791015625 110.230084651 676.791015625 102.512695312 c 1,0,-1
900.235351562 828.678710938 m 2,14,15
 923.384078219 828.673828125 923.384078219 828.673828125 939.741355516 812.323464552 c 128,-1,16
 956.098632812 795.973100979 956.098632812 795.973100979 956.098632812 772.8203125 c 2,17,-1
 956.098632812 251.469726562 l 2,18,19
 956.098632812 228.335076541 956.098632812 228.335076541 939.738339176 211.973202333 c 128,-1,20
 923.378045539 195.611328125 923.378045539 195.611328125 900.235351562 195.611328125 c 2,21,-1
 155.421875 195.611328125 l 2,22,23
 132.279291616 195.611328125 132.279291616 195.611328125 115.918942683 211.974245526 c 128,-1,24
 99.55859375 228.337162926 99.55859375 228.337162926 99.55859375 251.469726562 c 2,25,-1
 99.55859375 772.8203125 l 2,26,27
 99.55859375 795.973171668 99.55859375 795.973171668 115.915906754 812.325941303 c 128,-1,28
 132.273219757 828.678710938 132.273219757 828.678710938 155.421875 828.678710938 c 2,29,-1
 900.235351562 828.678710938 l 2,14,15
900.235351562 270.127929688 m 2,30,-1
 900.235351562 754.233398438 l 2,31,32
 900.235351562 761.949114137 900.235351562 761.949114137 894.779594391 767.401314881 c 128,-1,33
 889.32383722 772.853515625 889.32383722 772.853515625 881.616210938 772.853515625 c 2,34,-1
 174.04296875 772.853515625 l 2,35,36
 166.322567301 772.853515625 166.322567301 772.853515625 160.872709432 767.404447762 c 128,-1,37
 155.422851562 761.955379899 155.422851562 761.955379899 155.422851562 754.233398438 c 2,38,-1
 155.422851562 270.127929688 l 2,39,40
 155.422851562 262.40876685 155.422851562 262.40876685 160.873131221 256.958289675 c 128,-1,41
 166.323410879 251.5078125 166.323410879 251.5078125 174.04296875 251.5078125 c 2,42,-1
 881.616210938 251.5078125 l 2,43,44
 889.324006027 251.5078125 889.324006027 251.5078125 894.779678795 256.959731319 c 128,-1,45
 900.235351562 262.411650138 900.235351562 262.411650138 900.235351562 270.127929688 c 2,30,-1
269.982421875 324.842773438 m 1,46,-1
 301.703125 324.842773438 l 1,47,-1
 301.703125 622.396484375 l 1,48,-1
 467.875976562 647.323242188 l 1,49,-1
 493.99609375 638.517578125 l 1,50,-1
 516.252929688 464.106445312 l 1,51,-1
 524.861328125 456.654296875 l 1,52,-1
 524.861328125 729.390625 l 1,53,-1
 691.033203125 754.317382812 l 1,54,-1
 761.044921875 730.7265625 l 1,55,-1
 761.044921875 324.841796875 l 1,56,-1
 785.678710938 324.841796875 l 1,57,-1
 785.678710938 284.48046875 l 1,58,-1
 650.686523438 284.48046875 l 1,59,-1
 650.686523438 707.4921875 l 1,60,-1
 565.229492188 694.6796875 l 1,61,-1
 565.229492188 284.481445312 l 1,62,-1
 427.518554688 284.481445312 l 1,63,-1
 427.518554688 600.50390625 l 1,64,-1
 342.076171875 587.69140625 l 1,65,-1
 342.076171875 284.481445312 l 1,66,-1
 269.987304688 284.481445312 l 1,67,-1
 269.987304688 324.84765625 l 1,68,-1
 269.982421875 324.842773438 l 1,46,-1
614.52734375 626.44921875 m 1,69,-1
 614.52734375 626.453125 l 2,70,71
 616.942851271 626.71495864 616.942851271 626.71495864 624.1875 627.4921875 c 0,72,73
 632.945909918 628.433326628 632.945909918 628.433326628 633.950195312 628.543945312 c 2,74,-1
 633.950195312 597.13671875 l 1,75,76
 628.182076872 596.575617734 628.182076872 596.575617734 624.1875 596.2109375 c 0,77,78
 622.314889841 596.040031405 622.314889841 596.040031405 618.87146506 595.713949513 c 128,-1,79
 615.428040278 595.387867621 615.428040278 595.387867621 614.52734375 595.303710938 c 2,80,-1
 614.52734375 626.44921875 l 1,69,-1
614.52734375 681.33984375 m 1,81,-1
 614.52734375 681.345703125 l 2,82,83
 615.954299158 681.535673372 615.954299158 681.535673372 619.202243171 681.959874544 c 128,-1,84
 622.450187185 682.384075717 622.450187185 682.384075717 624.1875 682.6171875 c 0,85,86
 624.985710823 682.722475194 624.985710823 682.722475194 633.950195312 683.899414062 c 1,87,-1
 633.950195312 652.42578125 l 1,88,89
 628.64402766 651.810733808 628.64402766 651.810733808 624.1875 651.270507812 c 0,90,91
 621.988330633 651.021946512 621.988330633 651.021946512 614.52734375 650.12890625 c 1,92,-1
 614.52734375 681.33984375 l 1,81,-1
614.52734375 571.611328125 m 1,93,-1
 614.52734375 571.611328125 l 1,94,95
 615.316398339 571.677102752 615.316398339 571.677102752 618.808859684 571.971845323 c 128,-1,96
 622.301321029 572.266587894 622.301321029 572.266587894 624.1875 572.419921875 c 0,97,98
 629.986083225 572.923994307 629.986083225 572.923994307 633.950195312 573.243164062 c 2,99,-1
 633.950195312 541.834960938 l 2,100,101
 631.702790989 541.674191816 631.702790989 541.674191816 624.1875 541.142578125 c 0,102,103
 622.537248526 541.032361874 622.537248526 541.032361874 619.313172506 540.800570348 c 128,-1,104
 616.089096486 540.568778822 616.089096486 540.568778822 614.52734375 540.463867188 c 2,105,-1
 614.52734375 571.611328125 l 1,93,-1
614.52734375 516.770507812 m 1,106,-1
 614.52734375 516.770507812 l 1,107,108
 615.663066524 516.8405585 615.663066524 516.8405585 619.008996637 517.046130418 c 128,-1,109
 622.354926749 517.251702336 622.354926749 517.251702336 624.1875 517.365234375 c 0,110,111
 624.692388943 517.396018428 624.692388943 517.396018428 628.356055348 517.618474934 c 128,-1,112
 632.019721753 517.840931439 632.019721753 517.840931439 633.950195312 517.959960938 c 2,113,-1
 633.950195312 486.545898438 l 2,114,115
 632.119310581 486.464793696 632.119310581 486.464793696 628.767611897 486.30279702 c 128,-1,116
 625.415913212 486.140800343 625.415913212 486.140800343 624.1875 486.083984375 c 0,117,118
 622.353499224 486.001401687 622.353499224 486.001401687 619.004964285 485.840063185 c 128,-1,119
 615.656429345 485.678724683 615.656429345 485.678724683 614.52734375 485.625976562 c 2,120,-1
 614.52734375 516.770507812 l 1,106,-1
614.52734375 461.931640625 m 1,121,-1
 614.52734375 461.931640625 l 1,122,123
 617.929821593 462.070856512 617.929821593 462.070856512 624.1875 462.295898438 c 0,124,125
 628.734899675 462.479825862 628.734899675 462.479825862 633.950195312 462.655273438 c 1,126,-1
 633.950195312 431.248046875 l 2,127,128
 632.361900209 431.20734563 632.361900209 431.20734563 629.104426635 431.132567917 c 128,-1,129
 625.84695306 431.057790204 625.84695306 431.057790204 624.1875 431.014648438 c 0,130,131
 621.370708657 430.957614584 621.370708657 430.957614584 614.52734375 430.784179688 c 1,132,-1
 614.52734375 461.931640625 l 1,121,-1
579.66796875 622.690429688 m 1,133,-1
 579.66796875 622.6953125 l 2,134,135
 582.467560924 622.990330864 582.467560924 622.990330864 589.033203125 623.71484375 c 0,136,137
 590.745537336 623.892548818 590.745537336 623.892548818 593.934215026 624.234087019 c 128,-1,138
 597.122892715 624.575625219 597.122892715 624.575625219 598.49609375 624.719726562 c 2,139,-1
 598.49609375 593.788085938 l 2,140,141
 594.714752907 593.430959302 594.714752907 593.430959302 589.033203125 592.899414062 c 0,142,143
 587.793191714 592.780710133 587.793191714 592.780710133 584.59349159 592.476964867 c 128,-1,144
 581.393791465 592.173219602 581.393791465 592.173219602 579.66796875 592.006835938 c 2,145,-1
 579.66796875 622.690429688 l 1,133,-1
579.66796875 676.776367188 m 1,146,-1
 579.66796875 676.776367188 l 1,147,148
 582.369984591 677.135049378 582.369984591 677.135049378 589.033203125 678.009765625 c 0,149,150
 597.645126242 679.138187546 597.645126242 679.138187546 598.49609375 679.249023438 c 2,151,-1
 598.49609375 648.247070312 l 2,152,153
 597.225102714 648.095649775 597.225102714 648.095649775 593.998823483 647.718406392 c 128,-1,154
 590.772544253 647.341163008 590.772544253 647.341163008 589.033203125 647.130859375 c 0,155,156
 580.720305266 646.164002218 580.720305266 646.164002218 579.66796875 646.041992188 c 2,157,-1
 579.66796875 676.776367188 l 1,146,-1
579.66796875 568.674804688 m 1,158,-1
 579.66796875 568.674804688 l 1,159,160
 581.143061396 568.798695765 581.143061396 568.798695765 584.272710872 569.063373015 c 128,-1,161
 587.402360348 569.328050265 587.402360348 569.328050265 589.033203125 569.46484375 c 0,162,163
 591.879838016 569.702284818 591.879838016 569.702284818 598.49609375 570.259765625 c 1,164,-1
 598.49609375 539.329101562 l 1,165,166
 593.958292356 539.018178134 593.958292356 539.018178134 589.033203125 538.651367188 c 0,167,168
 587.2602183 538.531399084 587.2602183 538.531399084 584.02147201 538.300114288 c 128,-1,169
 580.78272572 538.068829492 580.78272572 538.068829492 579.66796875 537.991210938 c 2,170,-1
 579.66796875 568.674804688 l 1,158,-1
579.66796875 514.663085938 m 1,171,-1
 579.66796875 514.663085938 l 1,172,173
 581.096438854 514.753404431 581.096438854 514.753404431 584.234526904 514.944721351 c 128,-1,174
 587.372614953 515.136038272 587.372614953 515.136038272 589.033203125 515.2421875 c 0,175,176
 593.129932134 515.475521272 593.129932134 515.475521272 598.49609375 515.818359375 c 1,177,-1
 598.49609375 484.8671875 l 1,178,179
 594.403587369 484.678982731 594.403587369 484.678982731 589.033203125 484.422851562 c 0,180,181
 584.548518271 484.208895597 584.548518271 484.208895597 579.66796875 483.973632812 c 1,182,-1
 579.66796875 514.663085938 l 1,171,-1
579.66796875 460.641601562 m 1,183,-1
 579.66796875 460.647460938 l 2,184,185
 581.315836607 460.706035668 581.315836607 460.706035668 584.455339554 460.821377369 c 128,-1,186
 587.5948425 460.93671907 587.5948425 460.93671907 589.033203125 460.98828125 c 0,187,188
 595.793883409 461.24078098 595.793883409 461.24078098 598.49609375 461.352539062 c 2,189,-1
 598.49609375 430.401367188 l 2,190,191
 597.464063969 430.375884971 597.464063969 430.375884971 594.146013366 430.298905991 c 128,-1,192
 590.827962763 430.221927012 590.827962763 430.221927012 589.033203125 430.173828125 c 0,193,194
 582.59479183 430.037310517 582.59479183 430.037310517 579.66796875 429.958007812 c 2,195,-1
 579.66796875 460.641601562 l 1,183,-1
614.52734375 406.461914062 m 1,196,-1
 614.52734375 406.461914062 l 1,197,198
 616.180293742 406.478065024 616.180293742 406.478065024 624.1875 406.591796875 c 0,199,200
 625.691728661 406.607234175 625.691728661 406.607234175 628.955981246 406.649868911 c 128,-1,201
 632.22023383 406.692503646 632.22023383 406.692503646 633.950195312 406.708984375 c 2,202,-1
 633.950195312 375.329101562 l 1,203,-1
 624.1875 375.329101562 l 1,204,-1
 614.52734375 375.329101562 l 1,205,-1
 614.52734375 406.461914062 l 1,196,-1
579.66796875 405.985351562 m 1,206,-1
 579.66796875 405.985351562 l 1,207,208
 581.011231689 406.005633608 581.011231689 406.005633608 584.170743769 406.046627746 c 128,-1,209
 587.330255848 406.087621884 587.330255848 406.087621884 589.033203125 406.115234375 c 128,-1,210
 590.685800519 406.132207831 590.685800519 406.132207831 593.853623142 406.172396808 c 128,-1,211
 597.021445765 406.212585786 597.021445765 406.212585786 598.49609375 406.228515625 c 2,212,-1
 598.49609375 375.329101562 l 1,213,-1
 589.033203125 375.329101562 l 1,214,-1
 579.66796875 375.329101562 l 1,215,-1
 579.66796875 405.985351562 l 1,206,-1
356.318359375 519.0625 m 1,216,-1
 356.318359375 519.06640625 l 2,217,218
 357.4754413 519.183574483 357.4754413 519.183574483 360.679380131 519.505831414 c 128,-1,219
 363.883318963 519.828088345 363.883318963 519.828088345 365.646484375 520.0078125 c 0,220,221
 367.089202819 520.151230133 367.089202819 520.151230133 370.253331907 520.456138456 c 128,-1,222
 373.417460994 520.761046778 373.417460994 520.761046778 375.078125 520.927734375 c 2,223,-1
 375.078125 489.91796875 l 2,224,225
 373.395624077 489.774788341 373.395624077 489.774788341 370.221968117 489.508328196 c 128,-1,226
 367.048312156 489.241868052 367.048312156 489.241868052 365.646484375 489.123046875 c 0,227,228
 363.953482184 488.978023468 363.953482184 488.978023468 360.804853932 488.718416636 c 128,-1,229
 357.65622568 488.458809803 357.65622568 488.458809803 356.318359375 488.345703125 c 2,230,-1
 356.318359375 519.0625 l 1,216,-1
391.107421875 522.522460938 m 1,231,-1
 391.107421875 522.52734375 l 2,232,233
 392.844515481 522.69328135 392.844515481 522.69328135 396.102076966 523.017191506 c 128,-1,234
 399.359638452 523.341101662 399.359638452 523.341101662 400.80078125 523.48046875 c 0,235,236
 402.512459166 523.654274667 402.512459166 523.654274667 405.794775833 523.977157664 c 128,-1,237
 409.077092501 524.300040661 409.077092501 524.300040661 410.596679688 524.453125 c 2,238,-1
 410.596679688 492.876953125 l 1,239,240
 403.076785071 492.239711685 403.076785071 492.239711685 400.80078125 492.0546875 c 0,241,242
 398.962063745 491.905767497 398.962063745 491.905767497 395.593522485 491.621725785 c 128,-1,243
 392.224981224 491.337684074 392.224981224 491.337684074 391.107421875 491.245117188 c 2,244,-1
 391.107421875 522.522460938 l 1,231,-1
391.107421875 577.529296875 m 1,245,-1
 391.107421875 577.529296875 l 1,246,247
 392.568356823 577.713459473 392.568356823 577.713459473 395.811996097 578.128712133 c 128,-1,248
 399.055635372 578.543964794 399.055635372 578.543964794 400.80078125 578.762695312 c 0,249,250
 402.064814102 578.926190647 402.064814102 578.926190647 405.406797361 579.35147484 c 128,-1,251
 408.74878062 579.776759033 408.74878062 579.776759033 410.578125 580.016601562 c 2,252,-1
 410.578125 548.407226562 l 2,253,254
 410.420489261 548.389048663 410.420489261 548.389048663 400.80078125 547.3046875 c 0,255,256
 392.911010611 546.424111663 392.911010611 546.424111663 391.107421875 546.234375 c 2,257,-1
 391.107421875 577.529296875 l 1,245,-1
391.107421875 467.534179688 m 1,258,-1
 391.107421875 467.540039062 l 2,259,260
 392.543018031 467.635080041 392.543018031 467.635080041 394.159007433 467.750350209 c 128,-1,261
 395.774996835 467.865620377 395.774996835 467.865620377 397.74854465 468.010066457 c 128,-1,262
 399.722092466 468.154512537 399.722092466 468.154512537 400.80078125 468.231445312 c 0,263,264
 402.618717499 468.362749865 402.618717499 468.362749865 405.990224684 468.598891458 c 128,-1,265
 409.36173187 468.835033051 409.36173187 468.835033051 410.596679688 468.922851562 c 2,266,-1
 410.596679688 437.346679688 l 2,267,268
 410.212660755 437.325515977 410.212660755 437.325515977 406.466898949 437.113560402 c 128,-1,269
 402.721137143 436.901604827 402.721137143 436.901604827 400.80078125 436.8046875 c 0,270,271
 399.774581243 436.74514371 399.774581243 436.74514371 391.107421875 436.2578125 c 1,272,-1
 391.107421875 467.534179688 l 1,258,-1
391.107421875 412.544921875 m 1,273,-1
 391.107421875 412.544921875 l 1,274,275
 395.953125 412.748535156 395.953125 412.748535156 400.80078125 412.974609375 c 0,276,277
 402.17050387 413.030491078 402.17050387 413.030491078 405.481648171 413.173549936 c 128,-1,278
 408.792792471 413.316608794 408.792792471 413.316608794 410.596679688 413.387695312 c 2,279,-1
 410.596679688 381.815429688 l 2,280,281
 409.061686654 381.767674349 409.061686654 381.767674349 405.782553736 381.67575666 c 128,-1,282
 402.503420818 381.583838971 402.503420818 381.583838971 400.80078125 381.529296875 c 0,283,284
 395.413475263 381.399050734 395.413475263 381.399050734 391.107421875 381.267578125 c 1,285,-1
 391.107421875 412.544921875 l 1,273,-1
391.107421875 357.556640625 m 1,286,-1
 391.107421875 357.556640625 l 1,287,288
 392.893086958 357.585789934 392.893086958 357.585789934 396.179778278 357.635833488 c 128,-1,289
 399.466469598 357.685877042 399.466469598 357.685877042 400.80078125 357.70703125 c 0,290,291
 401.876801652 357.723615427 401.876801652 357.723615427 405.290974457 357.775240766 c 128,-1,292
 408.705147261 357.826866105 408.705147261 357.826866105 410.578125 357.856445312 c 2,293,-1
 410.578125 326.330078125 l 1,294,-1
 400.80078125 326.330078125 l 1,295,-1
 391.107421875 326.330078125 l 1,296,-1
 391.107421875 357.556640625 l 1,286,-1
356.318359375 573.112304688 m 1,297,-1
 356.318359375 573.112304688 l 1,298,299
 357.217425849 573.226035178 357.217425849 573.226035178 360.526103785 573.646964738 c 128,-1,300
 363.834781721 574.067894298 363.834781721 574.067894298 365.646484375 574.294921875 c 0,301,302
 372.785857801 575.200414235 372.785857801 575.200414235 375.078125 575.501953125 c 2,303,-1
 375.078125 544.452148438 l 2,304,305
 373.517517832 544.279936799 373.517517832 544.279936799 370.368306489 543.924951661 c 128,-1,306
 367.219095146 543.569966523 367.219095146 543.569966523 365.646484375 543.396484375 c 0,307,308
 363.660413531 543.177323191 363.660413531 543.177323191 356.318359375 542.357421875 c 1,309,-1
 356.318359375 573.112304688 l 1,297,-1
356.318359375 465.045898438 m 1,310,-1
 356.318359375 465.045898438 l 1,311,312
 357.794527721 465.155330476 357.794527721 465.155330476 360.906700614 465.379340406 c 128,-1,313
 364.018873507 465.603350336 364.018873507 465.603350336 365.646484375 465.724609375 c 0,314,315
 370.005652511 466.023461662 370.005652511 466.023461662 375.078125 466.401367188 c 1,316,-1
 375.078125 435.369140625 l 2,317,318
 373.309558673 435.264945165 373.309558673 435.264945165 370.052457337 435.08692699 c 128,-1,319
 366.795356002 434.908908815 366.795356002 434.908908815 365.646484375 434.84375 c 0,320,321
 364.247015734 434.768279902 364.247015734 434.768279902 361.114441562 434.592771071 c 128,-1,322
 357.981867391 434.41726224 357.981867391 434.41726224 356.318359375 434.329101562 c 2,323,-1
 356.318359375 465.045898438 l 1,310,-1
356.318359375 411.029296875 m 1,324,-1
 356.318359375 411.029296875 l 1,325,326
 362.379447793 411.285506922 362.379447793 411.285506922 365.646484375 411.443359375 c 0,327,328
 371.507062255 411.688082789 371.507062255 411.688082789 375.078125 411.858398438 c 2,329,-1
 375.078125 380.82421875 l 2,330,331
 373.423999817 380.782968745 373.423999817 380.782968745 370.262151778 380.691047433 c 128,-1,332
 367.100303739 380.59912612 367.100303739 380.59912612 365.646484375 380.561523438 c 128,-1,333
 364.02412826 380.518031347 364.02412826 380.518031347 360.912918128 380.427086025 c 128,-1,334
 357.801707996 380.336140703 357.801707996 380.336140703 356.318359375 380.295898438 c 2,335,-1
 356.318359375 411.029296875 l 1,324,-1
356.318359375 357.013671875 m 1,336,337
 363.144678657 357.119189113 363.144678657 357.119189113 365.646484375 357.146484375 c 0,338,339
 366.861574602 357.166174214 366.861574602 357.166174214 370.094002467 357.216293259 c 128,-1,340
 373.326430332 357.266412305 373.326430332 357.266412305 375.078125 357.295898438 c 2,341,-1
 375.078125 326.33203125 l 1,342,-1
 365.646484375 326.33203125 l 1,343,-1
 356.318359375 326.33203125 l 1,344,-1
 356.318359375 357.013671875 l 1,336,337
356.318359375 357.013671875 m 1024,345,-1
EndSplineSet
Validated: 3077
EndChar

StartChar: uniE61F
Encoding: 58911 58911 30
Width: 1024
VWidth: 0
LayerCount: 2
Fore
SplineSet
562.861328125 796.33203125 m 2,0,-1
 562.861328125 725.362304688 l 1,1,-1
 505.486328125 725.362304688 l 1,2,-1
 505.486328125 796.33203125 l 2,3,4
 505.486328125 807.91110288 505.486328125 807.91110288 513.944769089 815.696762377 c 128,-1,5
 522.403210052 823.482421875 522.403210052 823.482421875 534.5859375 823.482421875 c 0,6,7
 546.010560796 823.482421875 546.010560796 823.482421875 554.357331179 815.647758432 c 128,-1,8
 562.704101562 807.813094988 562.704101562 807.813094988 562.861328125 796.33203125 c 2,0,-1
903.90625 566.399414062 m 1,9,-1
 856.34765625 531.190429688 l 1,10,-1
 828.231445312 578.822265625 l 1,11,-1
 875.424804688 614.15234375 l 2,12,13
 880.413085938 617.0234375 880.413085938 617.0234375 891.19140625 617.0234375 c 0,14,15
 905.113537532 615.517345364 905.113537532 615.517345364 912.911132812 603.333984375 c 0,16,17
 918.633255369 592.955277651 918.633255369 592.955277651 915.830322266 582.239135742 c 128,-1,18
 913.027389163 571.522993833 913.027389163 571.522993833 903.90625 566.399414062 c 1,9,-1
332.19140625 665.979492188 m 1,19,-1
 296.016601562 727.266601562 l 2,20,21
 290.163141064 737.617312124 290.163141064 737.617312124 293.142822266 747.965820312 c 128,-1,22
 296.122503467 758.314328501 296.122503467 758.314328501 306.052734375 764.26171875 c 0,23,24
 312.84367953 768.069335938 312.84367953 768.069335938 322.16015625 768.069335938 c 0,25,26
 336.39428236 766.573676682 336.39428236 766.573676682 344.359375 754.416992188 c 2,27,-1
 381.512695312 693.133789062 l 1,28,-1
 332.19140625 665.979492188 l 1,19,-1
773.975585938 727.267578125 m 2,29,-1
 736.817382812 666.143554688 l 1,30,-1
 687.4921875 693.2890625 l 1,31,-1
 723.662109375 754.573242188 l 2,32,33
 729.954254643 763.625207322 729.954254643 763.625207322 741.030761719 766.682495117 c 128,-1,34
 752.107268795 769.739782912 752.107268795 769.739782912 762.9609375 764.262695312 c 0,35,36
 773.476442103 759.122173946 773.476442103 759.122173946 776.728149414 748.323486328 c 128,-1,37
 779.979856725 737.52479871 779.979856725 737.52479871 773.975585938 727.267578125 c 2,29,-1
241.762695312 577.709960938 m 1,38,-1
 213.646484375 529.918945312 l 1,39,-1
 149.197265625 565.797851562 l 2,40,41
 138.740421328 571.624507237 138.740421328 571.624507237 135.922607422 582.095092773 c 128,-1,42
 133.104793516 592.56567831 133.104793516 592.56567831 139.166992188 602.791992188 c 0,43,44
 148.361386516 618.083131172 148.361386516 618.083131172 167.282226562 616.44921875 c 0,45,46
 172.87212129 616.44921875 172.87212129 616.44921875 177.313476562 613.587890625 c 2,47,-1
 241.762695312 577.709960938 l 1,38,-1
807.987304688 379.314453125 m 2,48,-1
 807.987304688 90.2041015625 l 1,49,-1
 272.12890625 90.2041015625 l 1,50,-1
 272.12890625 379.314453125 l 2,51,52
 272.12890625 481.638389533 272.12890625 481.638389533 350.635829447 553.849468204 c 128,-1,53
 429.142752643 626.060546875 429.142752643 626.060546875 540.057617188 626.060546875 c 128,-1,54
 650.877880081 626.060546875 650.877880081 626.060546875 729.432592384 553.836408006 c 128,-1,55
 807.987304688 481.612269138 807.987304688 481.612269138 807.987304688 379.314453125 c 2,48,-1
751.577148438 146.611328125 m 1,56,-1
 751.577148438 391.44921875 l 2,57,58
 751.577148438 463.187636481 751.577148438 463.187636481 685.077922806 516.42194324 c 128,-1,59
 618.578697174 569.65625 618.578697174 569.65625 540.057617188 569.65625 c 128,-1,60
 461.471175906 569.65625 461.471175906 569.65625 395.002189515 516.427871827 c 128,-1,61
 328.533203125 463.199493653 328.533203125 463.199493653 328.533203125 391.44921875 c 2,62,-1
 328.533203125 146.611328125 l 1,63,-1
 751.577148438 146.611328125 l 1,56,-1
906.697265625 33.7978515625 m 2,64,65
 912.537109375 33.7978515625 912.537109375 33.7978515625 916.666992188 29.66796875 c 128,-1,66
 920.796875 25.5380859375 920.796875 25.5380859375 920.796875 19.6943359375 c 2,67,-1
 920.796875 -8.509765625 l 2,68,69
 920.796875 -14.3476209858 920.796875 -14.3476209858 916.665789051 -18.4775214304 c 128,-1,70
 912.534703103 -22.607421875 912.534703103 -22.607421875 906.693359375 -22.607421875 c 2,71,-1
 173.418945312 -22.607421875 l 2,72,73
 167.576473973 -22.607421875 167.576473973 -22.607421875 163.44595183 -18.4776900359 c 128,-1,74
 159.315429688 -14.3479581968 159.315429688 -14.3479581968 159.315429688 -8.509765625 c 2,75,-1
 159.315429688 19.6943359375 l 2,76,77
 159.315429688 25.5387251922 159.315429688 25.5387251922 163.445387971 29.6682883773 c 128,-1,78
 167.575346254 33.7978515625 167.575346254 33.7978515625 173.418945312 33.7978515625 c 2,79,-1
 906.697265625 33.7978515625 l 2,64,65
645.479492188 482.178710938 m 0,80,81
 657.351961322 478.336106336 657.351961322 478.336106336 662.907226562 467.296875 c 128,-1,82
 668.418449752 456.280488239 668.418449752 456.280488239 664.337890625 444.556640625 c 2,83,-1
 621.607421875 288.987304688 l 2,84,85
 618.175084992 279.114226252 618.175084992 279.114226252 609.189453125 273.3984375 c 0,86,87
 601.357673591 268.416750538 601.357673591 268.416750538 592.092773438 268.541992188 c 2,88,-1
 480.303710938 323.228515625 l 1,89,-1
 446.803710938 231.274414062 l 1,90,91
 445.66709635 216.384762967 445.66709635 216.384762967 432.80078125 208.205078125 c 0,92,93
 424.30271353 202.803460239 424.30271353 202.803460239 414.21484375 203.422851562 c 0,94,95
 401.681785354 204.208044631 401.681785354 204.208044631 393.469821108 213.476869128 c 128,-1,96
 385.257856862 222.745693624 385.257856862 222.745693624 386.204101562 235.041015625 c 2,97,-1
 440.385742188 361.001953125 l 1,98,99
 441.548401126 375.890745403 441.548401126 375.890745403 454.392578125 384.065429688 c 0,100,101
 462.222243724 389.040872519 462.222243724 389.040872519 471.462890625 388.908203125 c 1,102,-1
 571.389648438 328.822265625 l 1,103,-1
 606.87109375 463.2421875 l 2,104,105
 610.328314594 473.138948852 610.328314594 473.138948852 619.263671875 478.81640625 c 0,106,107
 631.62631073 486.686333694 631.62631073 486.686333694 645.479492188 482.178710938 c 0,80,81
645.479492188 482.178710938 m 1024,108,-1
EndSplineSet
Validated: 2049
EndChar

StartChar: uniE620
Encoding: 58912 58912 31
Width: 1024
VWidth: 0
LayerCount: 2
Fore
SplineSet
103.576171875 569.663085938 m 1,0,-1
 103.576171875 626.608398438 l 1,1,-1
 216.275390625 626.608398438 l 1,2,-1
 216.275390625 569.663085938 l 1,3,-1
 103.576171875 569.663085938 l 1,0,-1
103.576171875 174.244140625 m 1,4,-1
 103.576171875 231.189453125 l 1,5,-1
 216.275390625 231.189453125 l 1,6,-1
 216.275390625 174.244140625 l 1,7,-1
 103.576171875 174.244140625 l 1,4,-1
867.111328125 824.614257812 m 2,8,9
 902.253360113 824.614257812 902.253360113 824.614257812 927.102265994 799.766142216 c 128,-1,10
 951.951171875 774.918026619 951.951171875 774.918026619 951.951171875 739.775390625 c 2,11,-1
 951.951171875 61.0732421875 l 2,12,13
 951.951171875 25.9354890058 951.951171875 25.9354890058 927.101777697 1.08688512792 c 128,-1,14
 902.25238352 -23.76171875 902.25238352 -23.76171875 867.111328125 -23.76171875 c 2,15,-1
 216.690429688 -23.76171875 l 1,16,-1
 216.690429688 824.614257812 l 1,17,-1
 867.111328125 824.614257812 l 2,8,9
895.390625 89.3564453125 m 2,18,-1
 895.390625 711.49609375 l 2,19,20
 895.390625 734.923073115 895.390625 734.923073115 878.825816986 751.48985687 c 128,-1,21
 862.261008972 768.056640625 862.261008972 768.056640625 838.834960938 768.056640625 c 2,22,-1
 273.250976562 768.056640625 l 1,23,-1
 273.250976562 32.7978515625 l 1,24,-1
 838.834960938 32.7978515625 l 2,25,26
 862.261927623 32.7978515625 862.261927623 32.7978515625 878.826276312 49.3633856766 c 128,-1,27
 895.390625 65.9289197907 895.390625 65.9289197907 895.390625 89.3564453125 c 2,18,-1
640.880859375 570.099609375 m 1,28,-1
 697.4375 570.099609375 l 1,29,-1
 640.879882812 428.70703125 l 1,30,-1
 697.4375 428.70703125 l 1,31,-1
 697.4375 400.427734375 l 1,32,-1
 612.602539062 400.427734375 l 1,33,-1
 612.602539062 343.8671875 l 1,34,-1
 697.436523438 343.8671875 l 1,35,-1
 697.436523438 315.587890625 l 1,36,-1
 612.6015625 315.587890625 l 1,37,-1
 612.6015625 230.752929688 l 1,38,-1
 556.040039062 230.752929688 l 1,39,-1
 556.040039062 315.587890625 l 1,40,-1
 471.205078125 315.587890625 l 1,41,-1
 471.205078125 343.8671875 l 1,42,-1
 556.040039062 343.8671875 l 1,43,-1
 556.040039062 400.427734375 l 1,44,-1
 471.205078125 400.427734375 l 1,45,-1
 471.205078125 428.70703125 l 1,46,-1
 527.762695312 428.70703125 l 1,47,-1
 471.205078125 570.099609375 l 1,48,-1
 527.762695312 570.099609375 l 1,49,-1
 584.323242188 428.70703125 l 1,50,-1
 640.880859375 570.099609375 l 1,28,-1
640.880859375 570.099609375 m 1024,51,-1
EndSplineSet
Validated: 1
EndChar

StartChar: uniE621
Encoding: 58913 58913 32
Width: 1024
VWidth: 0
LayerCount: 2
Fore
SplineSet
909.350585938 151.982421875 m 0,0,1
 889.249930854 120.424158847 889.249930854 120.424158847 855.51953125 101.40234375 c 128,-1,2
 821.77548681 82.4091796875 821.77548681 82.4091796875 784.078125 82.4091796875 c 128,-1,3
 746.514861896 82.4091796875 746.514861896 82.4091796875 712.587890625 101.454101562 c 128,-1,4
 678.61899196 120.566567044 678.61899196 120.566567044 658.75390625 151.924804688 c 0,5,6
 655.924804688 156.642371096 655.924804688 156.642371096 655.924804688 161.368164062 c 128,-1,7
 655.924804688 165.970213313 655.924804688 165.970213313 658.75390625 170.8125 c 0,8,9
 678.912138381 202.292740726 678.912138381 202.292740726 712.587890625 221.287109375 c 128,-1,10
 746.438041767 240.33203125 746.438041767 240.33203125 784.078125 240.33203125 c 128,-1,11
 821.667915114 240.33203125 821.667915114 240.33203125 855.51953125 221.287109375 c 128,-1,12
 889.486751836 202.171452976 889.486751836 202.171452976 909.350585938 170.8125 c 0,13,14
 912.182617188 166.254497445 912.182617188 166.254497445 912.182617188 161.426757812 c 0,15,16
 912.182617188 156.827191784 912.182617188 156.827191784 909.350585938 151.982421875 c 0,0,1
753.237304688 208.482421875 m 128,-1,18
 740.435056096 196.24112297 740.435056096 196.24112297 740.436523438 179.084960938 c 0,19,20
 740.436523438 176.413050192 740.436523438 176.413050192 742.461914062 174.390625 c 128,-1,21
 744.463276639 172.469726562 744.463276639 172.469726562 747.318359375 172.469726562 c 128,-1,22
 750.255361797 172.469726562 750.255361797 172.469726562 752.168945312 174.390625 c 128,-1,23
 754.196289062 176.331951239 754.196289062 176.331951239 754.196289062 179.084960938 c 0,24,25
 754.196289062 191.004412483 754.196289062 191.004412483 762.948242188 199.197265625 c 128,-1,26
 771.642898485 207.575195312 771.642898485 207.575195312 783.96875 207.575195312 c 0,27,28
 786.81620482 207.575195312 786.81620482 207.575195312 788.826171875 209.497070312 c 128,-1,29
 790.8515625 211.362327565 790.8515625 211.362327565 790.8515625 214.13671875 c 128,-1,30
 790.8515625 216.805121051 790.8515625 216.805121051 788.827148438 218.833984375 c 128,-1,31
 786.817181382 220.755859375 786.817181382 220.755859375 783.970703125 220.755859375 c 0,32,17
 766.072962803 220.755859375 766.072962803 220.755859375 753.237304688 208.482421875 c 128,-1,18
846.287109375 116.662109375 m 128,-1,34
 874.844102927 133.343844813 874.844102927 133.343844813 893.880859375 161.426757812 c 1,35,36
 872.037571458 193.947679877 872.037571458 193.947679877 839.35546875 209.817382812 c 1,37,38
 848.103515625 195.524840581 848.103515625 195.524840581 848.103515625 178.977539062 c 0,39,40
 848.103515625 153.580330992 848.103515625 153.580330992 829.322265625 135.600585938 c 128,-1,41
 810.479495763 117.563476562 810.479495763 117.563476562 784.078125 117.563476562 c 128,-1,42
 757.599030112 117.563476562 757.599030112 117.563476562 738.836914062 135.600585938 c 128,-1,43
 720.055664062 153.577531063 720.055664062 153.577531063 720.055664062 178.977539062 c 0,44,45
 720.055664062 195.653323564 720.055664062 195.653323564 728.803710938 209.817382812 c 1,46,47
 695.964461676 193.715888409 695.964461676 193.715888409 674.278320312 161.426757812 c 1,48,49
 693.349042139 133.291575204 693.349042139 133.291575204 721.977539062 116.662109375 c 128,-1,50
 750.622128212 100.01171875 750.622128212 100.01171875 784.133789062 100.01171875 c 128,-1,33
 817.642520225 100.01171875 817.642520225 100.01171875 846.287109375 116.662109375 c 128,-1,34
927.865234375 164.357421875 m 1,51,52
 930.923077167 164.357421875 930.923077167 164.357421875 934.046806138 164.354507496 c 128,-1,53
 937.170535108 164.351593116 937.170535108 164.351593116 939.714138195 164.346986104 c 128,-1,54
 942.257741282 164.342379091 942.257741282 164.342379091 944.625107659 164.336747155 c 128,-1,55
 946.992474036 164.331115219 946.992474036 164.331115219 948.746265109 164.325621308 c 128,-1,56
 950.500056181 164.320127398 950.500056181 164.320127398 951.82157609 164.315501938 c 128,-1,57
 953.143096 164.310876479 953.143096 164.310876479 953.817591184 164.308219705 c 0,58,-1
 954.4921875 125.997070312 l 2,59,60
 954.4921875 111.772790705 954.4921875 111.772790705 946.790749813 104.53385629 c 128,-1,61
 939.089312126 97.294921875 939.089312126 97.294921875 915.703125 97.294921875 c 2,62,-1
 876.165039062 97.294921875 l 1,63,64
 895.484831658 109.958831105 895.484831658 109.958831105 912.315589927 128.868336598 c 128,-1,65
 929.146348196 147.777842091 929.146348196 147.777842091 927.865234375 164.357421875 c 1,51,52
648.932617188 184.685546875 m 1,66,67
 611 154 611 154 686.919921875 97.240234375 c 1,68,-1
 605.95703125 112.790039062 l 1,69,-1
 686.865234375 97.2392578125 l 1,70,-1
 217.189453125 97.2392578125 l 1,71,-1
 127.771484375 97.2392578125 l 2,72,73
 112 97 112 97 108.493473735 105.905248482 c 0,74,75
 101 126 101 126 100.505859375 126.849609375 c 2,76,-1
 100.505859375 163.025390625 l 1,77,-1
 189.928710938 163.025390625 l 1,78,-1
 189.928710938 640.370117188 l 2,79,80
 190 653 190 653 197.899414062 661.317382812 c 0,81,82
 205.98086691 669.979492188 205.98086691 669.979492188 217.190429688 669.979492188 c 2,83,-1
 823.984375 669.979492188 l 2,84,85
 835 670 835 670 843.275390625 661.317382812 c 0,86,87
 851.247070312 652.73396993 851.247070312 652.73396993 851.247070312 640.370117188 c 2,88,-1
 851.247070312 244.3359375 l 1,89,90
 835 253 835 253 812.40625 258.26171875 c 1,91,-1
 812.40625 627.9921875 l 1,92,-1
 228.875976562 627.9921875 l 1,93,-1
 228.875976562 185.271484375 l 1,94,95
 634 185 634 185 648.932617188 184.685546875 c 1,66,67
577.916015625 143.125 m 1,96,-1
 577.916015625 162.330078125 l 1,97,-1
 466.248046875 162.330078125 l 1,98,-1
 466.248046875 143.125 l 1,99,-1
 577.916015625 143.125 l 1,96,-1
495.453125 406.315429688 m 0,100,101
 494.977885197 416.47265625 494.977885197 416.47265625 505.610351562 416.47265625 c 2,102,-1
 597.030273438 416.47265625 l 2,103,104
 607 416 607 416 607.189453125 406.315429688 c 0,105,106
 607.002887622 396.157226562 607.002887622 396.157226562 597.030273438 396.157226562 c 2,107,-1
 505.610351562 396.157226562 l 2,108,109
 495 396 495 396 495.453125 406.315429688 c 0,100,101
434.505859375 518.233398438 m 1,110,111
 435 534 435 534 446.810546875 546.438476562 c 0,112,113
 458.870173748 558.866210938 458.870173748 558.866210938 475.13671875 558.866210938 c 2,114,-1
 597.029296875 558.866210938 l 1,115,-1
 668.131835938 477.359375 l 1,116,-1
 668.131835938 457.288085938 l 1,117,-1
 668.131835938 315.079101562 l 2,118,119
 668 299 668 299 655.827148438 286.874023438 c 0,120,121
 644.411792546 274.448242188 644.411792546 274.448242188 627.500976562 274.448242188 c 2,122,-1
 617.342773438 274.448242188 l 1,123,124
 617 259 617 259 605.038085938 246.243164062 c 0,125,126
 592.820441727 233.817382812 592.820441727 233.817382812 576.712890625 233.817382812 c 2,127,-1
 424.344726562 233.817382812 l 2,128,129
 408 234 408 234 396.018554688 246.2421875 c 0,130,131
 383.713867188 259.303732759 383.713867188 259.303732759 383.713867188 274.448242188 c 2,132,-1
 383.713867188 477.602539062 l 2,133,134
 384 494 384 494 395.284179688 505.728515625 c 0,135,136
 405.595074496 517.536289631 405.595074496 517.536289631 422.760742188 517.950195312 c 2,137,-1
 434.505859375 518.233398438 l 1,110,111
576.715820312 254.131835938 m 2,138,139
 585.120755422 254.131835938 585.120755422 254.131835938 590.842773438 260.37890625 c 0,140,141
 597 267 597 267 597.049804688 274.448242188 c 1,142,-1
 475.158203125 274.448242188 l 2,143,144
 459 274 459 274 446.830078125 286.874023438 c 0,145,146
 434.525390625 299.486480486 434.525390625 299.486480486 434.525390625 315.079101562 c 2,147,-1
 434.525390625 497.918945312 l 1,148,-1
 423.390625 497.59375 l 2,149,150
 415 497 415 497 409.766601562 491.534179688 c 0,151,152
 404.03125 485.03540961 404.03125 485.03540961 404.03125 477.603515625 c 2,153,-1
 404.03125 274.448242188 l 2,154,155
 404 267 404 267 410.216796875 260.383789062 c 0,156,157
 415.880567168 254.131835938 415.880567168 254.131835938 424.346679688 254.131835938 c 2,158,-1
 576.715820312 254.131835938 l 2,138,139
597.030273438 538.247070312 m 1,159,-1
 597.030273438 507.8125 l 2,160,161
 597 499 597 499 603.41015625 488.275390625 c 0,162,163
 610 478 610 478 617.34765625 477.603515625 c 1,164,-1
 647.8203125 477.604492188 l 1,165,-1
 597.030273438 538.247070312 l 1,159,-1
576.71484375 497.655273438 m 0,166,167
 577 515 577 515 576.71484375 538.55078125 c 1,168,-1
 475.13671875 538.55078125 l 2,169,170
 467 539 467 539 461.004882812 532.297851562 c 0,171,172
 454.819335938 525.810521623 454.819335938 525.810521623 454.819335938 518.234375 c 2,173,-1
 454.819335938 315.079101562 l 2,174,175
 455 307 455 307 461.004882812 301.014648438 c 0,176,177
 467.237507484 294.76171875 467.237507484 294.76171875 475.13671875 294.76171875 c 2,178,-1
 627.502929688 294.76171875 l 2,179,180
 635 295 635 295 641.6328125 301.014648438 c 0,181,182
 648 307 648 307 647.819335938 315.079101562 c 1,183,-1
 647.818359375 457.288085938 l 1,184,-1
 617.345703125 457.288085938 l 2,185,186
 601 457 601 457 588.950195312 469.5234375 c 128,-1,187
 577 482 577 482 576.71484375 497.655273438 c 0,166,167
597.030273438 365.745117188 m 2,188,189
 607.00463684 365.745117188 607.00463684 365.745117188 607.189453125 355.5859375 c 0,190,191
 607.007655025 345.427734375 607.007655025 345.427734375 597.030273438 345.427734375 c 2,192,-1
 505.610351562 345.427734375 l 2,193,194
 495 345 495 345 495.453125 355.5859375 c 0,195,196
 495.011090175 365.745117188 495.011090175 365.745117188 505.610351562 365.745117188 c 2,197,-1
 597.030273438 365.745117188 l 2,188,189
EndSplineSet
Validated: 3105
EndChar

StartChar: uniE622
Encoding: 58914 58914 33
Width: 1024
VWidth: 0
LayerCount: 2
Fore
SplineSet
713.559570312 128.795898438 m 0,0,1
 800.78849562 102.384686372 800.78849562 102.384686372 800.786132812 57.451171875 c 128,-1,2
 800.786132812 12.5114864542 800.786132812 12.5114864542 713.557617188 -13.8974609375 c 0,3,4
 636.175053564 -37.318359375 636.175053564 -37.318359375 527.663085938 -37.318359375 c 128,-1,5
 419.156737902 -37.318359375 419.156737902 -37.318359375 341.766601562 -13.8974609375 c 0,6,7
 254.538085938 12.5136270838 254.538085938 12.5136270838 254.538085938 57.451171875 c 128,-1,8
 254.538085938 102.383833854 254.538085938 102.383833854 341.766601562 128.794921875 c 0,9,10
 411.391868892 149.865094217 411.391868892 149.865094217 508.341796875 152.004882812 c 1,11,-1
 481.83984375 404.5234375 l 1,12,13
 406.849792604 420.472414147 406.849792604 420.472414147 357.640716614 480.541576655 c 128,-1,14
 308.431640625 540.610739163 308.431640625 540.610739163 308.431640625 618.946289062 c 0,15,16
 308.431640625 709.754225893 308.431640625 709.754225893 372.643592439 773.965980134 c 128,-1,17
 436.855544253 838.177734375 436.855544253 838.177734375 527.6640625 838.177734375 c 128,-1,18
 618.474644641 838.177734375 618.474644641 838.177734375 682.687517633 773.966046818 c 128,-1,19
 746.900390625 709.754359262 746.900390625 709.754359262 746.900390625 618.946289062 c 0,20,21
 746.900390625 540.60091529 746.900390625 540.60091529 697.680685859 480.528612459 c 128,-1,22
 648.460981093 420.456309629 648.460981093 420.456309629 573.458007812 404.514648438 c 1,23,-1
 546.741210938 152.01171875 l 1,24,25
 643.873025895 149.895201994 643.873025895 149.895201994 713.559570312 128.795898438 c 0,0,1
407.68359375 679.403320312 m 128,-1,27
 407.68359375 654.155459698 407.68359375 654.155459698 425.537992803 636.301850943 c 128,-1,28
 443.392391856 618.448242188 443.392391856 618.448242188 468.640625 618.448242188 c 128,-1,29
 493.888387495 618.448242188 493.888387495 618.448242188 511.743510154 636.301981816 c 128,-1,30
 529.598632812 654.155721444 529.598632812 654.155721444 529.598632812 679.403320312 c 128,-1,31
 529.598632812 704.652796798 529.598632812 704.652796798 511.743669986 722.50657418 c 128,-1,32
 493.888707159 740.360351562 493.888707159 740.360351562 468.640625 740.360351562 c 128,-1,33
 443.392240846 740.360351562 443.392240846 740.360351562 425.537917298 722.506423161 c 128,-1,26
 407.68359375 704.65249476 407.68359375 704.65249476 407.68359375 679.403320312 c 128,-1,27
289.208984375 57.453125 m 128,-1,35
 289.208984375 53.4615587156 289.208984375 53.4615587156 294.059035111 47.9681734707 c 128,-1,36
 298.909085847 42.4747882259 298.909085847 42.4747882259 313.95300916 34.3342353834 c 128,-1,37
 328.996932473 26.1936825409 328.996932473 26.1936825409 351.821289062 19.2841796875 c 0,38,39
 423.048706543 -2.27335631689 423.048706543 -2.27335631689 524.575195312 -2.6396484375 c 1,40,-1
 511.978515625 117.403320312 l 1,41,42
 418.05384575 115.664981431 418.05384575 115.664981431 351.815429688 95.6171875 c 0,43,44
 328.994464847 88.7092440904 328.994464847 88.7092440904 313.951415691 80.5686718878 c 128,-1,45
 298.908366535 72.4280996852 298.908366535 72.4280996852 294.058675455 66.9352343622 c 128,-1,34
 289.208984375 61.4423690393 289.208984375 61.4423690393 289.208984375 57.453125 c 128,-1,35
703.514648438 19.2841796875 m 0,46,47
 726.338401494 26.1936360745 726.338401494 26.1936360745 741.382273063 34.3342061458 c 128,-1,48
 756.426144632 42.4747762171 756.426144632 42.4747762171 761.276255583 47.9678771875 c 128,-1,49
 766.126366533 53.460978158 766.126366533 53.460978158 766.126953125 57.4521484375 c 128,-1,50
 766.126953125 61.4414103847 766.126953125 61.4414103847 761.276864639 66.9342615596 c 128,-1,51
 756.426776152 72.4271127345 756.426776152 72.4271127345 741.382315049 80.5676915654 c 128,-1,52
 726.337853946 88.7082703962 726.337853946 88.7082703962 703.514648438 95.6162109375 c 0,53,54
 637.189568986 115.69404763 637.189568986 115.69404763 543.081054688 117.407226562 c 1,55,-1
 530.37890625 -2.6396484375 l 1,56,57
 632.135058278 -2.3187322918 632.135058278 -2.3187322918 703.514648438 19.2841796875 c 0,46,47
703.514648438 19.2841796875 m 1024,58,-1
EndSplineSet
Validated: 33
EndChar

StartChar: uniE623
Encoding: 58915 58915 34
Width: 1024
VWidth: 0
LayerCount: 2
Fore
SplineSet
424.845703125 604.590820312 m 1,0,-1
 671.66796875 414.508789062 l 1,1,-1
 424.845703125 251.987304688 l 1,2,-1
 424.845703125 604.590820312 l 1,0,-1
910.145507812 265.088867188 m 0,3,4
 904.275256657 251.212825117 904.275256657 251.212825117 896.98828125 237.030273438 c 1,5,6
 928.841796875 193.365641951 928.841796875 193.365641951 928.841796875 139.237304688 c 0,7,8
 928.841796875 70.294098292 928.841796875 70.294098292 879.946609196 21.543533521 c 128,-1,9
 831.051421516 -27.20703125 831.051421516 -27.20703125 761.90234375 -27.20703125 c 0,10,11
 689.221979868 -27.20703125 689.221979868 -27.20703125 639.788085938 26.0966796875 c 1,12,13
 584.24557486 10.3232421875 584.24557486 10.3232421875 525.788085938 10.3232421875 c 0,14,15
 440.931304307 10.3232421875 440.931304307 10.3232421875 363.4140625 43.11328125 c 0,16,17
 288.552486083 74.7746760842 288.552486083 74.7746760842 230.823242188 132.500976562 c 128,-1,18
 173.091088789 190.233129961 173.091088789 190.233129961 141.432617188 265.088867188 c 0,19,20
 108.642578125 342.614939346 108.642578125 342.614939346 108.642578125 427.467773438 c 128,-1,21
 108.642578125 512.325985504 108.642578125 512.325985504 141.432617188 589.850585938 c 0,22,23
 173.094334729 664.712526367 173.094334729 664.712526367 230.823242188 722.435546875 c 128,-1,24
 288.545645414 780.157950101 288.545645414 780.157950101 363.4140625 811.828125 c 0,25,26
 440.940638995 844.61328125 440.940638995 844.61328125 525.788085938 844.61328125 c 128,-1,27
 610.638462568 844.61328125 610.638462568 844.61328125 688.165039062 811.828125 c 0,28,29
 763.033456149 780.157950101 763.033456149 780.157950101 820.755859375 722.435546875 c 128,-1,30
 878.486703283 664.709118441 878.486703283 664.709118441 910.145507812 589.850585938 c 0,31,32
 942.935546875 512.329464908 942.935546875 512.329464908 942.935546875 427.467773438 c 128,-1,33
 942.935546875 342.611459876 942.935546875 342.611459876 910.145507812 265.088867188 c 0,3,4
897.538085938 139.237304688 m 128,-1,35
 897.538085938 195.254867324 897.538085938 195.254867324 857.810066725 234.864738349 c 128,-1,36
 818.082047513 274.474609375 818.082047513 274.474609375 761.8984375 274.474609375 c 0,37,38
 728.190719807 274.474609375 728.190719807 274.474609375 699.085829424 259.09679039 c 128,-1,39
 669.980939042 243.718971404 669.980939042 243.718971404 651.203125 217.259765625 c 1,40,-1
 678.427734375 217.259765625 l 2,41,42
 684.90926594 217.259765625 684.90926594 217.259765625 689.493207189 212.689654638 c 128,-1,43
 694.077148438 208.11954365 694.077148438 208.11954365 694.077148438 201.65625 c 128,-1,44
 694.077148438 195.192770116 694.077148438 195.192770116 689.493113778 190.621775683 c 128,-1,45
 684.909079119 186.05078125 684.909079119 186.05078125 678.427734375 186.05078125 c 2,46,-1
 610.606445312 186.05078125 l 2,47,48
 604.125100569 186.05078125 604.125100569 186.05078125 599.541065909 190.621775683 c 128,-1,49
 594.95703125 195.192770116 594.95703125 195.192770116 594.95703125 201.65625 c 2,50,-1
 594.95703125 264.071289062 l 2,51,52
 594.95703125 270.534582713 594.95703125 270.534582713 599.540972499 275.1046937 c 128,-1,53
 604.124913747 279.674804688 604.124913747 279.674804688 610.606445312 279.674804688 c 128,-1,54
 617.090040796 279.674804688 617.090040796 279.674804688 621.67490321 275.104760194 c 128,-1,55
 626.259765625 270.534715701 626.259765625 270.534715701 626.259765625 264.071289062 c 2,56,-1
 626.259765625 236.038085938 l 1,57,58
 649.406035289 268.26987705 649.406035289 268.26987705 685.041038735 286.9767354 c 128,-1,59
 720.676042182 305.68359375 720.676042182 305.68359375 761.8984375 305.68359375 c 0,60,61
 824.378458948 305.68359375 824.378458948 305.68359375 871.45703125 264.822265625 c 1,62,63
 874.846982442 272.00366963 874.846982442 272.00366963 877.72265625 278.8046875 c 0,64,65
 907.737826648 349.759537648 907.737826648 349.759537648 907.73046875 427.467773438 c 128,-1,66
 907.73046875 505.196332738 907.73046875 505.196332738 877.72265625 576.133789062 c 0,67,68
 848.735821856 644.671404706 848.735821856 644.671404706 795.862304688 697.544921875 c 128,-1,69
 742.990230286 750.409638012 742.990230286 750.409638012 674.452148438 779.405273438 c 0,70,71
 603.504254506 809.413085938 603.504254506 809.413085938 525.786132812 809.413085938 c 128,-1,72
 448.069964244 809.413085938 448.069964244 809.413085938 377.122070312 779.405273438 c 0,73,74
 308.579795195 750.4177133 308.579795195 750.4177133 255.712890625 697.544921875 c 128,-1,75
 202.841726997 644.678173252 202.841726997 644.678173252 173.848632812 576.133789062 c 0,76,77
 143.83984375 505.180106232 143.83984375 505.180106232 143.83984375 427.471679688 c 128,-1,78
 143.83984375 349.75837033 143.83984375 349.75837033 173.848632812 278.8046875 c 0,79,80
 202.842805716 210.257753042 202.842805716 210.257753042 255.712890625 157.393554688 c 128,-1,81
 308.569493923 104.534008535 308.569493923 104.534008535 377.122070312 75.529296875 c 0,82,83
 448.066517088 45.5244140625 448.066517088 45.5244140625 525.786132812 45.5244140625 c 0,84,85
 572.542179377 45.5244140625 572.542179377 45.5244140625 617.352539062 56.55859375 c 1,86,87
 607.182305638 74.2691099335 607.182305638 74.2691099335 601.610351562 93.8544921875 c 0,88,89
 601.533473359 94.0246417411 601.533473359 94.0246417411 601.425819095 94.3468206418 c 128,-1,90
 601.318164832 94.6689995424 601.318164832 94.6689995424 601.28515625 94.7568359375 c 0,91,92
 600.942291284 95.6512014329 600.942291284 95.6512014329 600.889648438 95.8447265625 c 0,93,94
 600.173828125 98.8633825914 600.173828125 98.8633825914 600.173828125 100.23046875 c 0,95,96
 600.173828125 106.692692252 600.173828125 106.692692252 604.758211462 111.262850032 c 128,-1,97
 609.342594799 115.833007812 609.342594799 115.833007812 615.825195312 115.833007812 c 0,98,99
 626.817121286 115.833007812 626.817121286 115.833007812 630.462890625 105.228515625 c 1,100,-1
 630.735351562 105.3125 l 1,101,102
 642.204377911 61.140008697 642.204377911 61.140008697 678.625918663 32.5719574735 c 128,-1,103
 715.047459416 4.00390625 715.047459416 4.00390625 761.899414062 4.00390625 c 0,104,105
 818.082064245 4.00390625 818.082064245 4.00390625 857.810075091 43.6131756277 c 128,-1,34
 897.538085938 83.2224450055 897.538085938 83.2224450055 897.538085938 139.237304688 c 128,-1,35
829.719726562 141.837890625 m 2,106,107
 836.203003516 141.837890625 836.203003516 141.837890625 840.787536914 137.26837229 c 128,-1,108
 845.372070312 132.698853954 845.372070312 132.698853954 845.372070312 126.234375 c 128,-1,109
 845.372070312 119.771023627 845.372070312 119.771023627 840.787367717 115.200941501 c 128,-1,110
 836.202665121 110.630859375 836.202665121 110.630859375 829.719726562 110.630859375 c 2,111,-1
 761.90234375 110.630859375 l 2,112,113
 755.418143848 110.630859375 755.418143848 110.630859375 750.834560205 115.201205944 c 128,-1,114
 746.250976562 119.771552513 746.250976562 119.771552513 746.250976562 126.236328125 c 2,115,-1
 746.250976562 219.860351562 l 2,116,117
 746.250976562 226.322685768 746.250976562 226.322685768 750.834805053 230.893276478 c 128,-1,118
 755.418633543 235.463867188 755.418633543 235.463867188 761.900390625 235.463867188 c 128,-1,119
 768.38267226 235.463867188 768.38267226 235.463867188 772.967215036 230.893747425 c 128,-1,120
 777.551757812 226.323627663 777.551757812 226.323627663 777.551757812 219.860351562 c 2,121,-1
 777.551757812 141.837890625 l 1,122,-1
 829.719726562 141.837890625 l 2,106,107
EndSplineSet
Validated: 33
EndChar

StartChar: uniE624
Encoding: 58916 58916 35
Width: 1024
VWidth: 0
LayerCount: 2
Fore
SplineSet
527.616210938 830.73828125 m 1,0,-1
 527.616210938 830.73828125 l 1,1,2
 644.567358127 830.73828125 644.567358127 830.73828125 743.740065443 773.128922368 c 128,-1,3
 842.91277276 715.519563485 842.91277276 715.519563485 900.522304349 616.348616695 c 128,-1,4
 958.131835938 517.177669905 958.131835938 517.177669905 958.131835938 400.229492188 c 128,-1,5
 958.131835938 283.281674096 958.131835938 283.281674096 900.522172588 184.109318264 c 128,-1,6
 842.912509238 84.9369624312 842.912509238 84.9369624312 743.739546162 27.3259030906 c 128,-1,7
 644.566583086 -30.28515625 644.566583086 -30.28515625 527.616210938 -30.28515625 c 128,-1,8
 410.668596404 -30.28515625 410.668596404 -30.28515625 311.496983085 27.3258500003 c 128,-1,9
 212.325369767 84.9368562507 212.325369767 84.9368562507 154.71590754 184.109371354 c 128,-1,10
 97.1064453125 283.281886457 97.1064453125 283.281886457 97.1064453125 400.229492188 c 128,-1,11
 97.1064453125 517.177812521 97.1064453125 517.177812521 154.716012555 616.34897787 c 128,-1,12
 212.325579798 715.520143219 212.325579798 715.520143219 311.49687807 773.129212234 c 128,-1,13
 410.668176342 830.73828125 410.668176342 830.73828125 527.616210938 830.73828125 c 1,0,-1
527.616210938 34.294921875 m 1,14,-1
 527.616210938 34.294921875 l 1,15,-1
 527.616210938 766.163085938 l 1,16,17
 428.2123279 766.163085938 428.2123279 766.163085938 343.916607366 717.195135001 c 128,-1,18
 259.620886831 668.227184064 259.620886831 668.227184064 210.651752009 583.931167083 c 128,-1,19
 161.682617188 499.635150102 161.682617188 499.635150102 161.682617188 400.229492188 c 128,-1,20
 161.682617188 300.822190406 161.682617188 300.822190406 210.650932329 216.526185622 c 128,-1,21
 259.619247471 132.230180839 259.619247471 132.230180839 343.914822879 83.2625513569 c 128,-1,22
 428.210398287 34.294921875 428.210398287 34.294921875 527.616210938 34.294921875 c 1,14,-1
527.616210938 34.294921875 m 1024,23,-1
EndSplineSet
Validated: 5
EndChar

